<svg xmlns="http://www.w3.org/2000/svg" xmlns:xlink="http://www.w3.org/1999/xlink" viewBox="0 0 233.71 236"><defs><style>.cls-1{isolation:isolate;}.cls-2{fill:url(#_ÂÁ_Ï_ÌÌ_È_ËÂÌÚ_227);}.cls-3{fill:url(#_ÂÁ_Ï_ÌÌ_È_ËÂÌÚ_125);}.cls-4{fill:#7f0034;}.cls-21,.cls-4{opacity:0.35;}.cls-19,.cls-21,.cls-4,.cls-41,.cls-50,.cls-52{mix-blend-mode:multiply;}.cls-5{fill:url(#_ÂÁ_Ï_ÌÌ_È_ËÂÌÚ_227-2);}.cls-6{fill:url(#_ÂÁ_Ï_ÌÌ_È_ËÂÌÚ_125-2);}.cls-7{fill:#1b1a31;}.cls-8{fill:#4e074f;}.cls-9{fill:#3f004a;}.cls-10{fill:#390300;}.cls-11{fill:url(#_ÂÁ_Ï_ÌÌ_È_ËÂÌÚ_326);}.cls-12,.cls-37,.cls-38,.cls-42,.cls-45{opacity:0.3;}.cls-12,.cls-27,.cls-30,.cls-34,.cls-36,.cls-37,.cls-38,.cls-42,.cls-44,.cls-45{mix-blend-mode:color-dodge;}.cls-12{fill:url(#_ÂÁ_Ï_ÌÌ_È_ËÂÌÚ_243);}.cls-13{fill:#fff;mix-blend-mode:soft-light;}.cls-14{fill:url(#_ÂÁ_Ï_ÌÌ_È_ËÂÌÚ_358);}.cls-15{fill:url(#_ÂÁ_Ï_ÌÌ_È_ËÂÌÚ_218);}.cls-16{fill:url(#_ÂÁ_Ï_ÌÌ_È_ËÂÌÚ_162);}.cls-17{fill:url(#_ÂÁ_Ï_ÌÌ_È_ËÂÌÚ_292);}.cls-18{fill:url(#_ÂÁ_Ï_ÌÌ_È_ËÂÌÚ_225);}.cls-19{fill:#db2e4f;}.cls-19,.cls-41,.cls-50{opacity:0.32;}.cls-20{fill:url(#_ÂÁ_Ï_ÌÌ_È_ËÂÌÚ_326-2);}.cls-21,.cls-52{fill:#562e4f;}.cls-22{fill:url(#_ÂÁ_Ï_ÌÌ_È_ËÂÌÚ_358-2);}.cls-23{fill:url(#_ÂÁ_Ï_ÌÌ_È_ËÂÌÚ_125-3);}.cls-24{fill:url(#_ÂÁ_Ï_ÌÌ_È_ËÂÌÚ_227-3);}.cls-25{fill:url(#_ÂÁ_Ï_ÌÌ_È_ËÂÌÚ_125-4);}.cls-26{fill:url(#_ÂÁ_Ï_ÌÌ_È_ËÂÌÚ_275);}.cls-27,.cls-30,.cls-34,.cls-44{opacity:0.58;}.cls-27{fill:url(#_ÂÁ_Ï_ÌÌ_È_ËÂÌÚ_243-2);}.cls-28{fill:url(#_ÂÁ_Ï_ÌÌ_È_ËÂÌÚ_125-5);}.cls-29{fill:url(#_ÂÁ_Ï_ÌÌ_È_ËÂÌÚ_227-4);}.cls-30{fill:url(#_ÂÁ_Ï_ÌÌ_È_ËÂÌÚ_243-3);}.cls-31{fill:url(#_ÂÁ_Ï_ÌÌ_È_ËÂÌÚ_225-2);}.cls-32{fill:#283353;}.cls-33{fill:url(#_ÂÁ_Ï_ÌÌ_È_ËÂÌÚ_227-5);}.cls-34{fill:url(#_ÂÁ_Ï_ÌÌ_È_ËÂÌÚ_243-4);}.cls-35{fill:url(#_ÂÁ_Ï_ÌÌ_È_ËÂÌÚ_125-6);}.cls-36,.cls-52{opacity:0.54;}.cls-36{fill:url(#_ÂÁ_Ï_ÌÌ_È_ËÂÌÚ_245);}.cls-37{fill:url(#_ÂÁ_Ï_ÌÌ_È_ËÂÌÚ_243-5);}.cls-38{fill:url(#_ÂÁ_Ï_ÌÌ_È_ËÂÌÚ_243-6);}.cls-39{fill:url(#_ÂÁ_Ï_ÌÌ_È_ËÂÌÚ_275-2);}.cls-40{fill:url(#_ÂÁ_Ï_ÌÌ_È_ËÂÌÚ_275-3);}.cls-41{fill:#d02e4f;}.cls-42{fill:url(#_ÂÁ_Ï_ÌÌ_È_ËÂÌÚ_243-7);}.cls-43{fill:url(#_ÂÁ_Ï_ÌÌ_È_ËÂÌÚ_227-6);}.cls-44{fill:url(#_ÂÁ_Ï_ÌÌ_È_ËÂÌÚ_243-8);}.cls-45{fill:url(#_ÂÁ_Ï_ÌÌ_È_ËÂÌÚ_243-9);}.cls-46{fill:url(#_ÂÁ_Ï_ÌÌ_È_ËÂÌÚ_125-7);}.cls-47{fill:url(#_ÂÁ_Ï_ÌÌ_È_ËÂÌÚ_125-8);}.cls-48{fill:url(#_ÂÁ_Ï_ÌÌ_È_ËÂÌÚ_275-4);}.cls-49{fill:#ff7f17;}.cls-50{fill:#842e4f;}.cls-51{fill:url(#_ÂÁ_Ï_ÌÌ_È_ËÂÌÚ_358-3);}.cls-53{fill:url(#_ÂÁ_Ï_ÌÌ_È_ËÂÌÚ_358-4);}</style><linearGradient id="_ÂÁ_Ï_ÌÌ_È_ËÂÌÚ_227" x1="101.1" y1="238.13" x2="101.1" y2="161.02" gradientUnits="userSpaceOnUse"><stop offset="0" stop-color="#ffa031"/><stop offset="1" stop-color="#ffd638"/></linearGradient><linearGradient id="_ÂÁ_Ï_ÌÌ_È_ËÂÌÚ_125" x1="101.21" y1="238.13" x2="101.21" y2="165.72" gradientUnits="userSpaceOnUse"><stop offset="0" stop-color="#f17038"/><stop offset="1" stop-color="#ffa031"/></linearGradient><linearGradient id="_ÂÁ_Ï_ÌÌ_È_ËÂÌÚ_227-2" x1="207.1" y1="238.13" x2="207.1" y2="161.02" xlink:href="#_ÂÁ_Ï_ÌÌ_È_ËÂÌÚ_227"/><linearGradient id="_ÂÁ_Ï_ÌÌ_È_ËÂÌÚ_125-2" x1="206.99" y1="238.13" x2="206.99" y2="165.72" xlink:href="#_ÂÁ_Ï_ÌÌ_È_ËÂÌÚ_125"/><linearGradient id="_ÂÁ_Ï_ÌÌ_È_ËÂÌÚ_326" x1="112.75" y1="75" x2="112.75" y2="4" gradientUnits="userSpaceOnUse"><stop offset="0" stop-color="#861878"/><stop offset="1" stop-color="#bd3992"/></linearGradient><linearGradient id="_ÂÁ_Ï_ÌÌ_È_ËÂÌÚ_243" x1="68.48" y1="33.04" x2="167.08" y2="33.04" gradientUnits="userSpaceOnUse"><stop offset="0"/><stop offset="1" stop-color="#cebda2"/></linearGradient><linearGradient id="_ÂÁ_Ï_ÌÌ_È_ËÂÌÚ_358" x1="56.52" y1="85.87" x2="56.52" y2="5.67" gradientUnits="userSpaceOnUse"><stop offset="0" stop-color="#5a185b"/><stop offset="1" stop-color="#7f237c"/></linearGradient><linearGradient id="_ÂÁ_Ï_ÌÌ_È_ËÂÌÚ_218" x1="105.97" y1="93.83" x2="105.97" y2="76.37" gradientUnits="userSpaceOnUse"><stop offset="0" stop-color="#7dccd4"/><stop offset="1" stop-color="#54546f"/></linearGradient><linearGradient id="_ÂÁ_Ï_ÌÌ_È_ËÂÌÚ_162" x1="97.46" y1="89.83" x2="97.46" y2="73.3" gradientUnits="userSpaceOnUse"><stop offset="0" stop-color="#463168"/><stop offset="1" stop-color="#322941"/></linearGradient><linearGradient id="_ÂÁ_Ï_ÌÌ_È_ËÂÌÚ_292" x1="120.74" y1="193.3" x2="120.74" y2="88.54" gradientUnits="userSpaceOnUse"><stop offset="0" stop-color="#7dccc0"/><stop offset="1" stop-color="#54546f"/></linearGradient><linearGradient id="_ÂÁ_Ï_ÌÌ_È_ËÂÌÚ_225" x1="57.03" y1="193.3" x2="57.03" y2="91.57" gradientUnits="userSpaceOnUse"><stop offset="0" stop-color="#46667a"/><stop offset="1" stop-color="#3c3341"/></linearGradient><linearGradient id="_ÂÁ_Ï_ÌÌ_È_ËÂÌÚ_326-2" x1="101.1" y1="153.23" x2="101.1" y2="82.17" xlink:href="#_ÂÁ_Ï_ÌÌ_È_ËÂÌÚ_326"/><linearGradient id="_ÂÁ_Ï_ÌÌ_È_ËÂÌÚ_358-2" x1="51.57" y1="153.23" x2="51.57" y2="85.11" xlink:href="#_ÂÁ_Ï_ÌÌ_È_ËÂÌÚ_358"/><linearGradient id="_ÂÁ_Ï_ÌÌ_È_ËÂÌÚ_125-3" x1="54.04" y1="164.56" x2="54.04" y2="104.85" xlink:href="#_ÂÁ_Ï_ÌÌ_È_ËÂÌÚ_125"/><linearGradient id="_ÂÁ_Ï_ÌÌ_È_ËÂÌÚ_227-3" x1="45.8" y1="164.66" x2="45.8" y2="111.06" xlink:href="#_ÂÁ_Ï_ÌÌ_È_ËÂÌÚ_227"/><linearGradient id="_ÂÁ_Ï_ÌÌ_È_ËÂÌÚ_125-4" x1="45.8" y1="155.6" x2="45.8" y2="120.13" xlink:href="#_ÂÁ_Ï_ÌÌ_È_ËÂÌÚ_125"/><radialGradient id="_ÂÁ_Ï_ÌÌ_È_ËÂÌÚ_275" cx="47.74" cy="138" r="13.16" gradientUnits="userSpaceOnUse"><stop offset="0" stop-color="#00e0a1"/><stop offset="1" stop-color="#40ffb3"/></radialGradient><linearGradient id="_ÂÁ_Ï_ÌÌ_È_ËÂÌÚ_243-2" x1="53.52" y1="164.66" x2="53.52" y2="111.07" xlink:href="#_ÂÁ_Ï_ÌÌ_È_ËÂÌÚ_243"/><linearGradient id="_ÂÁ_Ï_ÌÌ_È_ËÂÌÚ_125-5" x1="49.67" y1="66.76" x2="49.67" y2="12.06" xlink:href="#_ÂÁ_Ï_ÌÌ_È_ËÂÌÚ_125"/><linearGradient id="_ÂÁ_Ï_ÌÌ_È_ËÂÌÚ_227-4" x1="42.12" y1="66.85" x2="42.12" y2="17.75" xlink:href="#_ÂÁ_Ï_ÌÌ_È_ËÂÌÚ_227"/><linearGradient id="_ÂÁ_Ï_ÌÌ_È_ËÂÌÚ_243-3" x1="42.53" y1="42.3" x2="55.39" y2="42.3" xlink:href="#_ÂÁ_Ï_ÌÌ_È_ËÂÌÚ_243"/><linearGradient id="_ÂÁ_Ï_ÌÌ_È_ËÂÌÚ_225-2" x1="141.51" y1="188.59" x2="141.51" y2="176.48" xlink:href="#_ÂÁ_Ï_ÌÌ_È_ËÂÌÚ_225"/><linearGradient id="_ÂÁ_Ï_ÌÌ_È_ËÂÌÚ_227-5" x1="25.29" y1="240" x2="25.29" y2="168.32" xlink:href="#_ÂÁ_Ï_ÌÌ_È_ËÂÌÚ_227"/><linearGradient id="_ÂÁ_Ï_ÌÌ_È_ËÂÌÚ_243-4" x1="4.69" y1="204.16" x2="49.06" y2="204.16" xlink:href="#_ÂÁ_Ï_ÌÌ_È_ËÂÌÚ_243"/><linearGradient id="_ÂÁ_Ï_ÌÌ_È_ËÂÌÚ_125-6" x1="32.49" y1="240" x2="32.49" y2="168.32" xlink:href="#_ÂÁ_Ï_ÌÌ_È_ËÂÌÚ_125"/><radialGradient id="_ÂÁ_Ï_ÌÌ_È_ËÂÌÚ_245" cx="132.44" cy="116.77" r="25.19" gradientUnits="userSpaceOnUse"><stop offset="0" stop-color="#cebda2"/><stop offset="1"/></radialGradient><linearGradient id="_ÂÁ_Ï_ÌÌ_È_ËÂÌÚ_243-5" x1="77.46" y1="106.3" x2="180.41" y2="106.3" xlink:href="#_ÂÁ_Ï_ÌÌ_È_ËÂÌÚ_243"/><linearGradient id="_ÂÁ_Ï_ÌÌ_È_ËÂÌÚ_243-6" x1="106.15" y1="174.64" x2="173.95" y2="174.64" xlink:href="#_ÂÁ_Ï_ÌÌ_È_ËÂÌÚ_243"/><radialGradient id="_ÂÁ_Ï_ÌÌ_È_ËÂÌÚ_275-2" cx="163.75" cy="111.14" r="10.73" xlink:href="#_ÂÁ_Ï_ÌÌ_È_ËÂÌÚ_275"/><radialGradient id="_ÂÁ_Ï_ÌÌ_È_ËÂÌÚ_275-3" cx="119.18" cy="35.65" r="28.11" xlink:href="#_ÂÁ_Ï_ÌÌ_È_ËÂÌÚ_275"/><linearGradient id="_ÂÁ_Ï_ÌÌ_È_ËÂÌÚ_243-7" x1="14.31" y1="176.55" x2="49.06" y2="176.55" xlink:href="#_ÂÁ_Ï_ÌÌ_È_ËÂÌÚ_243"/><linearGradient id="_ÂÁ_Ï_ÌÌ_È_ËÂÌÚ_227-6" x1="166.51" y1="240" x2="166.51" y2="169.12" xlink:href="#_ÂÁ_Ï_ÌÌ_È_ËÂÌÚ_227"/><linearGradient id="_ÂÁ_Ï_ÌÌ_È_ËÂÌÚ_243-8" x1="146.77" y1="204.78" x2="176.64" y2="204.78" xlink:href="#_ÂÁ_Ï_ÌÌ_È_ËÂÌÚ_243"/><linearGradient id="_ÂÁ_Ï_ÌÌ_È_ËÂÌÚ_243-9" x1="146.77" y1="193.36" x2="186.25" y2="193.36" xlink:href="#_ÂÁ_Ï_ÌÌ_È_ËÂÌÚ_243"/><linearGradient id="_ÂÁ_Ï_ÌÌ_È_ËÂÌÚ_125-7" x1="159.84" y1="240" x2="159.84" y2="169.81" xlink:href="#_ÂÁ_Ï_ÌÌ_È_ËÂÌÚ_125"/><linearGradient id="_ÂÁ_Ï_ÌÌ_È_ËÂÌÚ_125-8" x1="40.59" y1="57.23" x2="40.59" y2="26.26" xlink:href="#_ÂÁ_Ï_ÌÌ_È_ËÂÌÚ_125"/><radialGradient id="_ÂÁ_Ï_ÌÌ_È_ËÂÌÚ_275-4" cx="42.27" cy="41.87" r="11.49" xlink:href="#_ÂÁ_Ï_ÌÌ_È_ËÂÌÚ_275"/><linearGradient id="_ÂÁ_Ï_ÌÌ_È_ËÂÌÚ_358-3" x1="84.21" y1="112.11" x2="112.47" y2="112.11" gradientTransform="matrix(1, -0.03, 0.04, 1.19, -7.4, -40.14)" xlink:href="#_ÂÁ_Ï_ÌÌ_È_ËÂÌÚ_358"/><linearGradient id="_ÂÁ_Ï_ÌÌ_È_ËÂÌÚ_358-4" x1="85.52" y1="116.41" x2="113.78" y2="116.41" gradientTransform="matrix(1, -0.03, 0.04, 1.19, -7.4, -40.14)" xlink:href="#_ÂÁ_Ï_ÌÌ_È_ËÂÌÚ_358"/></defs><title>baby</title><g class="cls-1"><g id="Calque_1" data-name="Calque 1"><path class="cls-2" d="M129.22,175.24l0,0-.94.31v0L101.1,185l-11.33,21.6L73.21,238.13a121.87,121.87,0,0,1,1.39-26.68,230.38,230.38,0,0,1,11.08-42.33c1.84-5.08,3.13-8.1,3.13-8.1,8.36,0,25.53,6,31.25,8.1,1.2.43,1.9.7,1.9.7l6.42,4.79v0Z" transform="translate(-1.52 -4)"/><path class="cls-3" d="M129.22,175.24l0,0-1,.63a150.26,150.26,0,0,0-31.12,27.92c-7.91,9.43-15.38,21-19.87,34.32h-4a135.8,135.8,0,0,1,2.53-26.26c2.6-13.7,7.93-30.17,18.69-42.75,1-1.17,2-2.31,3.14-3.4,0,0,7.8,1.18,16.08,3.4,5.38,1.44,11,3.32,14.73,5.58C128.68,174.88,129,175.06,129.22,175.24Z" transform="translate(-1.52 -4)"/><path class="cls-4" d="M129.22,169.12l-.84,5.49v.09l-.13.87v0l-.05.3a150.26,150.26,0,0,0-31.12,27.92l-7.31,2.76-14,5.3-1.14-.42a230.38,230.38,0,0,1,11.08-42.33Z" transform="translate(-1.52 -4)"/><path class="cls-5" d="M235,238.13l-10.48-20L207.1,185,179,175.26l0,0,7.27-5.42s23-8.8,33.14-8.8A240.07,240.07,0,0,1,232.1,203C234.38,214.32,235.81,226.64,235,238.13Z" transform="translate(-1.52 -4)"/><path class="cls-6" d="M235,238.13h-4a96.14,96.14,0,0,0-7.84-17.24c-16.26-28.25-43.15-45-44.14-45.63l0,0c9.13-6.12,31.65-9.52,31.65-9.52,11,11,17.07,26,20.38,39.44A137.9,137.9,0,0,1,235,238.13Z" transform="translate(-1.52 -4)"/><path class="cls-7" d="M157.89,192.34l39.85-14.91s1.93-5.68-2.18-7.62l-32.44,10.67Z" transform="translate(-1.52 -4)"/><path class="cls-8" d="M166.24,75s-38.69,8.6-49.88,10.87c0,0-57.94,2.3-81.15,0L73,45.86Z" transform="translate(-1.52 -4)"/><path class="cls-9" d="M123.94,77c0,6.17-36.87,5.88-37.57,1,0-.3.33-.59,1-.88,5.48-2.17,31.36-3.13,35.87-.88C123.69,76.5,123.94,76.74,123.94,77Z" transform="translate(-1.52 -4)"/><path class="cls-10" d="M123.26,76.29c-4.47,4.29-30.35,4.2-35.87.88C92.87,75,118.75,74,123.26,76.29Z" transform="translate(-1.52 -4)"/><path class="cls-11" d="M167.07,62a110.07,110.07,0,0,1-.83,13s-4.45-1.92-14.81-3.92l-.12,0C138,68.47,115,65.75,79.39,66.69c0,0-12.72-43.77-20.94-61l0,0A91.53,91.53,0,0,1,68.48,4.48c15.42-1.16,47.79-1.2,91.39,11.67A154.33,154.33,0,0,1,167.07,62Z" transform="translate(-1.52 -4)"/><path class="cls-12" d="M167.07,62C125.85,63.86,68.48,4.48,68.48,4.48c15.42-1.16,47.79-1.2,91.39,11.67A154.33,154.33,0,0,1,167.07,62Z" transform="translate(-1.52 -4)"/><path class="cls-7" d="M133.56,65.15c-1.69-1.11-4.23-3-3.26-4,.75-.75,2-.24,3,.39-.19-3-.46-6.71-.8-10.87h0c-1.2-1.08-3.42-3.22-2.43-3.78.7-.39,1.54.09,2.17.65-.85-9.85-2-21.34-3.56-30a24.86,24.86,0,0,0-6.23-5.45c0-.36,3.71,1.35,5.75,2.82a60.66,60.66,0,0,0-1.63-6.65s-4.81-.81-10.18-1.6a3.51,3.51,0,0,1-2.77,2.61c-.89,0-3.81-1.5-4.39-3.6-1.71-.2-3.27-.38-4.51-.47,0,0,1.05,2.37,2.61,6.74a12.78,12.78,0,0,1,2.94,2.37c0,1.23-.4,2.42-1.37,2.24a229.42,229.42,0,0,1,8.13,34c1.65,1.26,3.14,2.54,3.14,3.07s-1.25.15-2.72-.41c.67,4.45,1.26,9.14,1.72,14.06l14.57,1.22S133.7,67.24,133.56,65.15ZM118.37,44.29c-.42-.42-.71-5.38.82-3.85C119.73,41,118.86,44.78,118.37,44.29Zm6.08,10.47a.71.71,0,1,1,0-1.41A.71.71,0,1,1,124.45,54.76Zm5-10.54a.71.71,0,1,1-.05-1.41A.71.71,0,1,1,129.47,44.22Zm-9.25-33.58a.71.71,0,1,1,0-1.41A.71.71,0,1,1,120.22,10.64ZM117.47,21.1s-.8-2.21,0-2.21C118.5,18.89,118.46,21.1,117.47,21.1Zm8.45,46.38s-.8-2.2,0-2.2C127,65.28,126.91,67.48,125.92,67.48Zm1.78-6.73s-.81-2.2,0-2.2C128.72,58.55,128.68,60.75,127.7,60.75Zm4.06-6s-.51-1.41,0-1.41C132.42,53.35,132.39,54.76,131.76,54.76ZM112.23,19.6s-.51-1.41,0-1.41C112.89,18.19,112.86,19.6,112.23,19.6Zm16.36,45.87c-1,0-.94-.91.14-.91S129.58,65.47,128.59,65.47ZM125.6,22c-1,0-2.43-3.06-.85-3.06C126,18.89,126.62,22,125.6,22Z" transform="translate(-1.52 -4)"/><path class="cls-13" d="M151.31,71.05C138,68.47,115,65.75,79.39,66.69c0,0-12.72-43.77-20.94-61,.44.67,13.21,22.82,22.9,58.38C81.35,64.07,123,63.84,151.31,71.05Z" transform="translate(-1.52 -4)"/><path class="cls-14" d="M79.39,66.69A155.25,155.25,0,0,0,57.67,73c-1,.36-1.9.73-2.86,1.12-7.35,3-14.74,6.89-19.6,11.77,0,0-2.05-9.52-1.44-25.4A172.76,172.76,0,0,1,38.94,24.9c.43-1.75.89-3.52,1.4-5.32L58.43,5.67S72.28,29.63,79.39,66.69Z" transform="translate(-1.52 -4)"/><path class="cls-9" d="M161,45.86,157.82,45c-34.62-9.16-70.75-7.71-74.89-7.5l-.41,0-2-10.81v0l-1.16-6.28c36.28,0,61.87,5.8,72.91,8.87l.19.06c3.4.94,5.38,1.63,5.79,1.78l.09,0A42.52,42.52,0,0,1,161,45.86Z" transform="translate(-1.52 -4)"/><path class="cls-15" d="M99.23,77.3l1.87,16.53h10.3l1.31-17.09S104.12,75.6,99.23,77.3Z" transform="translate(-1.52 -4)"/><polygon class="cls-16" points="97.71 73.3 95.34 74.34 95.34 89.83 99.58 89.83 97.71 73.3"/><path class="cls-17" d="M174,156.21C169.71,178.36,162,192.27,162,192.27l-55.85.79-16.62.24c-4.87-68-24.71-101.73-24.71-101.73,61.39-8,107.78,2.26,107.78,2.26A147.28,147.28,0,0,1,174,156.21Z" transform="translate(-1.52 -4)"/><path class="cls-18" d="M89.53,193.3H58.09c-11.37-11.38-19.48-25.19-24.89-36.64-.81-1.72-1.57-3.38-2.26-5a142.82,142.82,0,0,1-6.54-18C39,101.08,64.82,91.57,64.82,91.57a151.64,151.64,0,0,1,9.23,18.12,184.51,184.51,0,0,1,10.63,33.38C90.89,171.21,89.53,193.3,89.53,193.3Z" transform="translate(-1.52 -4)"/><path class="cls-19" d="M177.11,137.76s-7.12,20.65-40.57,20.65-51-13.56-51-13.56l-.85-1.78L78,129.26,33.2,156.66c-.81-1.72-1.57-3.38-2.26-5l43.11-42,3.49-3.4Z" transform="translate(-1.52 -4)"/><path class="cls-8" d="M27.19,153.23l5,1.26,47.73-29.16,7.47,15.59s17.58,13.57,51,13.57S179,133.85,179,133.85L79.39,102.37Z" transform="translate(-1.52 -4)"/><path class="cls-20" d="M179.89,128.44c-.09.73-.18,1.39-.27,2h0c-.32,2.16-.63,3.4-.63,3.4s-6.47,12.07-25.59,15.74h0a61.79,61.79,0,0,1-11.45,1c-26.59,0-42.7-8.53-48.08-12.16A16.31,16.31,0,0,1,91.92,137c-1.45-1.47-10.57-20.81-10.57-20.81L65.89,126.77,64,128,48.38,138.74l-21.2,14.49a98.9,98.9,0,0,1-5.39-20.42c.5-1.26,1.05-2.5,1.65-3.74q.6-1.2,1.23-2.37a75.8,75.8,0,0,1,8.59-12.49c.36-.43.72-.87,1.09-1.29A129.08,129.08,0,0,1,57.14,92.67c5-3.55,8.54-5.57,8.87-5.75l3.6-1.81c2.61-.51,5.23-.93,7.85-1.29C125.6,77.12,174,93,174,93,181.28,106.07,180.83,120.74,179.89,128.44Z" transform="translate(-1.52 -4)"/><path class="cls-19" d="M51.38,115.84c-3-2-22.12,12.56-20.44,26.6s22.32,28.91,28.86,26.7C69.91,165.72,64.48,124.32,51.38,115.84Z" transform="translate(-1.52 -4)"/><path class="cls-13" d="M153.37,149.58a61.79,61.79,0,0,1-11.45,1c-26.59,0-42.7-8.53-48.08-12.16A16.31,16.31,0,0,1,91.92,137c-1.45-1.47-10.57-20.81-10.57-20.81L65.89,126.77l-3.72-4.11-5-30,3.14-2.17,9.33-5.39,24.23,51S110.58,149.58,153.37,149.58Z" transform="translate(-1.52 -4)"/><path class="cls-21" d="M57.67,73a4.17,4.17,0,0,1-1.52.91,4,4,0,0,1-1.34.21c-5,.13-14.59-5.81-21-13.63A172.76,172.76,0,0,1,38.94,24.9c3.92-3.31,7.59-5.09,8.78-4.31C60.11,28.61,65.65,66,57.67,73Z" transform="translate(-1.52 -4)"/><path class="cls-22" d="M81.35,116.19l-54.17,37a98.9,98.9,0,0,1-5.39-20.42c.5-1.26,1.05-2.5,1.65-3.74.39-.8.79-1.58,1.23-2.37C37.33,103.31,65.08,87.44,66,86.92l3.6-1.81Z" transform="translate(-1.52 -4)"/><path class="cls-23" d="M56.53,164.56s4.91-.53,5.61-1.23,6.18-7.9,6.18-27.24S59.9,106.21,58.71,105s-12.07,3.85-17.94,9.73S56.53,164.56,56.53,164.56Z" transform="translate(-1.52 -4)"/><path class="cls-24" d="M48.11,111.26c-3-2-18.35,10.61-16.66,24.65s18.34,30.17,25.08,28.65S61.21,119.75,48.11,111.26Z" transform="translate(-1.52 -4)"/><path class="cls-25" d="M53.73,155a1.71,1.71,0,0,1-.82.57c-4.47,1-15.49-9.67-16.61-19s9-17.61,11-16.31a8.75,8.75,0,0,1,1,.78C55.56,127.61,57,151,53.73,155Z" transform="translate(-1.52 -4)"/><path class="cls-26" d="M53.73,155c-5.15-2.32-12.65-10.81-13.57-18.4-.82-6.88,4.51-13.22,8.16-15.53C55.56,127.61,57,151,53.73,155Z" transform="translate(-1.52 -4)"/><path class="cls-27" d="M48.11,111.26a1.94,1.94,0,0,0-1.35-.14,1.55,1.55,0,0,1,.32.14c13.1,8.49,15.16,51.79,8.42,53.3a3.54,3.54,0,0,1-.47.07,4.62,4.62,0,0,0,1.5-.07C63.27,163.05,61.21,119.75,48.11,111.26Z" transform="translate(-1.52 -4)"/><path class="cls-28" d="M52,66.76s4.5-.49,5.14-1.13,5.66-7.23,5.66-24.95S55,13.3,54,12.22s-11.06,3.53-16.44,8.91S52,66.76,52,66.76Z" transform="translate(-1.52 -4)"/><path class="cls-29" d="M44.23,17.93c-2.78-1.8-16.8,9.72-15.26,22.58s16.8,27.64,23,26.25S56.23,25.71,44.23,17.93Z" transform="translate(-1.52 -4)"/><path class="cls-30" d="M44.23,17.93a2.13,2.13,0,0,0-1.7,0h0c12,7.78,13.89,47.44,7.72,48.83h-.07a4.61,4.61,0,0,0,1.74,0C58.12,65.37,56.23,25.71,44.23,17.93Z" transform="translate(-1.52 -4)"/><polygon class="cls-7" points="65.33 189.3 60.66 178.73 77.13 176.48 79.84 189.3 65.33 189.3"/><polygon class="cls-7" points="119.22 188.85 120.73 176.48 145.25 176.48 143.01 188.51 119.22 188.85"/><polygon class="cls-31" points="138.64 176.48 137.77 188.59 143.01 188.51 145.25 176.48 138.64 176.48"/><polygon class="cls-32" points="70.25 189.3 66.8 177.89 60.66 178.73 65.33 189.3 70.25 189.3"/><polygon class="cls-7" points="82.12 189.3 82.12 199.82 74.38 202.06 47.55 182.89 51.79 179.96 52.52 174.61 73.2 188.85 82.12 189.3"/><polygon class="cls-32" points="82.12 199.82 51.79 179.96 52.52 174.61 73.2 188.85 82.12 189.3 82.12 199.82"/><path class="cls-33" d="M49.06,168.32a138,138,0,0,0-13.82,16.46C17.09,209.77,4.69,240,4.69,240H1.52c0-26.62,8.17-57.6,12.79-65.51a4.39,4.39,0,0,1,1.61-1.87C19.86,171.12,49.06,168.32,49.06,168.32Z" transform="translate(-1.52 -4)"/><path class="cls-34" d="M49.06,168.32l-3.46.35S14,200.13,4.69,240Z" transform="translate(-1.52 -4)"/><path class="cls-35" d="M4.69,240H7.13s21.62-37.2,53.15-60.5L49.05,168.32S13.12,204.63,4.69,240Z" transform="translate(-1.52 -4)"/><polygon class="cls-32" points="123.35 188.59 126.54 196.13 153.67 171.24 153.67 165.81 123.35 188.59"/><polygon class="cls-7" points="126.54 196.13 134.96 196.13 157.6 171.8 153.67 171.24 126.54 196.13"/><path class="cls-36" d="M121.3,82.94s14.18,12,21.18,67.67h1.11s-1.51-40.45-18.28-67.25Z" transform="translate(-1.52 -4)"/><path class="cls-37" d="M179.89,128.44C129.79,141.76,77.46,83.82,77.46,83.82,125.6,77.12,174,93,174,93,181.28,106.07,180.83,120.74,179.89,128.44Z" transform="translate(-1.52 -4)"/><path class="cls-8" d="M120.74,82.94s14.18,12,21.18,67.67H143s-3-40.86-19.77-67.66Z" transform="translate(-1.52 -4)"/><path class="cls-38" d="M174,156.21C169.71,178.36,162,192.27,162,192.27l-55.85.79C125.88,166.87,156.44,158.73,174,156.21Z" transform="translate(-1.52 -4)"/><path class="cls-8" d="M174.77,109.17c1.54,8-1.59,15.29-7,16.33s-11-4.58-12.56-12.55,1.59-15.29,7-16.33S173.23,101.2,174.77,109.17Z" transform="translate(-1.52 -4)"/><path class="cls-39" d="M172.1,109.53c1.31,6.81-1.36,13-6,13.94s-9.41-3.91-10.73-10.72,1.36-13,6-13.94S170.78,102.72,172.1,109.53Z" transform="translate(-1.52 -4)"/><path class="cls-21" d="M158.37,31.13l-3.74,2.12L80.55,26.7h0l-1.16-6.31c36.28,0,61.87,5.8,72.91,8.87l.19.06,5.79,1.78Z" transform="translate(-1.52 -4)"/><path class="cls-40" d="M157.82,45c-34.62-9.16-70.75-7.71-74.89-7.5l-.41,0-2-10.81v0c38.69-2.25,74.08,6.58,74.08,6.58C156,34.63,157.49,43.05,157.82,45Z" transform="translate(-1.52 -4)"/><path class="cls-41" d="M179.61,130.44c-.32,2.16-.63,3.4-.63,3.4s-9,16.77-37.06,16.77c-26.59,0-42.7-8.53-48.08-12.16,10.27,2.64,20.89,4.27,31,4C166.86,141.27,179.23,130.76,179.61,130.44Z" transform="translate(-1.52 -4)"/><path class="cls-13" d="M80.74,62.4c.56,1.64.51,3.15-.1,3.35s-1.55-1-2.1-2.61-.51-3.15.1-3.36S80.19,60.75,80.74,62.4Z" transform="translate(-1.52 -4)"/><path class="cls-13" d="M92.85,133.55c.56,1.65.51,3.15-.1,3.36s-1.55-1-2.1-2.62-.51-3.15.1-3.35S92.3,131.9,92.85,133.55Z" transform="translate(-1.52 -4)"/><path class="cls-13" d="M59,133.79c.19,1.73-.17,3.19-.81,3.26s-1.31-1.27-1.51-3,.17-3.19.81-3.26S58.78,132.06,59,133.79Z" transform="translate(-1.52 -4)"/><path class="cls-13" d="M54.47,39.28c.19,1.73-.17,3.19-.81,3.26s-1.31-1.27-1.51-3,.17-3.19.81-3.26S54.27,37.55,54.47,39.28Z" transform="translate(-1.52 -4)"/><path class="cls-42" d="M15.92,172.62c3.94-1.5,33.14-4.3,33.14-4.3a138,138,0,0,0-13.82,16.46c-8.07-3.71-15.14-7.25-20.93-10.29A4.39,4.39,0,0,1,15.92,172.62Z" transform="translate(-1.52 -4)"/><polygon class="cls-19" points="196.22 173.43 192.88 182.89 185.98 177.26 196.22 173.43"/><path class="cls-43" d="M185.6,216.49a168.62,168.62,0,0,1-3.27,23.14l-5.69.37A181.28,181.28,0,0,0,171,217.6c-4.53-14.3-12.15-32.88-24.2-47.78,0,0,24.08-2.57,38.06,2.17A248.48,248.48,0,0,1,185.6,216.49Z" transform="translate(-1.52 -4)"/><path class="cls-44" d="M146.77,169.82l3-.26s26.87,32.63,26.87,70.44l-11.53-31.51Z" transform="translate(-1.52 -4)"/><path class="cls-45" d="M185.6,216.49q-7.26.88-14.63,1.11c-4.53-14.3-12.15-32.88-24.2-47.78,0,0,24.08-2.57,38.06,2.17A248.48,248.48,0,0,1,185.6,216.49Z" transform="translate(-1.52 -4)"/><path class="cls-46" d="M146.77,169.81,143,176.49s20.09,17.22,31.32,63.14l2.29.37S171.85,198.33,146.77,169.81Z" transform="translate(-1.52 -4)"/><path class="cls-13" d="M168.15,201.55c.55,1.65.51,3.15-.1,3.36s-1.55-1-2.11-2.61-.51-3.15.1-3.36S167.6,199.91,168.15,201.55Z" transform="translate(-1.52 -4)"/><path class="cls-13" d="M26.86,195.21c-.87,1.5-2,2.46-2.58,2.14s-.3-1.8.57-3.31,2-2.46,2.58-2.14S27.73,193.7,26.86,195.21Z" transform="translate(-1.52 -4)"/><path class="cls-47" d="M47.51,56.67a1.5,1.5,0,0,1-.72.5c-3.9.88-13.52-8.44-14.5-16.56s7.87-15.37,9.62-14.23a7.7,7.7,0,0,1,.88.68C49.1,32.8,50.37,53.17,47.51,56.67Z" transform="translate(-1.52 -4)"/><path class="cls-48" d="M47.51,56.67c-4.5-2-11-9.43-11.84-16.06-.72-6,3.93-11.54,7.12-13.55C49.1,32.8,50.37,53.17,47.51,56.67Z" transform="translate(-1.52 -4)"/><path class="cls-7" d="M149.32,149a3,3,0,0,1-2.55-1.26c-.52-1,1-1.78,2.25-2.26a251.71,251.71,0,0,0-4.41-28.36c-.53-.33-1-.78-1-1.26a5.75,5.75,0,0,1,.36-1.7c-1-4.45-2.25-9-3.7-13.48h0c-.94-.45-2.14-1.2-2.14-2.08a2.93,2.93,0,0,1,.84-1.73,95.88,95.88,0,0,0-5.36-12.51l-15.8-1.62s.54,1,1.44,2.72c1.21.66,3.82,2.25,4.72,4.12s.42,5,.13,6.35a179.3,179.3,0,0,1,8.31,23.82v0c2.05,1.36,4.34,3,4.34,3.38s-2-.42-3.78-1.26a128.54,128.54,0,0,1,3.3,18c1.47.49,3,1.16,3,1.69s-1.52.48-2.83.31c.26,2.86.39,5.72.39,8.6a45.67,45.67,0,0,0,12.55-.45S149.38,149.68,149.32,149ZM127.25,96.51c-.75.75-1.94-1.49-1.64-1.81C126.12,94.21,128,95.77,127.25,96.51Zm4.64,9.78c-1,.5-3.06-4-2.67-4.42C130.32,100.8,132.92,105.8,131.89,106.29ZM133,91.08c-1.14,0-1.68-3.06-.85-3.06S134.1,91.08,133,91.08Zm3.34,19.28c-.52,0-1-1.81-.75-2.06S136.84,110.36,136.32,110.36Zm3.73,25.89c-.32,0-1.45-2.75-.17-2.75C140.45,133.5,140.36,136.25,140.05,136.25Zm4.8-11c.66,0,.42,2.53.42,3.18S144.2,125.26,144.85,125.26Zm.42,10.39c-1.49,0-1.12-4.29,0-4.29S146.77,135.65,145.27,135.65Z" transform="translate(-1.52 -4)"/><polygon class="cls-49" points="154 169.16 156.37 171.09 181.13 172.07 182.26 170.58 154 169.16"/><polygon class="cls-50" points="154 169.16 155.24 170.17 180.75 171.24 182.26 170.58 154 169.16"/><polygon class="cls-51" points="81.11 88.45 83.55 90.67 108.34 91.01 109.41 89.21 81.11 88.45"/><polygon class="cls-52" points="81.11 88.45 82.38 89.61 107.92 90.04 109.41 89.21 81.11 88.45"/><polygon class="cls-53" points="82.58 93.52 85.02 95.73 109.81 96.07 110.89 94.27 82.58 93.52"/><polygon class="cls-52" points="82.58 93.52 83.86 94.67 109.4 95.11 110.89 94.27 82.58 93.52"/><polygon class="cls-49" points="15.36 170.64 39.98 167.99 37.45 170.64 14.8 172.28 15.36 170.64"/><polygon class="cls-50" points="15.36 170.64 16.58 171.24 38.55 169.48 39.98 167.99 15.36 170.64"/><path class="cls-41" d="M235,238.13h-4a96.14,96.14,0,0,0-7.84-17.24l1.36-2.74,6.5-13L232.1,203C234.38,214.32,235.81,226.64,235,238.13Z" transform="translate(-1.52 -4)"/></g></g></svg>