<svg xmlns="http://www.w3.org/2000/svg" xmlns:xlink="http://www.w3.org/1999/xlink" viewBox="0 0 328.49 435"><defs><style>.cls-1{isolation:isolate;}.cls-2{fill:url(#_ÂÁ_Ï_ÌÌ_È_ËÂÌÚ_326);}.cls-3{fill:url(#_ÂÁ_Ï_ÌÌ_È_ËÂÌÚ_358);}.cls-4{fill:url(#_ÂÁ_Ï_ÌÌ_È_ËÂÌÚ_326-2);}.cls-5{fill:url(#_ÂÁ_Ï_ÌÌ_È_ËÂÌÚ_358-2);}.cls-6{fill:#283353;}.cls-7{fill:#1b1a31;}.cls-8{fill:url(#_ÂÁ_Ï_ÌÌ_È_ËÂÌÚ_227);}.cls-14,.cls-23,.cls-53,.cls-9{fill:#fff;mix-blend-mode:soft-light;}.cls-10,.cls-33,.cls-56{opacity:0.3;}.cls-10,.cls-11,.cls-33,.cls-56,.cls-57,.cls-60,.cls-61,.cls-67,.cls-69,.cls-70{mix-blend-mode:color-dodge;}.cls-10{fill:url(#_ÂÁ_Ï_ÌÌ_È_ËÂÌÚ_301);}.cls-11,.cls-60,.cls-61,.cls-67,.cls-69,.cls-70{opacity:0.58;}.cls-11{fill:url(#_ÂÁ_Ï_ÌÌ_È_ËÂÌÚ_243);}.cls-12{fill:url(#_ÂÁ_Ï_ÌÌ_È_ËÂÌÚ_125);}.cls-13{fill:#d02e4f;opacity:0.32;}.cls-13,.cls-27,.cls-44{mix-blend-mode:multiply;}.cls-14{opacity:0.2;}.cls-15{fill:url(#_ÂÁ_Ï_ÌÌ_È_ËÂÌÚ_303);}.cls-16{fill:url(#_ÂÁ_Ï_ÌÌ_È_ËÂÌÚ_295);}.cls-17{fill:url(#_ÂÁ_Ï_ÌÌ_È_ËÂÌÚ_125-2);}.cls-18{fill:url(#_ÂÁ_Ï_ÌÌ_È_ËÂÌÚ_227-2);}.cls-19{fill:url(#_ÂÁ_Ï_ÌÌ_È_ËÂÌÚ_125-3);}.cls-20{fill:url(#_ÂÁ_Ï_ÌÌ_È_ËÂÌÚ_227-3);}.cls-21{fill:#ffe800;}.cls-22{fill:url(#_ÂÁ_Ï_ÌÌ_È_ËÂÌÚ_295-2);}.cls-23{opacity:0.5;}.cls-24{fill:url(#_ÂÁ_Ï_ÌÌ_È_ËÂÌÚ_303-2);}.cls-25{fill:#4e074f;}.cls-26{fill:url(#_ÂÁ_Ï_ÌÌ_È_ËÂÌÚ_295-3);}.cls-27{fill:#db2e4f;opacity:0.16;}.cls-28{fill:url(#_ÂÁ_Ï_ÌÌ_È_ËÂÌÚ_326-3);}.cls-29{fill:url(#_ÂÁ_Ï_ÌÌ_È_ËÂÌÚ_358-3);}.cls-30{fill:url(#_ÂÁ_Ï_ÌÌ_È_ËÂÌÚ_295-4);}.cls-31{fill:url(#_ÂÁ_Ï_ÌÌ_È_ËÂÌÚ_298);}.cls-32{fill:url(#_ÂÁ_Ï_ÌÌ_È_ËÂÌÚ_225);}.cls-33{fill:url(#_ÂÁ_Ï_ÌÌ_È_ËÂÌÚ_301-2);}.cls-34{fill:#3f004a;}.cls-35{fill:#390300;}.cls-36{fill:url(#_ÂÁ_Ï_ÌÌ_È_ËÂÌÚ_299);}.cls-37{fill:url(#_ÂÁ_Ï_ÌÌ_È_ËÂÌÚ_303-3);}.cls-38{fill:url(#_ÂÁ_Ï_ÌÌ_È_ËÂÌÚ_326-4);}.cls-39{fill:url(#_ÂÁ_Ï_ÌÌ_È_ËÂÌÚ_358-4);}.cls-40{fill:url(#_ÂÁ_Ï_ÌÌ_È_ËÂÌÚ_295-5);}.cls-41{fill:url(#_ÂÁ_Ï_ÌÌ_È_ËÂÌÚ_303-4);}.cls-42{fill:url(#_ÂÁ_Ï_ÌÌ_È_ËÂÌÚ_303-5);}.cls-43{fill:url(#_ÂÁ_Ï_ÌÌ_È_ËÂÌÚ_295-6);}.cls-44{fill:#562e4f;opacity:0.35;}.cls-45{fill:url(#_ÂÁ_Ï_ÌÌ_È_ËÂÌÚ_125-4);}.cls-46{fill:url(#_ÂÁ_Ï_ÌÌ_È_ËÂÌÚ_227-4);}.cls-47{fill:url(#_ÂÁ_Ï_ÌÌ_È_ËÂÌÚ_125-5);}.cls-48{fill:url(#_ÂÁ_Ï_ÌÌ_È_ËÂÌÚ_227-5);}.cls-49{fill:url(#_ÂÁ_Ï_ÌÌ_È_ËÂÌÚ_358-5);}.cls-50{fill:url(#_ÂÁ_Ï_ÌÌ_È_ËÂÌÚ_326-5);}.cls-51{fill:url(#_ÂÁ_Ï_ÌÌ_È_ËÂÌÚ_125-6);}.cls-52{fill:url(#_ÂÁ_Ï_ÌÌ_È_ËÂÌÚ_227-6);}.cls-53{opacity:0.64;}.cls-54{fill:url(#_ÂÁ_Ï_ÌÌ_È_ËÂÌÚ_275);}.cls-55{fill:url(#_ÂÁ_Ï_ÌÌ_È_ËÂÌÚ_275-2);}.cls-56{fill:url(#_ÂÁ_Ï_ÌÌ_È_ËÂÌÚ_243-2);}.cls-57{fill:url(#_ÂÁ_Ï_ÌÌ_È_ËÂÌÚ_294);}.cls-58{fill:url(#_ÂÁ_Ï_ÌÌ_È_ËÂÌÚ_275-3);}.cls-59{fill:url(#_ÂÁ_Ï_ÌÌ_È_ËÂÌÚ_275-4);}.cls-60{fill:url(#_ÂÁ_Ï_ÌÌ_È_ËÂÌÚ_243-3);}.cls-61{fill:url(#_ÂÁ_Ï_ÌÌ_È_ËÂÌÚ_243-4);}.cls-62{fill:url(#_ÂÁ_Ï_ÌÌ_È_ËÂÌÚ_125-7);}.cls-63{fill:url(#_ÂÁ_Ï_ÌÌ_È_ËÂÌÚ_275-5);}.cls-64{fill:url(#_ÂÁ_Ï_ÌÌ_È_ËÂÌÚ_125-8);}.cls-65{fill:url(#_ÂÁ_Ï_ÌÌ_È_ËÂÌÚ_275-6);}.cls-66{fill:url(#_ÂÁ_Ï_ÌÌ_È_ËÂÌÚ_227-7);}.cls-67{fill:url(#_ÂÁ_Ï_ÌÌ_È_ËÂÌÚ_243-5);}.cls-68{fill:url(#_ÂÁ_Ï_ÌÌ_È_ËÂÌÚ_125-9);}.cls-69{fill:url(#_ÂÁ_Ï_ÌÌ_È_ËÂÌÚ_243-6);}.cls-70{fill:url(#_ÂÁ_Ï_ÌÌ_È_ËÂÌÚ_243-7);}</style><linearGradient id="_ÂÁ_Ï_ÌÌ_È_ËÂÌÚ_326" x1="269.01" y1="442" x2="269.01" y2="394.36" gradientUnits="userSpaceOnUse"><stop offset="0" stop-color="#861878"/><stop offset="1" stop-color="#bd3992"/></linearGradient><linearGradient id="_ÂÁ_Ï_ÌÌ_È_ËÂÌÚ_358" x1="222.91" y1="435" x2="222.91" y2="366.22" gradientUnits="userSpaceOnUse"><stop offset="0" stop-color="#5a185b"/><stop offset="1" stop-color="#7f237c"/></linearGradient><linearGradient id="_ÂÁ_Ï_ÌÌ_È_ËÂÌÚ_326-2" x1="132.92" x2="132.92" y2="396.03" xlink:href="#_ÂÁ_Ï_ÌÌ_È_ËÂÌÚ_326"/><linearGradient id="_ÂÁ_Ï_ÌÌ_È_ËÂÌÚ_358-2" x1="86.81" x2="86.81" y2="366.22" xlink:href="#_ÂÁ_Ï_ÌÌ_È_ËÂÌÚ_358"/><linearGradient id="_ÂÁ_Ï_ÌÌ_È_ËÂÌÚ_227" x1="315.33" y1="279.64" x2="315.33" y2="166.33" gradientUnits="userSpaceOnUse"><stop offset="0" stop-color="#ffa031"/><stop offset="1" stop-color="#ffd638"/></linearGradient><linearGradient id="_ÂÁ_Ï_ÌÌ_È_ËÂÌÚ_301" x1="293.24" y1="201.81" x2="330.69" y2="201.81" gradientUnits="userSpaceOnUse"><stop offset="0" stop-color="#cebda2"/><stop offset="1"/></linearGradient><linearGradient id="_ÂÁ_Ï_ÌÌ_È_ËÂÌÚ_243" x1="293.24" y1="222.98" x2="312.5" y2="222.98" gradientUnits="userSpaceOnUse"><stop offset="0"/><stop offset="1" stop-color="#cebda2"/></linearGradient><linearGradient id="_ÂÁ_Ï_ÌÌ_È_ËÂÌÚ_125" x1="281.76" y1="285.46" x2="281.76" y2="166.33" gradientUnits="userSpaceOnUse"><stop offset="0" stop-color="#f17038"/><stop offset="1" stop-color="#ffa031"/></linearGradient><linearGradient id="_ÂÁ_Ï_ÌÌ_È_ËÂÌÚ_303" x1="219.25" y1="297.18" x2="219.25" y2="207.7" gradientTransform="matrix(1, -0.08, 0.08, 1, -25.63, 25.11)" gradientUnits="userSpaceOnUse"><stop offset="0" stop-color="#3c3341"/><stop offset="1" stop-color="#46667a"/></linearGradient><linearGradient id="_ÂÁ_Ï_ÌÌ_È_ËÂÌÚ_295" x1="230.22" y1="297.37" x2="230.22" y2="208.25" gradientTransform="matrix(1, -0.08, 0.08, 1, -25.63, 25.11)" gradientUnits="userSpaceOnUse"><stop offset="0" stop-color="#54546f"/><stop offset="1" stop-color="#7dccc0"/></linearGradient><linearGradient id="_ÂÁ_Ï_ÌÌ_È_ËÂÌÚ_125-2" x1="221.82" y1="415.05" x2="221.82" y2="283.77" xlink:href="#_ÂÁ_Ï_ÌÌ_È_ËÂÌÚ_125"/><linearGradient id="_ÂÁ_Ï_ÌÌ_È_ËÂÌÚ_227-2" x1="241.36" y1="376.18" x2="241.36" y2="279.8" xlink:href="#_ÂÁ_Ï_ÌÌ_È_ËÂÌÚ_227"/><linearGradient id="_ÂÁ_Ï_ÌÌ_È_ËÂÌÚ_125-3" x1="227.33" y1="414.17" x2="227.33" y2="375.82" gradientTransform="translate(-11.74 -2.67) rotate(-0.95)" xlink:href="#_ÂÁ_Ï_ÌÌ_È_ËÂÌÚ_125"/><linearGradient id="_ÂÁ_Ï_ÌÌ_È_ËÂÌÚ_227-3" x1="277.88" y1="414.17" x2="277.88" y2="398.56" gradientTransform="translate(-11.74 -2.67) rotate(-0.95)" xlink:href="#_ÂÁ_Ï_ÌÌ_È_ËÂÌÚ_227"/><linearGradient id="_ÂÁ_Ï_ÌÌ_È_ËÂÌÚ_295-2" x1="208.22" y1="240.11" x2="208.22" y2="202.12" gradientTransform="matrix(1, 0, 0, 1, 0, 0)" xlink:href="#_ÂÁ_Ï_ÌÌ_È_ËÂÌÚ_295"/><linearGradient id="_ÂÁ_Ï_ÌÌ_È_ËÂÌÚ_303-2" x1="198.37" y1="238.76" x2="198.37" y2="201.52" gradientTransform="matrix(1, 0, 0, 1, 0, 0)" xlink:href="#_ÂÁ_Ï_ÌÌ_È_ËÂÌÚ_303"/><linearGradient id="_ÂÁ_Ï_ÌÌ_È_ËÂÌÚ_295-3" x1="272.15" y1="164.31" x2="272.15" y2="64.76" gradientTransform="matrix(1, 0, 0, 1, 0, 0)" xlink:href="#_ÂÁ_Ï_ÌÌ_È_ËÂÌÚ_295"/><linearGradient id="_ÂÁ_Ï_ÌÌ_È_ËÂÌÚ_326-3" x1="185.44" y1="193.99" x2="185.44" y2="46.19" xlink:href="#_ÂÁ_Ï_ÌÌ_È_ËÂÌÚ_326"/><linearGradient id="_ÂÁ_Ï_ÌÌ_È_ËÂÌÚ_358-3" x1="89.11" y1="208.34" x2="89.11" y2="48.07" xlink:href="#_ÂÁ_Ï_ÌÌ_È_ËÂÌÚ_358"/><linearGradient id="_ÂÁ_Ï_ÌÌ_È_ËÂÌÚ_295-4" x1="61.94" y1="179.61" x2="61.94" y2="60.84" gradientTransform="matrix(1, 0, 0, 1, 0, 0)" xlink:href="#_ÂÁ_Ï_ÌÌ_È_ËÂÌÚ_295"/><linearGradient id="_ÂÁ_Ï_ÌÌ_È_ËÂÌÚ_298" x1="58.97" y1="182.36" x2="58.97" y2="101.51" gradientUnits="userSpaceOnUse"><stop offset="0" stop-color="#66667e"/><stop offset="1" stop-color="#7dccc0"/></linearGradient><linearGradient id="_ÂÁ_Ï_ÌÌ_È_ËÂÌÚ_225" x1="58.97" y1="179.37" x2="58.97" y2="104.52" gradientUnits="userSpaceOnUse"><stop offset="0" stop-color="#46667a"/><stop offset="1" stop-color="#3c3341"/></linearGradient><linearGradient id="_ÂÁ_Ï_ÌÌ_È_ËÂÌÚ_301-2" x1="29.09" y1="78.54" x2="97.44" y2="78.54" xlink:href="#_ÂÁ_Ï_ÌÌ_È_ËÂÌÚ_301"/><linearGradient id="_ÂÁ_Ï_ÌÌ_È_ËÂÌÚ_299" x1="171.72" y1="203.61" x2="171.72" y2="191.92" gradientUnits="userSpaceOnUse"><stop offset="0" stop-color="#7dccc0"/><stop offset="1" stop-color="#54546f"/></linearGradient><linearGradient id="_ÂÁ_Ï_ÌÌ_È_ËÂÌÚ_303-3" x1="146.49" y1="196.81" x2="146.49" y2="185.81" gradientTransform="matrix(1, 0, 0, 1, 0, 0)" xlink:href="#_ÂÁ_Ï_ÌÌ_È_ËÂÌÚ_303"/><linearGradient id="_ÂÁ_Ï_ÌÌ_È_ËÂÌÚ_326-4" x1="178.77" y1="232.81" x2="178.77" y2="191.01" xlink:href="#_ÂÁ_Ï_ÌÌ_È_ËÂÌÚ_326"/><linearGradient id="_ÂÁ_Ï_ÌÌ_È_ËÂÌÚ_358-4" x1="146.11" y1="232.81" x2="146.11" y2="191.03" xlink:href="#_ÂÁ_Ï_ÌÌ_È_ËÂÌÚ_358"/><linearGradient id="_ÂÁ_Ï_ÌÌ_È_ËÂÌÚ_295-5" x1="140.75" y1="247.12" x2="140.75" y2="198.9" gradientTransform="matrix(1, 0, 0, 1, 0, 0)" xlink:href="#_ÂÁ_Ï_ÌÌ_È_ËÂÌÚ_295"/><linearGradient id="_ÂÁ_Ï_ÌÌ_È_ËÂÌÚ_303-4" x1="129.58" y1="247.55" x2="129.58" y2="201.43" gradientTransform="matrix(1, 0, 0, 1, 0, 0)" xlink:href="#_ÂÁ_Ï_ÌÌ_È_ËÂÌÚ_303"/><linearGradient id="_ÂÁ_Ï_ÌÌ_È_ËÂÌÚ_303-5" x1="111.59" y1="303.92" x2="111.59" y2="210.24" gradientTransform="matrix(1, 0, 0, 1, 0, 0)" xlink:href="#_ÂÁ_Ï_ÌÌ_È_ËÂÌÚ_303"/><linearGradient id="_ÂÁ_Ï_ÌÌ_È_ËÂÌÚ_295-6" x1="123.51" y1="303.92" x2="123.51" y2="210.24" gradientTransform="matrix(1, 0, 0, 1, 0, 0)" xlink:href="#_ÂÁ_Ï_ÌÌ_È_ËÂÌÚ_295"/><linearGradient id="_ÂÁ_Ï_ÌÌ_È_ËÂÌÚ_125-4" x1="91.9" y1="417.85" x2="91.9" y2="285.14" xlink:href="#_ÂÁ_Ï_ÌÌ_È_ËÂÌÚ_125"/><linearGradient id="_ÂÁ_Ï_ÌÌ_È_ËÂÌÚ_227-4" x1="120.56" y1="379.5" x2="120.56" y2="280.07" xlink:href="#_ÂÁ_Ï_ÌÌ_È_ËÂÌÚ_227"/><linearGradient id="_ÂÁ_Ï_ÌÌ_È_ËÂÌÚ_125-5" x1="86.55" y1="410.85" x2="86.55" y2="372.5" xlink:href="#_ÂÁ_Ï_ÌÌ_È_ËÂÌÚ_125"/><linearGradient id="_ÂÁ_Ï_ÌÌ_È_ËÂÌÚ_227-5" x1="138.71" y1="410.85" x2="138.71" y2="395.24" xlink:href="#_ÂÁ_Ï_ÌÌ_È_ËÂÌÚ_227"/><linearGradient id="_ÂÁ_Ï_ÌÌ_È_ËÂÌÚ_358-5" x1="150.9" y1="62.96" x2="150.9" y2="7.47" xlink:href="#_ÂÁ_Ï_ÌÌ_È_ËÂÌÚ_358"/><linearGradient id="_ÂÁ_Ï_ÌÌ_È_ËÂÌÚ_326-5" x1="194.54" y1="66.19" x2="194.54" y2="7" xlink:href="#_ÂÁ_Ï_ÌÌ_È_ËÂÌÚ_326"/><linearGradient id="_ÂÁ_Ï_ÌÌ_È_ËÂÌÚ_125-6" x1="188.35" y1="96.26" x2="188.35" y2="38.51" xlink:href="#_ÂÁ_Ï_ÌÌ_È_ËÂÌÚ_125"/><linearGradient id="_ÂÁ_Ï_ÌÌ_È_ËÂÌÚ_227-6" x1="187.25" y1="79.18" x2="187.25" y2="31.51" xlink:href="#_ÂÁ_Ï_ÌÌ_È_ËÂÌÚ_227"/><radialGradient id="_ÂÁ_Ï_ÌÌ_È_ËÂÌÚ_275" cx="170.42" cy="27.68" r="12.1" gradientUnits="userSpaceOnUse"><stop offset="0" stop-color="#00e0a1"/><stop offset="1" stop-color="#40ffb3"/></radialGradient><radialGradient id="_ÂÁ_Ï_ÌÌ_È_ËÂÌÚ_275-2" cx="212.68" cy="28.57" r="8.24" xlink:href="#_ÂÁ_Ï_ÌÌ_È_ËÂÌÚ_275"/><linearGradient id="_ÂÁ_Ï_ÌÌ_È_ËÂÌÚ_243-2" x1="181.77" y1="30.32" x2="231.16" y2="30.32" xlink:href="#_ÂÁ_Ï_ÌÌ_È_ËÂÌÚ_243"/><radialGradient id="_ÂÁ_Ï_ÌÌ_È_ËÂÌÚ_294" cx="168.07" cy="50.76" r="23.56" gradientUnits="userSpaceOnUse"><stop offset="0" stop-color="#cebda2"/><stop offset="1"/></radialGradient><radialGradient id="_ÂÁ_Ï_ÌÌ_È_ËÂÌÚ_275-3" cx="140.14" cy="118.97" r="13.4" xlink:href="#_ÂÁ_Ï_ÌÌ_È_ËÂÌÚ_275"/><radialGradient id="_ÂÁ_Ï_ÌÌ_È_ËÂÌÚ_275-4" cx="233.31" cy="122.64" r="12.36" xlink:href="#_ÂÁ_Ï_ÌÌ_È_ËÂÌÚ_275"/><linearGradient id="_ÂÁ_Ï_ÌÌ_È_ËÂÌÚ_243-3" x1="201.02" y1="345.7" x2="247.96" y2="345.7" xlink:href="#_ÂÁ_Ï_ÌÌ_È_ËÂÌÚ_243"/><linearGradient id="_ÂÁ_Ï_ÌÌ_È_ËÂÌÚ_243-4" x1="96.36" y1="351.5" x2="120.56" y2="351.5" xlink:href="#_ÂÁ_Ï_ÌÌ_È_ËÂÌÚ_243"/><linearGradient id="_ÂÁ_Ï_ÌÌ_È_ËÂÌÚ_125-7" x1="116.03" y1="369.18" x2="116.03" y2="317.43" xlink:href="#_ÂÁ_Ï_ÌÌ_È_ËÂÌÚ_125"/><radialGradient id="_ÂÁ_Ï_ÌÌ_È_ËÂÌÚ_275-5" cx="113.96" cy="346.91" r="17.96" xlink:href="#_ÂÁ_Ï_ÌÌ_È_ËÂÌÚ_275"/><linearGradient id="_ÂÁ_Ï_ÌÌ_È_ËÂÌÚ_125-8" x1="242.88" y1="365.46" x2="242.88" y2="314.09" xlink:href="#_ÂÁ_Ï_ÌÌ_È_ËÂÌÚ_125"/><radialGradient id="_ÂÁ_Ï_ÌÌ_È_ËÂÌÚ_275-6" cx="240.46" cy="339.11" r="20.72" xlink:href="#_ÂÁ_Ï_ÌÌ_È_ËÂÌÚ_275"/><linearGradient id="_ÂÁ_Ï_ÌÌ_È_ËÂÌÚ_227-7" x1="73.42" y1="296.88" x2="73.42" y2="176.96" xlink:href="#_ÂÁ_Ï_ÌÌ_È_ËÂÌÚ_227"/><linearGradient id="_ÂÁ_Ï_ÌÌ_È_ËÂÌÚ_243-5" x1="42.32" y1="236.91" x2="77.97" y2="236.91" xlink:href="#_ÂÁ_Ï_ÌÌ_È_ËÂÌÚ_243"/><linearGradient id="_ÂÁ_Ï_ÌÌ_È_ËÂÌÚ_125-9" x1="42.32" y1="297.65" x2="42.32" y2="175.9" xlink:href="#_ÂÁ_Ï_ÌÌ_È_ËÂÌÚ_125"/><linearGradient id="_ÂÁ_Ï_ÌÌ_È_ËÂÌÚ_243-6" x1="116.5" y1="303.92" x2="116.5" y2="210.24" xlink:href="#_ÂÁ_Ï_ÌÌ_È_ËÂÌÚ_243"/><linearGradient id="_ÂÁ_Ï_ÌÌ_È_ËÂÌÚ_243-7" x1="223.05" y1="301.9" x2="223.05" y2="242.3" xlink:href="#_ÂÁ_Ï_ÌÌ_È_ËÂÌÚ_243"/></defs><title>big</title><g class="cls-1"><g id="Calque_1" data-name="Calque 1"><path class="cls-2" d="M281.93,395.61c-10.49,0-15.3-7-15.3,12,0,.88,0,1.75.06,2.62l-25.58,4.29L233.43,442h52.18c10.49,0,19-15.4,19-34.39S292.41,395.61,281.93,395.61Z" transform="translate(-8.94 -7)"/><ellipse class="cls-3" cx="222.91" cy="400.61" rx="18.99" ry="34.39"/><path class="cls-4" d="M139.35,398.71c-10.48,0-8.81-10.09-8.81,8.9,0,.88,0,1.75.06,2.62L105,414.52,97.33,442h52.19c10.49,0,19-15.4,19-34.39C168.51,394.36,149.84,398.71,139.35,398.71Z" transform="translate(-8.94 -7)"/><ellipse class="cls-5" cx="86.81" cy="400.61" rx="18.99" ry="34.39"/><polygon class="cls-6" points="308.92 301.53 297.27 308.85 296.07 265.74 308.92 264.92 308.92 301.53"/><polygon class="cls-6" points="270.25 306.45 281.78 306.45 283.1 270.67 272.42 271.51 270.25 306.45"/><path class="cls-7" d="M306.21,315.85H287.84s4.2-33.38,4.2-44.67l13,1.56Z" transform="translate(-8.94 -7)"/><path class="cls-7" d="M279.19,313.45,262,311.65s3.84-27.34,3.84-39.73l15.49,6.59S283.51,304.44,279.19,313.45Z" transform="translate(-8.94 -7)"/><path class="cls-8" d="M337.42,263.25c-6,10.09-26.41,16.39-26.41,16.39l-3.14-20.07-3.49-22.27-11.14-71h9.12c13.61,19.16,22.8,46.2,28.33,66.85,1.63,6,2.94,11.56,4,16.15C336.54,257.85,337.42,263.25,337.42,263.25Z" transform="translate(-8.94 -7)"/><path class="cls-6" d="M258.68,115.93s21,31,28.56,51.8l-7.69,2.34-30.68-49.68Z" transform="translate(-8.94 -7)"/><path class="cls-7" d="M241.26,129.86s15.6,21.86,21.12,47.91c0,0,8.29,8.62,12.85,8.62s4.32-16.32,4.32-16.32-19.33-36.25-27.26-48.86Z" transform="translate(-8.94 -7)"/><polygon class="cls-7" points="315.22 283.51 306.4 283.51 303.78 272.06 309.1 268.15 315.22 283.51"/><path class="cls-9" d="M305.44,204.88c.64-.13,1.51,1.5,1.93,3.63s.25,4-.4,4.1-1.5-1.5-1.93-3.63S304.8,205,305.44,204.88Z" transform="translate(-8.94 -7)"/><path class="cls-10" d="M330.69,233.18c-8.93,1.75-17.71,3.1-26.31,4.12l-11.14-71h9.12C316,185.49,325.16,212.53,330.69,233.18Z" transform="translate(-8.94 -7)"/><path class="cls-11" d="M293.24,166.33H297s21.19,59.07,14,113.3Z" transform="translate(-8.94 -7)"/><path class="cls-12" d="M311,279.64s-18.73,8.67-53.79,4.85c0,0,.2-5.23.33-13.31.31-16.66.39-45.43-1.9-65.66-.86-7.61-2.06-14-3.72-18.09,0,0,18.26-21.1,41.31-21.1a287.42,287.42,0,0,1,11.06,37.6,283.54,283.54,0,0,1,7.14,52.71A208.49,208.49,0,0,1,311,279.64Z" transform="translate(-8.94 -7)"/><path class="cls-13" d="M337.42,263.25c-6,10.09-26.41,16.39-26.41,16.39s-18.73,8.67-53.79,4.85c0,0,.2-5.23.33-13.31,0,0,34.2-.55,50.32-11.61a26,26,0,0,0,3.56-2.93h0l23.21-7.31C336.54,257.85,337.42,263.25,337.42,263.25Z" transform="translate(-8.94 -7)"/><path class="cls-6" d="M324.16,290.52l13.27-5.06s-5.71-30.43-11.11-32S318,275.15,318,275.15Z" transform="translate(-8.94 -7)"/><path class="cls-14" d="M304.3,203.93c-12.78.19-29.6.77-48.65,1.59-.86-7.61-2.06-14-3.72-18.09,0,0,18.26-21.1,41.31-21.1A287.42,287.42,0,0,1,304.3,203.93Z" transform="translate(-8.94 -7)"/><path class="cls-15" d="M209,213.64l-8.19,4.61S214,272.86,215,302.48l12.23-.59C227.49,265.23,216.31,244.35,209,213.64Z" transform="translate(-8.94 -7)"/><path class="cls-16" d="M209,214.18,222.69,213s16,36.34,18.42,87.88l-13.93,1S220.23,250.14,209,214.18Z" transform="translate(-8.94 -7)"/><path class="cls-17" d="M241.11,376.18,209,415.05c-5.87-32.64-6.56-85.83-6.46-113.43,0-10.93.17-17.85.17-17.85l0,0c.59.21,14.12,5.26,14.45,9.28,0,.53.49,2.36,1.22,5.11,4.72,17.65,21.44,73.76,22.64,77.77Z" transform="translate(-8.94 -7)"/><path class="cls-18" d="M280,375.53l-38.91.65L241,376c-1.48-4.37-23.28-68.55-28-80.06a13.2,13.2,0,0,0-.69-1.54c-2.46-4.35-9.16-10.2-9.58-10.56l0,0,10.07-4s7.51,5.34,9,7.56c1.3,1.93,5.11,13.76,5.34,14.5l0,0,13.93-1.54-1.8-20.56s7,15.89,8.95,20.63C249.44,303.31,280,375.53,280,375.53Z" transform="translate(-8.94 -7)"/><polygon class="cls-19" points="232.18 369.17 244.56 391.71 243.48 407.34 200.07 408.06 232.18 369.17"/><polygon class="cls-20" points="244.56 391.71 299.6 393.92 302.49 406.36 243.48 407.34 244.56 391.71"/><path class="cls-21" d="M308.53,400.92,280,375.53l-38.9.64,12.38,22.54S277.13,404.56,308.53,400.92Z" transform="translate(-8.94 -7)"/><path class="cls-22" d="M221.27,220.72c-1.53,6.64-4.93,14.91-12.42,19.39l-14.95-1.44a35.41,35.41,0,0,0,12.23-21.87,37.62,37.62,0,0,0-.88-14.68s12.87,4,17.29,8.46A48,48,0,0,1,221.27,220.72Z" transform="translate(-8.94 -7)"/><path class="cls-23" d="M221.27,220.72l-15.14-3.92a37.62,37.62,0,0,0-.88-14.68s12.87,4,17.29,8.46A48,48,0,0,1,221.27,220.72Z" transform="translate(-8.94 -7)"/><path class="cls-24" d="M205.24,202.11c-3.06-3.06-14.77,6.31-16.57,16s-.54,18.73,5.23,20.54S216,212.87,205.24,202.11Z" transform="translate(-8.94 -7)"/><path class="cls-25" d="M244.34,194S207.72,208.34,200,208.34c0,0-83.22,3.28-114.45,0l47-28.73Z" transform="translate(-8.94 -7)"/><path class="cls-26" d="M299.37,103.24a118.58,118.58,0,0,1-10,22.11,127.65,127.65,0,0,1-29.92,35.74c-4.6,3.75-7.89,4-10.16,1.84-12.46-11.88,5.9-98.17,5.9-98.17S284.23,83.16,299.37,103.24Z" transform="translate(-8.94 -7)"/><path class="cls-27" d="M289.34,125.35a127.65,127.65,0,0,1-29.92,35.74c-4.6,3.75-7.89,4-10.16,1.84l12.5-63.6Z" transform="translate(-8.94 -7)"/><path class="cls-28" d="M244.34,194s-72.45-7.26-112.08-7.26c0,0,5-80.06-23.49-138.66,0,0,81.59-8.17,146.39,9.57C255.16,57.64,276.52,126.17,244.34,194Z" transform="translate(-8.94 -7)"/><path class="cls-9" d="M132.26,186.73s1.83-84.82-23.49-138.66c0,0,29.84,47.15,27.62,138.69Z" transform="translate(-8.94 -7)"/><path class="cls-29" d="M108.77,48.07s-38.49,3.48-63.69,84.44c0,0,15.51,50.92,40.42,75.83l46.76-21.61S140.11,110.47,108.77,48.07Z" transform="translate(-8.94 -7)"/><path class="cls-30" d="M105.75,179.61s-12.42-35.41-36-54.74C55,112.75,35.81,107,12.54,120.12c.21-.6,4.27-11,16.53-23.87h0c11.1-11.68,29-25.35,57-35.41,0,0,5.54,5.74,11.4,17a118,118,0,0,1,10.12,27.1C112.17,123.93,113.63,148.93,105.75,179.61Z" transform="translate(-8.94 -7)"/><path class="cls-27" d="M105.75,179.61s-12.42-35.41-36-54.74l-.83-3,38.65-17C112.17,123.93,113.63,148.93,105.75,179.61Z" transform="translate(-8.94 -7)"/><path class="cls-31" d="M12.52,120.14c-11.91,39.58,83.65,72.07,93.25,59.47C114.86,167.66,31,58.78,12.52,120.14Z" transform="translate(-8.94 -7)"/><path class="cls-32" d="M102.3,176.82c-.93,1.21-2.76,2-5.25,2.32-5,.72-12.85-.31-21.71-2.75-3.42-.93-7-2.09-10.61-3.41l-.19-.07-1-.38c-2.56-1-5.16-2-7.74-3.2-.93-.4-1.87-.83-2.79-1.28-.59-.27-1.17-.56-1.75-.85-1.67-.81-3.31-1.64-4.94-2.54-2.46-1.32-4.9-2.78-7.22-4.29-1.21-.75-2.36-1.54-3.5-2.35-.27-.16-.5-.33-.75-.5a67.43,67.43,0,0,1-12.68-11.63c-3.8-4.74-6.34-9.77-7-15a21.54,21.54,0,0,1,.78-9.14c4.85-16.1,14.59-19.55,25.83-15.92a45.23,45.23,0,0,1,8.1,3.59c.45.27.88.52,1.34.76a82.15,82.15,0,0,1,9.11,6.37c.83.65,1.67,1.34,2.5,2,2,1.7,4.07,3.53,6.06,5.43.26.23.5.46.75.71,2.27,2.2,4.5,4.52,6.67,6.88.34.36.67.74,1,1.1.78.86,1.55,1.73,2.31,2.59l.14.18c1.56,1.8,3.07,3.63,4.53,5.46C97,156.83,105.36,172.79,102.3,176.82Z" transform="translate(-8.94 -7)"/><path class="cls-9" d="M62.8,113.35c1.31,1.41,1.85,3.05,1.2,3.65s-2.23-.06-3.54-1.47-1.85-3-1.2-3.65S61.49,111.94,62.8,113.35Z" transform="translate(-8.94 -7)"/><path class="cls-33" d="M97.44,77.83c-.16.14-.3.25-.46.37-16.85,12.25-66.6,17.91-67.89,18,11.1-11.68,29-25.35,57-35.41C86,60.84,91.58,66.58,97.44,77.83Z" transform="translate(-8.94 -7)"/><path class="cls-34" d="M190.7,194.24c0,6.9-41.24,6.58-42,1.14,0-.34.37-.66,1.15-1,6.12-2.43,35.07-3.51,40.12-1C190.43,193.64,190.7,193.92,190.7,194.24Z" transform="translate(-8.94 -7)"/><path class="cls-35" d="M190,193.41c-5,4.79-33.95,4.7-40.12,1C156,192,184.9,190.89,190,193.41Z" transform="translate(-8.94 -7)"/><path class="cls-36" d="M158.11,192.81l1.57,10.8h24.61l1-11.2S175.88,191.09,158.11,192.81Z" transform="translate(-8.94 -7)"/><polygon class="cls-37" points="149.18 185.81 142.24 187.2 142.93 196.81 150.74 196.61 149.18 185.81"/><path class="cls-38" d="M202.81,210.43a64.38,64.38,0,0,1-11,22.38H164s-1.33-29.63-11.63-41.76h0s27.66-.48,52.88,2.35A61.2,61.2,0,0,1,202.81,210.43Z" transform="translate(-8.94 -7)"/><path class="cls-39" d="M152.32,191a108.41,108.41,0,0,0-24.25,11.05S137,224.28,148,232.81h16S166.52,202.88,152.32,191Z" transform="translate(-8.94 -7)"/><path class="cls-40" d="M155.42,242.22l-11.83,4.9c-1.05-14.44-4.33-24.61-7.91-31.63-5.44-10.66-11.58-14.05-11.58-14.05l21.25-2.54a45.8,45.8,0,0,1,9.18,14.66A43.79,43.79,0,0,1,155.42,242.22Z" transform="translate(-8.94 -7)"/><path class="cls-23" d="M145.35,198.9a45.8,45.8,0,0,1,9.18,14.66l-18.31,0-.54,2c-5.44-10.66-11.58-14.05-11.58-14.05Z" transform="translate(-8.94 -7)"/><path class="cls-41" d="M126.07,201.71c-6.51-2.18-14.23,9-11.8,22.95S136.76,250,143.6,247.12,135.67,204.93,126.07,201.71Z" transform="translate(-8.94 -7)"/><path class="cls-42" d="M112.41,210.24l-8.55,3.91s8.55,55.53,7,85.13l7,4.64C121.26,267.42,118.49,241.58,112.41,210.24Z" transform="translate(-8.94 -7)"/><path class="cls-7" d="M131.35,238.76h4.76s1.68-18.62-8.58-23.8Z" transform="translate(-8.94 -7)"/><path class="cls-43" d="M132.34,302.56l-11.77,1-2.71.25-1,.09s.24-3.65.46-9.7v0c.52-13.9,1-40.45-1.76-64.48a188.29,188.29,0,0,0-3.13-19.47h13.74a152.85,152.85,0,0,1,4.59,18.92A225.88,225.88,0,0,1,132.34,302.56Z" transform="translate(-8.94 -7)"/><path class="cls-44" d="M102.29,176.82c-.92,1.22-2.75,2-5.24,2.33-4.52-7.83-12.3-18.12-25.55-28.63-21.82-17.29-47-19.48-56.33-19.64a22.12,22.12,0,0,1,.78-9.12c4.85-16.12,14.59-19.56,25.84-15.93a43.63,43.63,0,0,1,8.1,3.6c.44.25.88.51,1.34.76a89.26,89.26,0,0,1,11.61,8.41C85.74,137.85,106.91,170.77,102.29,176.82Z" transform="translate(-8.94 -7)"/><path class="cls-45" d="M110.45,301.83c-1,20.6-4.59,77.67-4.59,77.67L73.11,417.85c4.56-37.38,16-96.21,20.9-121l0-.08c1.44-7.27,2.33-11.59,2.33-11.59l0,0c.59.21,14,5.5,14.3,9.52C110.73,295.33,110.64,297.92,110.45,301.83Z" transform="translate(-8.94 -7)"/><path class="cls-46" d="M105.86,379.5s1.9-60.69.66-78.78a17.66,17.66,0,0,0-.73-4.83c-2.41-4.41-9-10.36-9.41-10.73l0,0,13.5-5.07s7.11,8.34,7.24,10.73.76,13.12.76,13.12l14.48-1.36,1.54-13.5s7.75,10.4,7.75,13.5,3.13,76.94,3.13,76.94Z" transform="translate(-8.94 -7)"/><polygon class="cls-47" points="96.92 372.5 108.92 395.24 107.59 410.85 64.17 410.85 96.92 372.5"/><polygon class="cls-48" points="108.92 395.24 163.92 398.36 169.84 410.85 107.59 410.85 108.92 395.24"/><path class="cls-21" d="M172.85,405.36,144.76,379.5H105.85l12,22.74S141.39,408.48,172.85,405.36Z" transform="translate(-8.94 -7)"/><path class="cls-25" d="M132.26,186.73s28.76-43.82,67-43.82S244.34,194,244.34,194s-6-53.29-45.07-53.29S132.26,186.73,132.26,186.73Z" transform="translate(-8.94 -7)"/><path class="cls-9" d="M133.14,185.46s27.88-40.38,66.13-40.38S244.34,194,244.34,194s-6-51.13-45.07-51.13S133.14,185.46,133.14,185.46Z" transform="translate(-8.94 -7)"/><path class="cls-9" d="M204.43,144.2c0,.66-1.77,1.2-4,1.2s-3.95-.54-3.95-1.2,1.77-1.21,3.95-1.21S204.43,143.53,204.43,144.2Z" transform="translate(-8.94 -7)"/><ellipse class="cls-9" cx="124.98" cy="140.95" rx="1.2" ry="3.95"/><polygon class="cls-13" points="164.65 89.26 110.58 68.75 99.83 41.07 140.13 39.06 164.65 89.26"/><path class="cls-49" d="M157.91,7.47s-15.25,1-19.69,2.22L128.05,47.13l21-1.07L155.93,41l17.83,22-4.14-48.83Z" transform="translate(-8.94 -7)"/><path class="cls-50" d="M231.14,53.61c-.09,4.92-.38,8.07-.38,8.07l-56.45,4.51c-4.87-25.93-16.4-58.73-16.4-58.73,8.92-.42,16.86-.52,23.86-.43,29.48.4,42.42,4.41,42.42,4.41C230.56,24.66,231.31,43.15,231.14,53.61Z" transform="translate(-8.94 -7)"/><path class="cls-51" d="M228.15,86.18l-10.08,8.64s-30.26,1.44-44.49,1.44L148.55,45,156,38.51l19.72,32.36Z" transform="translate(-8.94 -7)"/><polygon class="cls-52" points="147.08 31.51 147.08 31.51 148.97 31.51 164.82 55.96 221.83 54.68 227.41 57.29 219.22 79.18 167.11 79.18 162.31 57.29 147.08 31.51"/><polygon class="cls-53" points="227.41 57.29 162.31 57.29 147.08 31.51 148.97 31.51 164.82 55.96 221.83 54.68 227.41 57.29"/><polygon class="cls-54" points="155.25 19.78 184.32 25.5 185.6 35.59 159.82 35.59 155.25 19.78"/><polygon class="cls-55" points="203.37 26.22 220.42 21.55 221.99 35.59 203.37 35.59 203.37 26.22"/><path class="cls-56" d="M231.14,53.61C210.66,48,191.54,22.2,181.77,7c29.48.4,42.42,4.41,42.42,4.41C230.56,24.66,231.31,43.15,231.14,53.61Z" transform="translate(-8.94 -7)"/><path class="cls-57" d="M157.91,7.46h3.62S171.63,36.87,175,63h-1.28S162.23,14.66,157.91,7.46Z" transform="translate(-8.94 -7)"/><polygon class="cls-25" points="127.03 97.51 130.3 116.34 156.22 137 155.98 121.2 127.03 97.51"/><polygon class="cls-58" points="128.2 104.25 151.54 124.82 152.08 133.7 130.3 116.34 128.2 104.25"/><polygon class="cls-25" points="222.03 123.24 248.24 101.36 248.24 113.22 222.03 135.99 222.03 123.24"/><polygon class="cls-59" points="222.03 127.59 244.59 109.29 244.59 116.26 222.03 135.99 222.03 127.59"/><polygon class="cls-44" points="244.59 109.29 248.24 101.36 222.03 123.24 222.03 127.59 244.59 109.29"/><polygon class="cls-44" points="151.54 124.82 155.98 121.2 127.03 97.51 128.2 104.25 151.54 124.82"/><polygon class="cls-60" points="201.02 284.07 232.18 369.17 244.56 391.71 243.48 407.34 247.96 392.42 235.96 368.53 205.38 285.75 201.02 284.07"/><path class="cls-61" d="M96.36,285.14s8.88,8,9.43,10.75.06,83.61.06,83.61l12,22.74-1.33,15.61,4-15-12.1-23.36s-.33-82.34-1.32-84.82S96.36,285.14,96.36,285.14Z" transform="translate(-8.94 -7)"/><path class="cls-9" d="M119.5,398.32c.65.07,1,1.87.79,4s-.93,3.87-1.58,3.8-1-1.87-.79-4S118.84,398.25,119.5,398.32Z" transform="translate(-8.94 -7)"/><path class="cls-9" d="M255.18,396.52c.66.06,1,1.87.79,4s-.92,3.87-1.57,3.8-1-1.87-.79-4S254.53,396.45,255.18,396.52Z" transform="translate(-8.94 -7)"/><path class="cls-13" d="M227.18,301.9l-8.78-3.72-5.4-2.29-10.46,5.73c0-10.93.17-17.85.17-17.85l10.07-4s7.51,5.34,9,7.56c1.3,1.93,5.11,13.76,5.34,14.5Z" transform="translate(-8.94 -7)"/><path class="cls-13" d="M117.86,303.92l-7.41-2.09-3.93-1.11-.56-.16L94,296.81l0-.08c1.44-7.27,2.33-11.59,2.33-11.59l13.5-5.07s7.11,8.34,7.24,10.73S117.86,303.92,117.86,303.92Z" transform="translate(-8.94 -7)"/><polygon class="cls-62" points="103.48 352.19 130.3 317.43 130.3 329.68 101.76 369.18 103.48 352.19"/><polygon class="cls-63" points="126.17 324.64 126.17 335.4 101.76 369.18 103.3 353.94 126.17 324.64"/><polygon class="cls-64" points="219.87 314.09 261.42 352.25 265.88 365.46 224.49 331.6 219.87 314.09"/><polygon class="cls-65" points="220.75 317.43 257.56 350.65 260.17 360.79 224.49 331.6 220.75 317.43"/><polygon class="cls-6" points="5.31 280.66 3.13 309.69 18.58 313.23 20.34 284.11 5.31 280.66"/><path class="cls-6" d="M77.32,132.72,70,156.1,64.73,173l-2.85,9.1L47,184s1.27-6.66,4.28-16.79c1.55-5.19,3.56-11.3,6.08-17.88A208.48,208.48,0,0,1,68.9,124c.26.23.5.46.75.71,2.27,2.2,4.5,4.52,6.67,6.88C76.66,132,77,132.36,77.32,132.72Z" transform="translate(-8.94 -7)"/><path class="cls-7" d="M84.3,141c-4.08,12.66-7.42,27.92-9,35.44-.59,2.91-.93,4.67-.93,4.67l-12.53,1c.47-3.25,1-6.44,1.67-9.55a214.79,214.79,0,0,1,12.77-40.91c.34.36.67.74,1,1.1.78.86,1.55,1.73,2.31,2.59l.14.18C81.33,137.29,82.84,139.12,84.3,141Z" transform="translate(-8.94 -7)"/><polygon class="cls-7" points="18.58 313.23 32.92 307.67 33.48 276.78 20.34 284.11 18.58 313.23"/><polygon class="cls-6" points="24.71 286.53 26.3 315.01 44.03 316.13 40.94 288.84 24.71 286.53"/><polygon class="cls-7" points="44.03 316.13 54.72 308.98 48.93 278.73 40.94 288.84 44.03 316.13"/><path class="cls-7" d="M64.3,287.28l-6.54,7,3.14,18.36,9.68,1.48S69.58,295.7,64.3,287.28Z" transform="translate(-8.94 -7)"/><path class="cls-66" d="M79.15,262.79c-.1,17.15.58,27.68.58,27.68l-16.18,6.41q-.46-3.92-.8-7.77V289c-.27-3.17-.49-6.29-.63-9.39a299.35,299.35,0,0,1,7.1-79.15,226.2,226.2,0,0,1,6.44-23.4l0-.11L85,180.3c-1.35,9.47-2.42,18.72-3.22,27.55C79.81,229.27,79.21,248.38,79.15,262.79Z" transform="translate(-8.94 -7)"/><path class="cls-67" d="M75.71,177,78,178.46S61.24,239.24,63.54,296.88L42.32,232.44Z" transform="translate(-8.94 -7)"/><path class="cls-68" d="M75.71,177l0,.11a320,320,0,0,0-10.23,50.22c-.82,6.61-1.49,13.64-1.91,21-.78,13.73-1,23.77-1,31.05,0,4.05.1,7.23.23,9.71v.1a46.78,46.78,0,0,0,.8,7.77S26.89,302.57,9,283a233.26,233.26,0,0,1,5.35-52.41c3.74-17.29,10.08-36.39,20.76-53.21C35.09,177.33,57,174.38,75.71,177Z" transform="translate(-8.94 -7)"/><path class="cls-9" d="M66.91,224.45c.65.06,1,1.87.79,4s-.92,3.87-1.58,3.8-1-1.87-.78-4S66.26,224.38,66.91,224.45Z" transform="translate(-8.94 -7)"/><path class="cls-13" d="M79.73,290.47l-16.18,6.41S26.89,302.57,9,283c0,0,39,1,53.14-3.33l.12,0,.28-.29,16.62-16.64v.13C79.05,279.94,79.73,290.47,79.73,290.47Z" transform="translate(-8.94 -7)"/><path class="cls-6" d="M65.25,296.2l5.33,17.87L83,308.41s-.28-17.25-4-23.22C72,274.14,65.25,296.2,65.25,296.2Z" transform="translate(-8.94 -7)"/><path class="cls-14" d="M75.71,177l0,.11a320,320,0,0,0-10.23,50.22C41.57,228.77,23,230,14.33,230.54c3.74-17.29,10.08-36.39,20.76-53.21C35.09,177.33,57,174.38,75.71,177Z" transform="translate(-8.94 -7)"/><path class="cls-7" d="M60.49,214.13v0a1.55,1.55,0,0,1-.37-.24c-.43-.34-1.39-1.33-1.25-1.48s1.29.57,1.73.92l.13.13.75-2.06-1.27-1.28a1,1,0,0,1-1.06.08c-.26-.22,0-.73.12-.88a.17.17,0,0,1,.08-.06l-7.81-7.84c-.06,1.92-1.38.45-1.52,0a1.63,1.63,0,0,1,.24-1.34L36.73,186.49l-1.53,5.92,15.18,16.81c0-.06.08-.06.17,0,.77.35,3,1.75,1.84,2.24l1.72,1.9c-.41-1.11.57-2.84.9-2.76,1.78.42.17,2.71-.09,3.66l3.95,4.37Zm-22-24.36c.15-.24.82,0,1.41.54s.95,1,.77,1.31-.82,0-1.42-.54S38.33,190,38.54,189.77Zm-1,3.51c.17-.37,2.92,2.63,2.78,2.92S37.24,193.93,37.54,193.28Zm5.65,4.79a.25.25,0,0,1-.11-.32.23.23,0,0,1,.31-.11,4.2,4.2,0,0,1,.91,1.18C44.24,198.94,43.31,198.12,43.19,198.07Zm5.23,6.9c-.69-.58-1.14-1.22-1-1.41s.86.15,1.56.73,1.42,1.35,1.27,1.53S49.11,205.56,48.42,205Zm1.77,3.61c-.34-.3-.57-.62-.49-.71s.44.07.78.36.28.47.2.57S50.54,208.87,50.19,208.58Zm5.5,5.11a.25.25,0,0,1-.12-.32.26.26,0,0,1,.32-.11c.11.06.23.17.17.29A.31.31,0,0,1,55.69,213.69Zm2.67,1.51a.23.23,0,0,1-.11-.31.24.24,0,0,1,.31-.12c.12.06.23.17.18.29A.32.32,0,0,1,58.36,215.2Zm-.12-3.11a.23.23,0,0,1-.12-.31.25.25,0,0,1,.32-.12c.12.06.23.17.17.29A.31.31,0,0,1,58.24,212.09ZM45.82,199.86a.23.23,0,0,1-.11-.31.25.25,0,0,1,.32-.12c.11.06.23.17.17.29A.32.32,0,0,1,45.82,199.86Zm.87-1.85a.24.24,0,0,1-.11-.32.22.22,0,0,1,.31-.11c.12,0,.23.17.18.28A.34.34,0,0,1,46.69,198Zm-6.53-5.24a.25.25,0,0,1-.11-.32.23.23,0,0,1,.31-.11c.12,0,.23.17.18.28A.34.34,0,0,1,40.16,192.77ZM48.07,200c-.25-.19-.39-.45-.31-.53s.33,0,.57.22a6.67,6.67,0,0,1,1.23,1.6A12,12,0,0,1,48.07,200ZM54.68,207a.24.24,0,0,1-.12-.31.25.25,0,0,1,.32-.12,9,9,0,0,1,1.44,1.61A14,14,0,0,1,54.68,207Z" transform="translate(-8.94 -7)"/><path class="cls-7" d="M53.71,235.28l1.62-4.49v0a2.25,2.25,0,0,1-.36-.24c-.43-.35-2-1.85-1.91-2s2,1.09,2.39,1.43l.13.13.74-2.05-1.26-1.29c-.12.16-1.55.55-1.76.27-1.07-1.36.68-.91.82-1.06a.17.17,0,0,1,.08-.06l-7.81-7.84c-.59.41-2.09,1-2.5-.6-.1-.41,1-.24,1.22-.69L31.86,202l-1.57,6.13,6.86,8.16a3.15,3.15,0,0,1,1.74.53c.28.32-.41.31-1.09.23l7.43,8.86c0-.06.08-.06.17,0,.77.36,3,1.75,1.84,2.24ZM32.91,205.7c-.12-.06-.68-.7-.62-.82s.7.33.82.39a.24.24,0,0,1,.12.31A.25.25,0,0,1,32.91,205.7ZM33,210c.17-.37,1.49,1.7,1.35,2S32.67,210.6,33,210ZM38,214.72a.23.23,0,0,1-.11-.31.23.23,0,0,1,.31-.12.25.25,0,0,1,.12.32A.24.24,0,0,1,38,214.72Zm-6.33-7a.26.26,0,0,1-.11-.32.24.24,0,0,1,.32-.11c.11,0,.87.78.81.9S31.83,207.75,31.71,207.7Zm10.22,9.36a17.44,17.44,0,0,1-1.29-1.29c-.87-1.2,1.37.81,1.49.86s.76.92.7,1S42.05,217.12,41.93,217.06Zm2,5.09c.18-.37,1.63,1.41,1.5,1.7S43.64,222.8,43.94,222.15Zm-7.57-14c.17-.38,1.63,1.4,1.49,1.7S36.06,208.84,36.37,208.2Zm15.15,22.33a10.49,10.49,0,0,1,1.54,2,20.17,20.17,0,0,1-1.8-1.7c-.25-.19-.39-.45-.31-.52S51.28,230.33,51.52,230.53Zm-.82-3.34a.25.25,0,0,1,.11.32.24.24,0,0,1-.32.11c-.11-.05-.69-.71-.64-.82S50.58,227.14,50.7,227.19Zm-1.29-3.89a.24.24,0,0,1,.32-.11c.12.05.58.65.52.77s-.6-.29-.72-.34A.25.25,0,0,1,49.41,223.3Zm-7.93-5c.22-.48.54-.53.84-.39s1.36,1.9,1.14,2.37-1.54-.72-1.84-.86S41.26,218.79,41.48,218.32Zm4.45.53c.06-.11.67.32.79.37s.58.65.52.77-.61-.28-.72-.34S45.88,219,45.93,218.85Z" transform="translate(-8.94 -7)"/><path class="cls-69" d="M120.57,303.58v0l-2.71.32v-.09l-.56-9.61v0c.66-17.84,1.19-56.48-4.89-83.95C121.29,245.82,120.58,302.52,120.57,303.58Z" transform="translate(-8.94 -7)"/><ellipse class="cls-9" cx="110.17" cy="260.24" rx="1.19" ry="3.94"/><path class="cls-9" d="M223.05,265.74c.65,0,1.19,1.76,1.19,3.94s-.54,3.94-1.19,3.94-1.19-1.76-1.19-3.94S222.39,265.74,223.05,265.74Z" transform="translate(-8.94 -7)"/><path class="cls-70" d="M227.18,301.9s-6.24-41.78-10.77-59.6c0,0,11.15,37.09,13.28,59.32Z" transform="translate(-8.94 -7)"/><path class="cls-23" d="M126.15,210.24a152.85,152.85,0,0,1,4.59,18.92l-15.2.55a188.29,188.29,0,0,0-3.13-19.47Z" transform="translate(-8.94 -7)"/><path class="cls-44" d="M202.81,210.43a27.59,27.59,0,0,1-10.83.1c-16.77-3.07-38.95-19-39.64-19.48h0s27.66-.48,52.88,2.35A61.2,61.2,0,0,1,202.81,210.43Z" transform="translate(-8.94 -7)"/><polygon class="cls-44" points="70.04 416.74 157.36 416.74 158.72 410.85 68.74 411.18 70.04 416.74"/><polygon class="cls-44" points="204.37 408.06 205.31 413.55 294.22 413.79 295.38 406.48 204.37 408.06"/></g></g></svg>