<svg xmlns="http://www.w3.org/2000/svg" xmlns:xlink="http://www.w3.org/1999/xlink" viewBox="0 0 298.27 408"><defs><style>.cls-1{isolation:isolate;}.cls-2{fill:url(#_ÂÁ_Ï_ÌÌ_È_ËÂÌÚ_299);}.cls-3{fill:url(#_ÂÁ_Ï_ÌÌ_È_ËÂÌÚ_225);}.cls-4{fill:#ffe800;}.cls-13,.cls-22,.cls-24,.cls-38,.cls-5,.cls-61,.cls-63,.cls-71,.cls-72{opacity:0.58;}.cls-13,.cls-17,.cls-22,.cls-24,.cls-38,.cls-43,.cls-47,.cls-5,.cls-50,.cls-51,.cls-60,.cls-61,.cls-63,.cls-64,.cls-71,.cls-72{mix-blend-mode:color-dodge;}.cls-5{fill:url(#_ÂÁ_Ï_ÌÌ_È_ËÂÌÚ_243);}.cls-6{fill:url(#_ÂÁ_Ï_ÌÌ_È_ËÂÌÚ_125);}.cls-7{fill:url(#_ÂÁ_Ï_ÌÌ_È_ËÂÌÚ_227);}.cls-70,.cls-73,.cls-8{fill:#fff;mix-blend-mode:soft-light;}.cls-9{fill:#9f4f66;}.cls-28,.cls-49,.cls-9{opacity:0.32;}.cls-28,.cls-49,.cls-55,.cls-59,.cls-9{mix-blend-mode:multiply;}.cls-10{fill:url(#_ÂÁ_Ï_ÌÌ_È_ËÂÌÚ_299-2);}.cls-11{fill:url(#_ÂÁ_Ï_ÌÌ_È_ËÂÌÚ_225-2);}.cls-12{fill:url(#_ÂÁ_Ï_ÌÌ_È_ËÂÌÚ_227-2);}.cls-13{fill:url(#_ÂÁ_Ï_ÌÌ_È_ËÂÌÚ_243-2);}.cls-14{fill:url(#_ÂÁ_Ï_ÌÌ_È_ËÂÌÚ_125-2);}.cls-15{fill:#1b1a31;}.cls-16{fill:url(#_ÂÁ_Ï_ÌÌ_È_ËÂÌÚ_227-3);}.cls-17,.cls-50,.cls-51,.cls-60,.cls-64{opacity:0.3;}.cls-17{fill:url(#_ÂÁ_Ï_ÌÌ_È_ËÂÌÚ_302);}.cls-18{fill:url(#_ÂÁ_Ï_ÌÌ_È_ËÂÌÚ_299-3);}.cls-19{fill:url(#_ÂÁ_Ï_ÌÌ_È_ËÂÌÚ_225-3);}.cls-20{fill:#283353;}.cls-21{fill:url(#_ÂÁ_Ï_ÌÌ_È_ËÂÌÚ_299-4);}.cls-22{fill:url(#_ÂÁ_Ï_ÌÌ_È_ËÂÌÚ_243-3);}.cls-23{fill:url(#_ÂÁ_Ï_ÌÌ_È_ËÂÌÚ_225-4);}.cls-24{fill:url(#_ÂÁ_Ï_ÌÌ_È_ËÂÌÚ_243-4);}.cls-25{fill:url(#_ÂÁ_Ï_ÌÌ_È_ËÂÌÚ_299-5);}.cls-26{fill:url(#_ÂÁ_Ï_ÌÌ_È_ËÂÌÚ_225-5);}.cls-27{fill:url(#_ÂÁ_Ï_ÌÌ_È_ËÂÌÚ_125-3);}.cls-28,.cls-55{fill:#db2e4f;}.cls-29{fill:url(#_ÂÁ_Ï_ÌÌ_È_ËÂÌÚ_295);}.cls-30{fill:url(#_ÂÁ_Ï_ÌÌ_È_ËÂÌÚ_125-4);}.cls-31{fill:#3f004a;}.cls-32{fill:#390300;}.cls-33{fill:#4e074f;}.cls-34{fill:url(#_ÂÁ_Ï_ÌÌ_È_ËÂÌÚ_326);}.cls-35{fill:url(#_ÂÁ_Ï_ÌÌ_È_ËÂÌÚ_358);}.cls-36{fill:url(#_ÂÁ_Ï_ÌÌ_È_ËÂÌÚ_125-5);}.cls-37{fill:url(#_ÂÁ_Ï_ÌÌ_È_ËÂÌÚ_227-4);}.cls-38{fill:url(#_ÂÁ_Ï_ÌÌ_È_ËÂÌÚ_243-5);}.cls-39{fill:url(#_ÂÁ_Ï_ÌÌ_È_ËÂÌÚ_275);}.cls-40{fill:url(#_ÂÁ_Ï_ÌÌ_È_ËÂÌÚ_275-2);}.cls-41{fill:url(#_ÂÁ_Ï_ÌÌ_È_ËÂÌÚ_358-2);}.cls-42{fill:url(#_ÂÁ_Ï_ÌÌ_È_ËÂÌÚ_326-2);}.cls-43{fill:url(#_ÂÁ_Ï_ÌÌ_È_ËÂÌÚ_294);}.cls-44{fill:#ac2219;}.cls-45{fill:url(#_ÂÁ_Ï_ÌÌ_È_ËÂÌÚ_299-6);}.cls-46{fill:url(#_ÂÁ_Ï_ÌÌ_È_ËÂÌÚ_225-6);}.cls-47{fill:url(#_ÂÁ_Ï_ÌÌ_È_ËÂÌÚ_294-2);}.cls-48{fill:url(#_ÂÁ_Ï_ÌÌ_È_ËÂÌÚ_227-5);}.cls-49{fill:#d02e4f;}.cls-50{fill:url(#_ÂÁ_Ï_ÌÌ_È_ËÂÌÚ_243-6);}.cls-51{fill:url(#_ÂÁ_Ï_ÌÌ_È_ËÂÌÚ_243-7);}.cls-52{fill:url(#_ÂÁ_Ï_ÌÌ_È_ËÂÌÚ_300);}.cls-53{fill:#db5100;}.cls-54{fill:url(#_ÂÁ_Ï_ÌÌ_È_ËÂÌÚ_295-2);}.cls-55{opacity:0.16;}.cls-56{fill:url(#_ÂÁ_Ï_ÌÌ_È_ËÂÌÚ_298);}.cls-57{fill:url(#_ÂÁ_Ï_ÌÌ_È_ËÂÌÚ_225-7);}.cls-58{fill:url(#_ÂÁ_Ï_ÌÌ_È_ËÂÌÚ_125-6);}.cls-59{fill:#562e4f;opacity:0.35;}.cls-60{fill:url(#_ÂÁ_Ï_ÌÌ_È_ËÂÌÚ_243-8);}.cls-61{fill:url(#_ÂÁ_Ï_ÌÌ_È_ËÂÌÚ_243-9);}.cls-62{fill:url(#_ÂÁ_Ï_ÌÌ_È_ËÂÌÚ_227-6);}.cls-63{fill:url(#_ÂÁ_Ï_ÌÌ_È_ËÂÌÚ_243-10);}.cls-64{fill:url(#_ÂÁ_Ï_ÌÌ_È_ËÂÌÚ_302-2);}.cls-65{fill:url(#_ÂÁ_Ï_ÌÌ_È_ËÂÌÚ_299-7);}.cls-66{fill:url(#_ÂÁ_Ï_ÌÌ_È_ËÂÌÚ_299-8);}.cls-67{fill:url(#_ÂÁ_Ï_ÌÌ_È_ËÂÌÚ_225-8);}.cls-68{fill:url(#_ÂÁ_Ï_ÌÌ_È_ËÂÌÚ_326-3);}.cls-69{fill:url(#_ÂÁ_Ï_ÌÌ_È_ËÂÌÚ_358-3);}.cls-70{opacity:0.2;}.cls-71{fill:url(#_ÂÁ_Ï_ÌÌ_È_ËÂÌÚ_243-11);}.cls-72{fill:url(#_ÂÁ_Ï_ÌÌ_È_ËÂÌÚ_243-12);}.cls-73{opacity:0.43;}</style><linearGradient id="_ÂÁ_Ï_ÌÌ_È_ËÂÌÚ_299" x1="170.81" y1="381.39" x2="170.81" y2="304.35" gradientUnits="userSpaceOnUse"><stop offset="0" stop-color="#7dccc0"/><stop offset="1" stop-color="#54546f"/></linearGradient><linearGradient id="_ÂÁ_Ï_ÌÌ_È_ËÂÌÚ_225" x1="157.44" y1="381.39" x2="157.44" y2="298.59" gradientUnits="userSpaceOnUse"><stop offset="0" stop-color="#46667a"/><stop offset="1" stop-color="#3c3341"/></linearGradient><linearGradient id="_ÂÁ_Ï_ÌÌ_È_ËÂÌÚ_243" x1="167.19" y1="399.2" x2="181.9" y2="399.2" gradientUnits="userSpaceOnUse"><stop offset="0"/><stop offset="1" stop-color="#cebda2"/></linearGradient><linearGradient id="_ÂÁ_Ï_ÌÌ_È_ËÂÌÚ_125" x1="160.67" y1="413.7" x2="160.67" y2="369.17" gradientUnits="userSpaceOnUse"><stop offset="0" stop-color="#f17038"/><stop offset="1" stop-color="#ffa031"/></linearGradient><linearGradient id="_ÂÁ_Ï_ÌÌ_È_ËÂÌÚ_227" x1="204.47" y1="416" x2="204.47" y2="389.24" gradientUnits="userSpaceOnUse"><stop offset="0" stop-color="#ffa031"/><stop offset="1" stop-color="#ffd638"/></linearGradient><linearGradient id="_ÂÁ_Ï_ÌÌ_È_ËÂÌÚ_299-2" x1="96.23" y1="381.39" x2="96.23" y2="304.35" xlink:href="#_ÂÁ_Ï_ÌÌ_È_ËÂÌÚ_299"/><linearGradient id="_ÂÁ_Ï_ÌÌ_È_ËÂÌÚ_225-2" x1="82.85" y1="381.39" x2="82.85" y2="298.59" xlink:href="#_ÂÁ_Ï_ÌÌ_È_ËÂÌÚ_225"/><linearGradient id="_ÂÁ_Ï_ÌÌ_È_ËÂÌÚ_227-2" x1="129.89" x2="129.89" y2="389.24" xlink:href="#_ÂÁ_Ï_ÌÌ_È_ËÂÌÚ_227"/><linearGradient id="_ÂÁ_Ï_ÌÌ_È_ËÂÌÚ_243-2" x1="92.58" y1="399.2" x2="107.3" y2="399.2" xlink:href="#_ÂÁ_Ï_ÌÌ_È_ËÂÌÚ_243"/><linearGradient id="_ÂÁ_Ï_ÌÌ_È_ËÂÌÚ_125-2" x1="86.08" y1="413.7" x2="86.08" y2="369.17" xlink:href="#_ÂÁ_Ï_ÌÌ_È_ËÂÌÚ_125"/><linearGradient id="_ÂÁ_Ï_ÌÌ_È_ËÂÌÚ_227-3" x1="277.62" y1="286.69" x2="277.62" y2="166.87" xlink:href="#_ÂÁ_Ï_ÌÌ_È_ËÂÌÚ_227"/><linearGradient id="_ÂÁ_Ï_ÌÌ_È_ËÂÌÚ_302" x1="280.7" y1="236.59" x2="280.7" y2="166.87" gradientUnits="userSpaceOnUse"><stop offset="0" stop-color="#cebda2"/><stop offset="1"/></linearGradient><linearGradient id="_ÂÁ_Ï_ÌÌ_È_ËÂÌÚ_299-3" x1="186.11" y1="328.36" x2="186.11" y2="280.36" xlink:href="#_ÂÁ_Ï_ÌÌ_È_ËÂÌÚ_299"/><linearGradient id="_ÂÁ_Ï_ÌÌ_È_ËÂÌÚ_225-3" x1="174.54" y1="328.36" x2="174.54" y2="280.36" xlink:href="#_ÂÁ_Ï_ÌÌ_È_ËÂÌÚ_225"/><linearGradient id="_ÂÁ_Ï_ÌÌ_È_ËÂÌÚ_299-4" x1="210.94" y1="326.53" x2="210.94" y2="258.73" xlink:href="#_ÂÁ_Ï_ÌÌ_È_ËÂÌÚ_299"/><linearGradient id="_ÂÁ_Ï_ÌÌ_È_ËÂÌÚ_243-3" x1="207.83" y1="326.53" x2="207.83" y2="280.36" xlink:href="#_ÂÁ_Ï_ÌÌ_È_ËÂÌÚ_243"/><linearGradient id="_ÂÁ_Ï_ÌÌ_È_ËÂÌÚ_225-4" x1="195.47" y1="326.52" x2="195.47" y2="258.73" xlink:href="#_ÂÁ_Ï_ÌÌ_È_ËÂÌÚ_225"/><linearGradient id="_ÂÁ_Ï_ÌÌ_È_ËÂÌÚ_243-4" x1="271.6" y1="227.94" x2="289.6" y2="227.94" xlink:href="#_ÂÁ_Ï_ÌÌ_È_ËÂÌÚ_243"/><linearGradient id="_ÂÁ_Ï_ÌÌ_È_ËÂÌÚ_299-5" x1="111.52" y1="328.36" x2="111.52" y2="280.36" xlink:href="#_ÂÁ_Ï_ÌÌ_È_ËÂÌÚ_299"/><linearGradient id="_ÂÁ_Ï_ÌÌ_È_ËÂÌÚ_225-5" x1="99.96" y1="328.36" x2="99.96" y2="280.36" xlink:href="#_ÂÁ_Ï_ÌÌ_È_ËÂÌÚ_225"/><linearGradient id="_ÂÁ_Ï_ÌÌ_È_ËÂÌÚ_125-3" x1="257.81" y1="286.69" x2="257.81" y2="167.81" xlink:href="#_ÂÁ_Ï_ÌÌ_È_ËÂÌÚ_125"/><linearGradient id="_ÂÁ_Ï_ÌÌ_È_ËÂÌÚ_295" x1="240.36" y1="163.96" x2="240.36" y2="95.07" gradientUnits="userSpaceOnUse"><stop offset="0" stop-color="#54546f"/><stop offset="1" stop-color="#7dccc0"/></linearGradient><linearGradient id="_ÂÁ_Ï_ÌÌ_È_ËÂÌÚ_125-4" x1="99.17" y1="188.47" x2="227.61" y2="188.47" xlink:href="#_ÂÁ_Ï_ÌÌ_È_ËÂÌÚ_125"/><linearGradient id="_ÂÁ_Ï_ÌÌ_È_ËÂÌÚ_326" x1="168.6" y1="63.21" x2="168.6" y2="8" gradientUnits="userSpaceOnUse"><stop offset="0" stop-color="#861878"/><stop offset="1" stop-color="#bd3992"/></linearGradient><linearGradient id="_ÂÁ_Ï_ÌÌ_È_ËÂÌÚ_358" x1="95.66" y1="72.21" x2="95.66" y2="2.45" gradientTransform="translate(15.8 -1.52) rotate(5.45)" gradientUnits="userSpaceOnUse"><stop offset="0" stop-color="#5a185b"/><stop offset="1" stop-color="#7f237c"/></linearGradient><linearGradient id="_ÂÁ_Ï_ÌÌ_È_ËÂÌÚ_125-5" x1="83.09" y1="61.11" x2="83.09" y2="8.56" gradientTransform="translate(15.8 -1.52) rotate(5.45)" xlink:href="#_ÂÁ_Ï_ÌÌ_È_ËÂÌÚ_125"/><linearGradient id="_ÂÁ_Ï_ÌÌ_È_ËÂÌÚ_227-4" x1="75.84" y1="61.2" x2="75.84" y2="14.02" gradientTransform="translate(15.8 -1.52) rotate(5.45)" xlink:href="#_ÂÁ_Ï_ÌÌ_È_ËÂÌÚ_227"/><linearGradient id="_ÂÁ_Ï_ÌÌ_È_ËÂÌÚ_243-5" x1="76.23" y1="37.61" x2="88.58" y2="37.61" gradientTransform="translate(15.8 -1.52) rotate(5.45)" xlink:href="#_ÂÁ_Ï_ÌÌ_È_ËÂÌÚ_243"/><radialGradient id="_ÂÁ_Ï_ÌÌ_È_ËÂÌÚ_275" cx="128.3" cy="24.01" r="13.05" gradientTransform="translate(15.8 -1.52) rotate(5.45)" gradientUnits="userSpaceOnUse"><stop offset="0" stop-color="#00e0a1"/><stop offset="1" stop-color="#40ffb3"/></radialGradient><radialGradient id="_ÂÁ_Ï_ÌÌ_È_ËÂÌÚ_275-2" cx="189.66" cy="19.05" r="8.31" gradientTransform="translate(9.47 -9.52) rotate(5.45)" xlink:href="#_ÂÁ_Ï_ÌÌ_È_ËÂÌÚ_275"/><linearGradient id="_ÂÁ_Ï_ÌÌ_È_ËÂÌÚ_358-2" x1="94.24" y1="200.75" x2="94.24" y2="72.33" gradientTransform="matrix(1, 0, 0, 1, 0, 0)" xlink:href="#_ÂÁ_Ï_ÌÌ_È_ËÂÌÚ_358"/><linearGradient id="_ÂÁ_Ï_ÌÌ_È_ËÂÌÚ_326-2" x1="168.92" y1="178.91" x2="168.92" y2="65.94" xlink:href="#_ÂÁ_Ï_ÌÌ_È_ËÂÌÚ_326"/><radialGradient id="_ÂÁ_Ï_ÌÌ_È_ËÂÌÚ_294" cx="161.19" cy="121.03" r="43.83" gradientUnits="userSpaceOnUse"><stop offset="0" stop-color="#cebda2"/><stop offset="1"/></radialGradient><linearGradient id="_ÂÁ_Ï_ÌÌ_È_ËÂÌÚ_299-6" x1="143.98" y1="326.53" x2="143.98" y2="258.73" xlink:href="#_ÂÁ_Ï_ÌÌ_È_ËÂÌÚ_299"/><linearGradient id="_ÂÁ_Ï_ÌÌ_È_ËÂÌÚ_225-6" x1="129.03" y1="326.52" x2="129.03" y2="262.15" xlink:href="#_ÂÁ_Ï_ÌÌ_È_ËÂÌÚ_225"/><radialGradient id="_ÂÁ_Ï_ÌÌ_È_ËÂÌÚ_294-2" cx="212.01" cy="123.1" r="40.27" xlink:href="#_ÂÁ_Ï_ÌÌ_È_ËÂÌÚ_294"/><linearGradient id="_ÂÁ_Ï_ÌÌ_È_ËÂÌÚ_227-5" x1="181.09" y1="178.91" x2="181.09" y2="121.96" xlink:href="#_ÂÁ_Ï_ÌÌ_È_ËÂÌÚ_227"/><linearGradient id="_ÂÁ_Ï_ÌÌ_È_ËÂÌÚ_243-6" x1="117.15" y1="98.15" x2="242.18" y2="98.15" xlink:href="#_ÂÁ_Ï_ÌÌ_È_ËÂÌÚ_243"/><linearGradient id="_ÂÁ_Ï_ÌÌ_È_ËÂÌÚ_243-7" x1="149.84" y1="31.43" x2="222.2" y2="31.43" xlink:href="#_ÂÁ_Ï_ÌÌ_È_ËÂÌÚ_243"/><linearGradient id="_ÂÁ_Ï_ÌÌ_È_ËÂÌÚ_300" x1="187.43" y1="124.2" x2="187.43" y2="66.45" gradientUnits="userSpaceOnUse"><stop offset="0" stop-color="#ffd638"/><stop offset="1" stop-color="#ffa031"/></linearGradient><linearGradient id="_ÂÁ_Ï_ÌÌ_È_ËÂÌÚ_295-2" x1="66.27" y1="179.06" x2="66.27" y2="84.3" xlink:href="#_ÂÁ_Ï_ÌÌ_È_ËÂÌÚ_295"/><linearGradient id="_ÂÁ_Ï_ÌÌ_È_ËÂÌÚ_298" x1="63.91" y1="181.25" x2="63.91" y2="116.75" gradientUnits="userSpaceOnUse"><stop offset="0" stop-color="#66667e"/><stop offset="1" stop-color="#7dccc0"/></linearGradient><linearGradient id="_ÂÁ_Ï_ÌÌ_È_ËÂÌÚ_225-7" x1="63.9" y1="178.87" x2="63.9" y2="119.15" xlink:href="#_ÂÁ_Ï_ÌÌ_È_ËÂÌÚ_225"/><linearGradient id="_ÂÁ_Ï_ÌÌ_È_ËÂÌÚ_125-6" x1="38.07" y1="290.24" x2="38.07" y2="165.82" xlink:href="#_ÂÁ_Ï_ÌÌ_È_ËÂÌÚ_125"/><linearGradient id="_ÂÁ_Ï_ÌÌ_È_ËÂÌÚ_243-8" x1="6.33" y1="195.93" x2="56.31" y2="195.93" xlink:href="#_ÂÁ_Ï_ÌÌ_È_ËÂÌÚ_243"/><linearGradient id="_ÂÁ_Ï_ÌÌ_È_ËÂÌÚ_243-9" x1="27.09" y1="205.77" x2="69.82" y2="205.77" xlink:href="#_ÂÁ_Ï_ÌÌ_È_ËÂÌÚ_243"/><linearGradient id="_ÂÁ_Ï_ÌÌ_È_ËÂÌÚ_227-6" x1="61.69" y1="245.74" x2="61.69" y2="165.81" xlink:href="#_ÂÁ_Ï_ÌÌ_È_ËÂÌÚ_227"/><linearGradient id="_ÂÁ_Ï_ÌÌ_È_ËÂÌÚ_243-10" x1="139.25" y1="309.88" x2="132.43" y2="263.82" gradientTransform="matrix(0.99, 0.15, -0.15, 0.99, 44.37, -0.33)" xlink:href="#_ÂÁ_Ï_ÌÌ_È_ËÂÌÚ_243"/><linearGradient id="_ÂÁ_Ï_ÌÌ_È_ËÂÌÚ_302-2" x1="40.07" y1="98.43" x2="94.6" y2="98.43" xlink:href="#_ÂÁ_Ï_ÌÌ_È_ËÂÌÚ_302"/><linearGradient id="_ÂÁ_Ï_ÌÌ_È_ËÂÌÚ_299-7" x1="152.19" y1="222.7" x2="152.19" y2="222.41" xlink:href="#_ÂÁ_Ï_ÌÌ_È_ËÂÌÚ_299"/><linearGradient id="_ÂÁ_Ï_ÌÌ_È_ËÂÌÚ_299-8" x1="167.18" y1="222.39" x2="167.18" y2="183.33" xlink:href="#_ÂÁ_Ï_ÌÌ_È_ËÂÌÚ_299"/><linearGradient id="_ÂÁ_Ï_ÌÌ_È_ËÂÌÚ_225-8" x1="147.04" y1="224.77" x2="147.04" y2="183.92" xlink:href="#_ÂÁ_Ï_ÌÌ_È_ËÂÌÚ_225"/><linearGradient id="_ÂÁ_Ï_ÌÌ_È_ËÂÌÚ_326-3" x1="181.12" y1="265.84" x2="181.12" y2="219.91" xlink:href="#_ÂÁ_Ï_ÌÌ_È_ËÂÌÚ_326"/><linearGradient id="_ÂÁ_Ï_ÌÌ_È_ËÂÌÚ_358-3" x1="132.94" y1="265.85" x2="132.94" y2="220.81" gradientTransform="matrix(1, 0, 0, 1, 0, 0)" xlink:href="#_ÂÁ_Ï_ÌÌ_È_ËÂÌÚ_358"/><linearGradient id="_ÂÁ_Ï_ÌÌ_È_ËÂÌÚ_243-11" x1="84.67" y1="360.69" x2="90.29" y2="360.69" xlink:href="#_ÂÁ_Ï_ÌÌ_È_ËÂÌÚ_243"/><linearGradient id="_ÂÁ_Ï_ÌÌ_È_ËÂÌÚ_243-12" x1="159.93" y1="362.13" x2="164.64" y2="362.13" xlink:href="#_ÂÁ_Ï_ÌÌ_È_ËÂÌÚ_243"/></defs><title>mid</title><g class="cls-1"><g id="Calque_1" data-name="Calque 1"><path class="cls-2" d="M183.06,380.44l-21.07.95a142.71,142.71,0,0,1-1.53-54.27,121.07,121.07,0,0,1,5.75-22.75v0l15.58,8.59A132,132,0,0,0,179.58,332,223,223,0,0,0,183.06,380.44Z" transform="translate(-6.33 -8)"/><path class="cls-3" d="M162,381.39l-13.5-12.23c.68-28.75,4.4-46,8.22-56.24,4.42-11.92,9-14.33,9-14.33l.52,5.76v0l.18,2.12a112.05,112.05,0,0,0-5.3,22.95v0C157.59,356.18,162,381.39,162,381.39Z" transform="translate(-6.33 -8)"/><path class="cls-4" d="M162,381.39l21.06-1s29.39,9.82,36.05,11.65l-41.46,8.73Z" transform="translate(-6.33 -8)"/><path class="cls-5" d="M177.67,391.43V413.7s4.23-15.62,4.23-23.08l-14.71-5.91Z" transform="translate(-6.33 -8)"/><path class="cls-6" d="M148.49,369.17s-5.83,29.33-5.83,44.53h35s2.3-14.37,0-22.27l-15.65-10Z" transform="translate(-6.33 -8)"/><path class="cls-7" d="M177.65,391.43s22.35-5.34,41.46.65c0,0,10.34,11.8,12.18,23.92l-53.64-2.3A103.12,103.12,0,0,0,177.65,391.43Z" transform="translate(-6.33 -8)"/><path class="cls-8" d="M180.39,395.81c0,2.06-.77,3.73-1.72,3.73s-1.71-1.67-1.71-3.73.77-3.73,1.71-3.73S180.39,393.75,180.39,395.81Z" transform="translate(-6.33 -8)"/><path class="cls-9" d="M181.79,312.94A132,132,0,0,0,179.58,332l-18.49-2.57v0l-.63-2.32-3.75-14.2c4.42-11.92,9-14.33,9-14.33l.52,5.76Z" transform="translate(-6.33 -8)"/><path class="cls-10" d="M108.47,380.44l-21,.95a141.72,141.72,0,0,1-1.64-53.56,120.13,120.13,0,0,1,5.84-23.46v0l15.58,8.59a135,135,0,0,0-2.3,21.71A223.87,223.87,0,0,0,108.47,380.44Z" transform="translate(-6.33 -8)"/><path class="cls-11" d="M87.42,381.39,73.9,369.16c.66-28.4,4.31-45.58,8.07-55.86,4.47-12.24,9.13-14.71,9.13-14.71l.52,5.76v0l.18,2.12a113.13,113.13,0,0,0-5.38,23.72h0C83.09,356.64,87.42,381.39,87.42,381.39Z" transform="translate(-6.33 -8)"/><path class="cls-9" d="M107.2,312.94a135,135,0,0,0-2.3,21.71l-18.48-4.44h0l-.63-2.38L82,313.36v-.06c4.47-12.24,9.13-14.71,9.13-14.71l.52,5.76Z" transform="translate(-6.33 -8)"/><path class="cls-4" d="M87.41,381.39l21.07-1s29.38,9.82,36,11.65l-41.46,8.73Z" transform="translate(-6.33 -8)"/><path class="cls-12" d="M103.06,391.43s22.35-5.34,41.46.65c0,0,10.34,11.8,12.19,23.92l-53.65-2.3A102.39,102.39,0,0,0,103.06,391.43Z" transform="translate(-6.33 -8)"/><path class="cls-13" d="M103.06,391.43V413.7s4.24-15.62,4.24-23.08l-14.72-5.91Z" transform="translate(-6.33 -8)"/><path class="cls-14" d="M73.91,369.17s-5.84,29.33-5.84,44.53h35s2.31-14.37,0-22.27l-15.65-10Z" transform="translate(-6.33 -8)"/><path class="cls-8" d="M106.42,397.73c0,2.06-.76,3.73-1.71,3.73s-1.71-1.67-1.71-3.73.76-3.74,1.71-3.74S106.42,395.66,106.42,397.73Z" transform="translate(-6.33 -8)"/><path class="cls-15" d="M278.84,308.14,270,301.35s8.18-13.7,9.67-19l6,3.7S285.23,301.75,278.84,308.14Z" transform="translate(-6.33 -8)"/><path class="cls-16" d="M303.59,276.85l-19.19,9.84L250.64,168.21s2.91-.28,7.07-.57c9-.65,23.85-1.42,27.46.16,3.94,1.74,15.25,31.61,18.53,68.79A212.5,212.5,0,0,1,303.59,276.85Z" transform="translate(-6.33 -8)"/><path class="cls-17" d="M303.7,236.59c-11.55-2.15-28.51-8.56-28.51-8.56l-17.48-60.39c9-.65,23.85-1.42,27.46.16C289.11,169.54,300.42,199.41,303.7,236.59Z" transform="translate(-6.33 -8)"/><path class="cls-18" d="M174.54,328.36h14.62s16.58-19.87,3.45-46l-18.07-2Z" transform="translate(-6.33 -8)"/><path class="cls-19" d="M185.25,304.36c0,13.25-4.79,24-10.71,24s-10.7-10.75-10.7-24,4.79-24,10.7-24S185.25,291.11,185.25,304.36Z" transform="translate(-6.33 -8)"/><polygon class="cls-20" points="197.29 308.39 181.99 299.18 181.38 288.59 201.2 294.58 197.29 308.39"/><polygon class="cls-15" points="181.38 288.59 197.67 289.13 213.96 291.97 201.2 294.58 181.38 288.59"/><path class="cls-21" d="M227.25,324.63l-17.45,1.9a192.16,192.16,0,0,0-3.13-23.25,261.66,261.66,0,0,0-12.08-42.49l14.72-2.06c9.92,11.37,14.4,28,16.39,41.7A144,144,0,0,1,227.25,324.63Z" transform="translate(-6.33 -8)"/><path class="cls-22" d="M209.8,326.53a346.53,346.53,0,0,0-6.11-46.17s7,17.15,8.27,46.16Z" transform="translate(-6.33 -8)"/><path class="cls-23" d="M194.59,260.79l-13.46-2.06s23.46,31.26,17.62,60.12l11.05,7.67S209.8,280.36,194.59,260.79Z" transform="translate(-6.33 -8)"/><path class="cls-24" d="M271.6,170.36l3.21-.53s24,60.72,10.83,116.23Z" transform="translate(-6.33 -8)"/><path class="cls-25" d="M100,328.36h14.62s16.57-19.87,3.45-46l-18.07-2Z" transform="translate(-6.33 -8)"/><path class="cls-26" d="M110.66,304.36c0,13.25-4.79,24-10.7,24s-10.71-10.75-10.71-24,4.8-24,10.71-24S110.66,291.11,110.66,304.36Z" transform="translate(-6.33 -8)"/><polygon class="cls-20" points="122.7 308.39 107.41 299.18 106.79 288.59 126.61 294.58 122.7 308.39"/><polygon class="cls-15" points="106.79 288.59 123.08 289.13 139.37 291.97 126.61 294.58 106.79 288.59"/><path class="cls-20" d="M285.64,286.06s-1.39,12.3-6.8,22.08c0,0,13.81-3.8,17.49-7.48,0,0,5.76-14.16,4.38-24.17S285.64,286.06,285.64,286.06Z" transform="translate(-6.33 -8)"/><path class="cls-27" d="M284.4,286.69s-39.6-4.9-56.79-29.19a264.81,264.81,0,0,0,17-46.76,176.8,176.8,0,0,0,6-39.36c0-1,.06-2.12.06-3.17,0,0,11.75-1.77,21,2.15C271.6,170.36,297.29,229.69,284.4,286.69Z" transform="translate(-6.33 -8)"/><path class="cls-28" d="M263.84,190.53l-19.23,20.21a176.8,176.8,0,0,0,6-39.36l.83-.46Z" transform="translate(-6.33 -8)"/><path class="cls-20" d="M244.6,145.87l4.45-6.35s13.86,19.13,19.39,36.61l-4.6,14.41Z" transform="translate(-6.33 -8)"/><path class="cls-15" d="M244.6,145.87s15.55,20.72,19.24,44.67h-6.45s-11.62-27.63-27.76-39.6Z" transform="translate(-6.33 -8)"/><path class="cls-29" d="M237,95.07a127.38,127.38,0,0,1,22.35,23.26s-7.47,25-29.75,43.09S237,95.07,237,95.07Z" transform="translate(-6.33 -8)"/><path class="cls-30" d="M227.61,178.91c-16.88,12.93-42.1,20.52-42.1,20.52-39.63,4.91-86.34,1.32-86.34,1.32a1.85,1.85,0,0,0,.2-.18,108.55,108.55,0,0,1,34.74-23.3l.46-.18c26.39-4.15,62.77-1.42,81.24.48l1.51.14.18,0c4.94.52,8.35.94,9.58,1.11C227.26,178.85,227.43,178.89,227.61,178.91Z" transform="translate(-6.33 -8)"/><path class="cls-31" d="M196.62,185.45a66,66,0,0,1-14.11,7.83,87.07,87.07,0,0,1-8.29,3.07A203.48,203.48,0,0,1,153,197.7h-.55c-4,.07-7.79,0-11.11,0-7.72-.18-13-.59-13-.59.52-.52,1-1,1.55-1.49s1.09-1,1.62-1.44,1.07-.92,1.6-1.32.82-.65,1.22-.94,1.07-.81,1.58-1.16.76-.56,1.15-.8.75-.49,1.12-.73c.83-.54,1.64-1,2.39-1.46v0c.43-.24.81-.46,1.2-.66,1.07-.59,2-1.07,2.8-1.44.22-.11.44-.2.65-.29l.46-.22a.3.3,0,0,0,.11,0c.88-.4,1.38-.57,1.38-.57,1.45-.22,3-.42,4.53-.57a.28.28,0,0,1,.13,0,132.12,132.12,0,0,1,13.94-.59h1c5.3.07,10.46.33,15,.66,4.21.3,7.86.67,10.48.94a3.5,3.5,0,0,1,.64.08c.43,0,.81.09,1.16.13.52.05,1,.11,1.36.16Z" transform="translate(-6.33 -8)"/><path class="cls-32" d="M195.36,185.3A71.66,71.66,0,0,1,182.45,192c-1.91.81-3.62,1.44-4.91,1.9-1.62.57-2.62.86-2.62.86a191.58,191.58,0,0,1-19.6,1.31,2.61,2.61,0,0,1-.4,0c-.68,0-1.36,0-2,0a4.78,4.78,0,0,1-.53,0c-2,0-3.92,0-5.77,0s-3.73-.06-5.41-.11c-5.49-.13-9.61-.37-11.31-.48.54-.5,1.09-1,1.62-1.44s1.07-.92,1.6-1.32.82-.65,1.22-.94,1.07-.81,1.58-1.16.76-.56,1.15-.8.75-.49,1.12-.73c.83-.54,1.64-1,2.39-1.46v0c.43-.24.81-.46,1.2-.66,1.07-.59,2-1.07,2.8-1.44.22-.11.44-.2.65-.29l.46-.22a.3.3,0,0,0,.11,0c.88-.4,1.38-.57,1.38-.57,1.53-.18,3-.35,4.55-.5h.13l2.37-.2c4-.29,7.87-.44,11.55-.46h1c3.46,0,6.75.09,9.83.24,1.81.09,3.52.2,5.14.31,4.29.32,7.86.72,10.5,1.05a3.5,3.5,0,0,1,.64.08c.43,0,.81.09,1.16.13C194.52,185.19,195,185.25,195.36,185.3Z" transform="translate(-6.33 -8)"/><path class="cls-33" d="M224.24,63.21s-22.58,13.73-43.8,19.57c0,0-75.34,4.39-101.82-5.77L133,47.16Z" transform="translate(-6.33 -8)"/><path class="cls-34" d="M224.24,63.21c-10.42-2-25.08-3.52-39.63-4.57l-.61,0c-26.15-1.86-51.81-2.38-51.81-2.38-9.41-42.28-19.23-46-19.23-46l2.32-.36a178.84,178.84,0,0,1,34.56-1.66,313.37,313.37,0,0,1,50.39,6.19c4.51,3.39,8.32,8.38,11.45,13.85l-2,2.24,3,10.93,5.36.33h0c1.82,4.75,3.21,9.3,4.22,13C223.6,59.79,224.24,63.21,224.24,63.21Z" transform="translate(-6.33 -8)"/><path class="cls-8" d="M184.61,58.64l-52.42-2.43c-9.41-42.28-19.23-46-19.23-46l2.31-.38v0a78.07,78.07,0,0,1,19.29,44.84L184,58.59Z" transform="translate(-6.33 -8)"/><path class="cls-35" d="M113,10.21,102.7,13.63S82.33,38.05,78.62,77c0,0,30.47-14,53.55-20.8C132.17,56.21,130.25,23,113,10.21Z" transform="translate(-6.33 -8)"/><path class="cls-36" d="M94.9,67.41s4.35-.06,5-.61,6.07-6.4,7.68-23.35-4.88-26.88-5.82-28-10.9,2.37-16.53,7S94.9,67.41,94.9,67.41Z" transform="translate(-6.33 -8)"/><path class="cls-37" d="M92,20c-2.5-2-17,7.76-16.66,20.2s13.56,28,19.59,27.2S102.74,28.54,92,20Z" transform="translate(-6.33 -8)"/><path class="cls-38" d="M92,20a2,2,0,0,0-1.63-.17l0,0c10.77,8.53,9,46.63,2.93,47.4h-.07a4.27,4.27,0,0,0,1.67.15C100.93,66.64,102.74,28.54,92,20Z" transform="translate(-6.33 -8)"/><path class="cls-8" d="M99.81,41.36c0,1.67-.45,3-1.07,3s-1.14-1.33-1.16-3,.45-3,1.06-3S99.78,39.69,99.81,41.36Z" transform="translate(-6.33 -8)"/><path class="cls-33" d="M122.94,22.19s20,.13,34.48,2.09c0,0,3.48,9.57,1.89,16.9l-29.41.24S128.38,30.26,122.94,22.19Z" transform="translate(-6.33 -8)"/><path class="cls-33" d="M209.64,30.47l3,10.92-18-1.09c-.78-6.92-2.33-13.93-2.33-13.93l19.39,1.85Z" transform="translate(-6.33 -8)"/><path class="cls-33" d="M218,41.72h0a0,0,0,0,0,0,0A0,0,0,0,1,218,41.72Z" transform="translate(-6.33 -8)"/><path class="cls-33" d="M218,41.72h0a0,0,0,0,0,0,0A0,0,0,0,1,218,41.72Z" transform="translate(-6.33 -8)"/><path class="cls-39" d="M125.22,26.84,155.45,28a59.65,59.65,0,0,1,1.92,13.22l-27.47.22A49.73,49.73,0,0,0,125.22,26.84Z" transform="translate(-6.33 -8)"/><polygon class="cls-40" points="186.67 21.46 203.31 22.47 206.27 33.39 188.3 32.3 186.67 21.46"/><path class="cls-41" d="M134.57,177.09l-.46.18c-16.93,7-32.8,21.49-34.74,23.3a1.85,1.85,0,0,1-.2.18A174.56,174.56,0,0,1,73.9,168.5c-14.88-24.2-20-44.73-20-44.73C70.14,87.71,95.65,72.33,95.65,72.33l.11.11c30.28,28.27,37,71.2,38.48,92.2C134.75,172.34,134.57,177.09,134.57,177.09Z" transform="translate(-6.33 -8)"/><path class="cls-42" d="M242,130.36a116.63,116.63,0,0,1-2.34,17.42h0c-4.16,19.62-12,31.13-12,31.13-.18,0-.35-.06-.53-.07-3-.43-6.24-.8-9.58-1.11l-.18,0-1.51-.14c-34.83-3-81.24-.48-81.24-.48q0-6.42-.5-12.47c-4.31-55.55-36.17-89.94-38.31-92.18l-.11-.11,6-1.29.16,0c5.14-1,10.28-1.91,15.37-2.61,61.09-8.35,115.71,7.34,115.71,7.34C240.89,96.38,242.88,114.91,242,130.36Z" transform="translate(-6.33 -8)"/><path class="cls-8" d="M134.57,177.09q0-6.42-.5-12.47c-4.31-55.55-36.17-89.94-38.31-92.18l-.11-.11,6-1.29.16,0S138.69,114.52,134.57,177.09Z" transform="translate(-6.33 -8)"/><polygon class="cls-15" points="65.5 240.86 73.79 237.74 82.69 257.84 71.18 254.76 65.5 240.86"/><path class="cls-20" d="M230.47,270.92l19.34,14.58h5.52L251,283.58s-2.52-14.81,1.81-25.7l-15.78-5.32S229.09,261.87,230.47,270.92Z" transform="translate(-6.33 -8)"/><path class="cls-15" d="M237.07,252.56l8.6-1.51,13.81,4,1.61,22.79-5.76,7.63s-5.64.31-7.13-3.14,3.64-24.82,3.64-24.82Z" transform="translate(-6.33 -8)"/><path class="cls-20" d="M272.65,297S258,297,251.4,292.2a123.66,123.66,0,0,1,2.86-24.5l15.2,3.22S267,291.32,272.65,297Z" transform="translate(-6.33 -8)"/><path class="cls-43" d="M133.32,176.4s7.25-23.49,22.18-38.43,28.8-18.47,28.8-18.47-6-32.67-15.19-53.83l1.69.09,18.26,50.3-1.38,13.61Z" transform="translate(-6.33 -8)"/><path class="cls-44" d="M134.58,177.09s7.24-23.49,22.18-38.43,28.8-18.47,28.8-18.47-6-32.66-15.19-53.83l1.69.09,18.26,50.3-1.38,13.61Z" transform="translate(-6.33 -8)"/><path class="cls-15" d="M254.26,267.7l7.77-4,14.6,2,1.16,17.64S278,297,272.65,297s-5-25.93-5-25.93Z" transform="translate(-6.33 -8)"/><path class="cls-45" d="M154.44,311.17a131.4,131.4,0,0,1-1.79,13.46l-17.44,1.9c.5-4.2.83-8.44,1-12.62A260.87,260.87,0,0,0,133,262.77l14.09-4C155.66,275.44,155.64,297.3,154.44,311.17Z" transform="translate(-6.33 -8)"/><path class="cls-46" d="M132.94,262.76l-11.75-.61s8.81,27.84,3,56.7l11,7.67S140.18,288.33,132.94,262.76Z" transform="translate(-6.33 -8)"/><path class="cls-47" d="M199.53,68.32s5.94,16.51,5.94,54.05c0,0,18.69,8.58,22.14,55.51l-28.08-39L196.4,111Z" transform="translate(-6.33 -8)"/><path class="cls-44" d="M198.49,69s5.95,16.51,5.95,54.05c0,0,19.72,8.92,23.17,55.85l-29.12-39.39-3.13-27.87Z" transform="translate(-6.33 -8)"/><path class="cls-48" d="M134.58,177.09s17.2-48.19,53.12-54.67,39.91,56.49,39.91,56.49S192.65,175.91,134.58,177.09Z" transform="translate(-6.33 -8)"/><path class="cls-49" d="M239.62,147.78c-4.16,19.62-12,31.13-12,31.13-16.88,12.93-42.1,20.52-42.1,20.52-39.63,4.91-86.34,1.32-86.34,1.32A174.56,174.56,0,0,1,73.9,168.5V135l27.88-18.23,32.29,47.87,0,0h.15C138,164.6,212.71,163.57,239.62,147.78Z" transform="translate(-6.33 -8)"/><path class="cls-50" d="M242,130.36c-62.12-13.61-124.83-62-124.83-62,61.09-8.35,115.71,7.34,115.71,7.34C240.89,96.38,242.88,114.91,242,130.36Z" transform="translate(-6.33 -8)"/><path class="cls-51" d="M222.2,54.68c-31.11-3.85-69.4-43.39-72.36-46.5a313.37,313.37,0,0,1,50.39,6.19c4.51,3.39,8.32,8.38,11.45,13.85l-2,2.24,3,10.93,5.36.33h0C219.8,46.47,221.19,51,222.2,54.68Z" transform="translate(-6.33 -8)"/><path class="cls-52" d="M172.06,66.45s11.34,29.6,15.64,56l15.1,1.78s-.89-35.82-4.31-55.19C198.49,69,183.61,66.45,172.06,66.45Z" transform="translate(-6.33 -8)"/><polygon class="cls-53" points="87.06 227.28 40.78 272.71 23.65 282.24 61.19 235.44 87.06 227.28"/><path class="cls-54" d="M101.23,179.06S91.32,150.8,72.5,135.39c-11.79-9.67-27.07-14.29-45.64-3.79.17-.48,3.41-8.81,13.19-19h0C48.93,103.23,63.2,92.33,85.5,84.3a62.92,62.92,0,0,1,9.1,13.55,94.5,94.5,0,0,1,8.07,21.63C106.35,134.63,107.51,154.58,101.23,179.06Z" transform="translate(-6.33 -8)"/><path class="cls-55" d="M101.23,179.06S91.32,150.8,72.5,135.39L71.84,133l30.83-13.53C106.35,134.63,107.51,154.58,101.23,179.06Z" transform="translate(-6.33 -8)"/><path class="cls-56" d="M26.85,131.62c-9.51,31.57,66.74,57.49,74.39,47.44C108.5,169.52,41.58,82.65,26.85,131.62Z" transform="translate(-6.33 -8)"/><path class="cls-57" d="M98.47,176.83c-.74,1-2.19,1.6-4.18,1.86-8.22,1.16-25.66-3.48-40.46-11.55a87.42,87.42,0,0,1-8.57-5.3l-.59-.41a53.18,53.18,0,0,1-10.11-9.28,24.34,24.34,0,0,1-5.6-12,17.66,17.66,0,0,1,.63-7.28c3.87-12.85,11.64-15.6,20.61-12.71a35.09,35.09,0,0,1,6.46,2.88l1.07.61a69.61,69.61,0,0,1,9.26,6.7C85.26,145.74,102.15,172,98.47,176.83Z" transform="translate(-6.33 -8)"/><path class="cls-20" d="M57.73,123.67,45.26,161.83l-2,6-14.44,2s2-7.56,5.72-17.69c3.61-9.74,8.88-21.86,15.64-31.95a35,35,0,0,1,6.46,2.87C57,123.27,57.36,123.47,57.73,123.67Z" transform="translate(-6.33 -8)"/><path class="cls-15" d="M67,130.37c-5.69,11.2-10.58,27.37-13.17,36.77-1.25,4.56-2,7.53-2,7.53l-8.58-6.8c.3-1.73,1.06-4.8,1.39-6.44,3.69-18.73,8.72-31.44,12-38.37.35.21.7.41,1.07.61A71.26,71.26,0,0,1,67,130.37Z" transform="translate(-6.33 -8)"/><path class="cls-58" d="M69.81,245.73C57.42,258.14,30,290.24,30,290.24,13.31,263.65,7.67,240,6.55,221.84c-1.38-22.45,4.18-36.28,4.18-36.28C16.49,174.29,30,165.82,30,165.82c6.06,23.79,17.34,45.36,26.34,60.07A217.08,217.08,0,0,0,69.81,245.73Z" transform="translate(-6.33 -8)"/><polygon class="cls-15" points="45.09 262.96 51.07 260.05 71.18 271.86 54.15 277 45.09 262.96"/><path class="cls-20" d="M37.28,286.18,51.42,271s9.51,10.13,26.09,8.9c0,0-13.81,10.59-18.11,12.28S37.28,286.18,37.28,286.18Z" transform="translate(-6.33 -8)"/><path class="cls-20" d="M54.64,267.58S62,280,77.51,281.22l13.81-13.64s-14.73-10.74-19.49-18.72Z" transform="translate(-6.33 -8)"/><path class="cls-15" d="M91.32,274l-5.4-1.11-12-24.84,2.37-5.21S94.89,265.13,91.32,274Z" transform="translate(-6.33 -8)"/><path class="cls-59" d="M98.47,176.83c-.74,1-2.19,1.6-4.18,1.86-3.61-6.24-9.82-14.46-20.39-22.84C56.5,142.06,36.37,140.31,29,140.18a17.66,17.66,0,0,1,.63-7.28c3.87-12.85,11.64-15.6,20.61-12.71a35.09,35.09,0,0,1,6.46,2.88l1.07.61a69.61,69.61,0,0,1,9.26,6.7C85.26,145.74,102.15,172,98.47,176.83Z" transform="translate(-6.33 -8)"/><path class="cls-60" d="M56.31,225.89c-17.86.74-35.84-1.49-49.76-4-1.38-22.45,4.18-36.28,4.18-36.28C16.49,174.29,30,165.82,30,165.82,36,189.61,47.31,211.18,56.31,225.89Z" transform="translate(-6.33 -8)"/><path class="cls-8" d="M133.49,51.63c.15,1.35-.22,2.5-.84,2.57s-1.24-1-1.4-2.31.23-2.5.84-2.57S133.34,50.29,133.49,51.63Z" transform="translate(-6.33 -8)"/><path class="cls-8" d="M126.45,116.09c.8,1.89.75,3.73-.13,4.1s-2.22-.87-3-2.77-.75-3.74.12-4.11S125.64,114.19,126.45,116.09Z" transform="translate(-6.33 -8)"/><ellipse class="cls-8" cx="66.03" cy="127.06" rx="1.28" ry="2.78" transform="matrix(0.73, -0.68, 0.68, 0.73, -75.1, 70.76)"/><ellipse class="cls-8" cx="198.87" cy="112.74" rx="1.08" ry="2.36"/><path class="cls-61" d="M30,165.81l-2.89,2s2.79,38,42.73,77.93Z" transform="translate(-6.33 -8)"/><path class="cls-62" d="M30,165.81s17.07-.27,22.75,5.42c0,0,24.4,47.79,40.66,64.05L69.82,245.74S33.11,200,30,165.81Z" transform="translate(-6.33 -8)"/><path class="cls-8" d="M44.09,207.6c.81,1.9.75,3.74-.12,4.11s-2.23-.88-3-2.78-.75-3.73.12-4.1S43.29,205.7,44.09,207.6Z" transform="translate(-6.33 -8)"/><path class="cls-8" d="M288.24,223.71c.12,1.8-.37,3.29-1.11,3.34s-1.43-1.36-1.55-3.15.37-3.29,1.1-3.34S288.12,221.92,288.24,223.71Z" transform="translate(-6.33 -8)"/><path class="cls-8" d="M210.54,311.12c.07,1-.2,1.81-.61,1.84s-.79-.75-.86-1.74.2-1.82.61-1.85S210.47,310.12,210.54,311.12Z" transform="translate(-6.33 -8)"/><path class="cls-63" d="M135.28,326.57A345.85,345.85,0,0,0,136,280s4.2,17.64,1.17,46.51Z" transform="translate(-6.33 -8)"/><path class="cls-8" d="M138.27,311.43c-.08,1-.47,1.77-.88,1.74s-.67-.86-.59-1.85.47-1.77.87-1.74S138.34,310.44,138.27,311.43Z" transform="translate(-6.33 -8)"/><path class="cls-64" d="M94.6,97.85c-.13.11-.24.21-.37.3-13.44,9.78-53.13,14.29-54.16,14.4C48.93,103.23,63.2,92.33,85.5,84.3A62.92,62.92,0,0,1,94.6,97.85Z" transform="translate(-6.33 -8)"/><polygon class="cls-49" points="182.96 264.11 192.55 259.7 209.28 259.8 202.98 250.73 178.47 256.23 182.96 264.11"/><polygon class="cls-49" points="146.17 266.03 129.13 267.09 117.04 262.96 114.86 254.15 143.59 257.85 146.17 266.03"/><path class="cls-65" d="M151.48,222.56c0-.06,1.12-.09,1.45-.15l-.35.08-.66.14-.09,0c-.23,0-.37.06-.37,0S151.48,222.62,151.48,222.56Z" transform="translate(-6.33 -8)"/><path class="cls-66" d="M181.26,221.86l-28.24.53c.19-2.15.3-4.34.35-6.57,0-.13,0-.28,0-.42a245.19,245.19,0,0,0-1.29-26.93c-.13-1.51-.27-3-.4-4.48h.13a.08.08,0,0,0,0-.07,190.28,190.28,0,0,1,29.89,0c0,.35.09,1.09.2,2.21C182.42,190.94,183.6,203,181.26,221.86Z" transform="translate(-6.33 -8)"/><path class="cls-67" d="M153.39,215.4c0,.14,0,.29,0,.42-.14,3.61-.35,6-.35,6.57l-.09,0-.35.08-.66.14-.09,0-9.54,2.12c0-10.17-.61-21.35-1.11-28.71-.35-5.07-.63-8.35-.63-8.35a52.94,52.94,0,0,1,5.11-2.61s.62-.66,6-1.18a.11.11,0,0,1,0,.07h.13c.22,1.51.42,3,.58,4.46A175.67,175.67,0,0,1,153.39,215.4Z" transform="translate(-6.33 -8)"/><path class="cls-68" d="M215.61,248.86a42.42,42.42,0,0,1-4,11.36c-9.82,4.44-60.19,5.62-60.19,5.62,0-.5.11-1,.14-1.47h0c2.54-24.29-5-41.61-5.85-43.41a.55.55,0,0,0-.08-.15c29.47-3.13,67.8,2.87,67.8,2.87A43.73,43.73,0,0,1,215.61,248.86Z" transform="translate(-6.33 -8)"/><path class="cls-8" d="M145.7,220.82h2.79s10.38,21.94,3,45Z" transform="translate(-6.33 -8)"/><path class="cls-69" d="M151.7,264.37c-.13,1-.24,1.47-.24,1.47-8.24.26-35.27-4.55-35.27-4.55a51.69,51.69,0,0,1-2.51-11.51,96.94,96.94,0,0,1,.89-25l31.12-4a.55.55,0,0,1,.08.15C155,237.09,152.58,258.6,151.7,264.37Z" transform="translate(-6.33 -8)"/><path class="cls-49" d="M215.61,248.86a42.42,42.42,0,0,1-4,11.36c-9.82,4.44-60.19,5.62-60.19,5.62-8.24.26-35.27-4.55-35.27-4.55a51.69,51.69,0,0,1-2.51-11.51l0,0s31.38,14.59,37.9,14.61h.1C154,264.07,207.37,257.09,215.61,248.86Z" transform="translate(-6.33 -8)"/><path class="cls-8" d="M154,242.78c.13,1.79-.37,3.29-1.1,3.34s-1.43-1.36-1.56-3.15.37-3.29,1.11-3.34S153.86,241,154,242.78Z" transform="translate(-6.33 -8)"/><path class="cls-49" d="M181.9,186.09l-29.49,2.36-.31,0-10.92,7.59c-.35-5.07-.63-8.35-.63-8.35a52.94,52.94,0,0,1,5.11-2.61s.62-.66,6-1.18a.11.11,0,0,1,0,.07h.13a.08.08,0,0,0,0-.07,190.28,190.28,0,0,1,29.89,0C181.7,184.23,181.79,185,181.9,186.09Z" transform="translate(-6.33 -8)"/><path class="cls-70" d="M136.88,313.91l17.56-2.74a131.4,131.4,0,0,1-1.79,13.46l-17.44,1.9C135.71,322.33,136.71,318.09,136.88,313.91Z" transform="translate(-6.33 -8)"/><path class="cls-70" d="M227.25,324.63l-17.45,1.9c-.55-8-.16-15.84-1.6-23.25l17.5-2.85A144,144,0,0,1,227.25,324.63Z" transform="translate(-6.33 -8)"/><path class="cls-71" d="M87.41,381.39A134.56,134.56,0,0,1,85.5,340s.41,27.52,4.79,41.4Z" transform="translate(-6.33 -8)"/><path class="cls-72" d="M162,381.39s-2.07-12.65-2.07-38.52c0,0,.91,28.31,4.71,38.4Z" transform="translate(-6.33 -8)"/><path class="cls-15" d="M73,207.11c-3.22,1.14-5.75-5.09-4.9-5.09l1.6-.24-.27-.46-16-.12c-.59,1.73-1.75,4.36-3.1,3.84-1.1-.42-1.16-2.3-1-3.88l-7.94-.08C31.08,211.38,19.81,227.9,13.91,237c.46,1,.87,2.27.52,2.62s-1.09,0-2-.33c-1.68,2.59-2.63,4.18-2.63,4.18.64,3,1.36,5.71,2,7.75A3.45,3.45,0,0,1,14,250.09a2.31,2.31,0,0,1,2.19,1.68c1.46-2.12,2.91-4.13,4.33-6.1h0c-.31-1.74-.52-3.65,0-4.17s1.62.21,2.36,1c6.15-8.27,11.82-15.1,16.26-20.18-1.14-.3-2.39-.78-1.82-1.35s2.35-.74,3.68-.77c4.62-5.18,7.5-8,7.5-8l28.17.89Zm-57.44,37.5c-.67-.65.12-1.53.62-1S16.18,245.25,15.54,244.61Zm1.08,3c-.66-.65.13-1.53.63-1S17.27,248.23,16.62,247.59Zm1.42-14c-.39-.38,2.14-4.44,2.14-3.46C20.18,231.36,18.43,234,18,233.59ZM22.48,228c-1.29,0,2.36-7,3.15-6.17C26.11,222.32,23.79,228,22.48,228Zm4,5.6C26,233.11,30,228.38,30,230,30,231.29,27,234.14,26.48,233.63ZM32,221.8c-.66-.64.13-1.52.63-1S32.65,222.45,32,221.8ZM35,210c-.49-.5,3.08-4.87,3.08-3.61C38.08,207,35.5,210.53,35,210Zm3.08,5.21c-.66-.65,2-2.34,2.45-1.84S38.72,215.89,38.08,215.25Zm6-9.67a.71.71,0,0,1-.24-.65.53.53,0,0,1,.87-.38c.42.42.15,1.31-.33,1.19A.45.45,0,0,1,44.08,205.58Zm16-3.06c.5.5-2.33.55-3-.09S59.63,202,60.12,202.52Zm-4.73,8.2c.5.49-2.34.55-3-.1S54.89,210.22,55.39,210.72Zm2.17-.65c0-1.32,7.67-1,7.67,0C65.23,210.07,57.56,211.42,57.56,210.07Zm7.37-6.66c-.66-.65.13-1.53.63-1S65.58,204.05,64.93,203.41Zm2.32,8.18c-.66-.64.13-1.53.63-1S67.89,212.24,67.25,211.59Zm5.44-.43c-.67-.65.12-1.53.62-1S73.33,211.8,72.69,211.16Z" transform="translate(-6.33 -8)"/><path class="cls-73" d="M48.47,212.15s-2.88,2.82-7.5,8c-1.33,0-3.09.18-3.68.77s.68,1.05,1.82,1.35c-4.44,5.08-10.11,11.91-16.26,20.18-.74-.75-1.77-1.55-2.36-1s-.31,2.43,0,4.17h0c-1.42,2-2.87,4-4.33,6.1A2.31,2.31,0,0,0,14,250.09a3.45,3.45,0,0,0-2.16,1.09c-.62-2-1.34-4.7-2-7.75,0,0,.95-1.59,2.63-4.18.88.36,1.71.59,2,.33s-.06-1.57-.52-2.62c5.9-9.06,17.17-25.58,27.48-35.88l2.45,3.85.54.81Z" transform="translate(-6.33 -8)"/><path class="cls-15" d="M302.52,225.62c-1.35-.48-3.37-1.44-3.37-2.82s1.6-1.16,2.8-.87l-.17-1.12-9.37-.17c.09,1,0,2.16-.68,2.16-.85,0-1-1.22-1-2.17l-4-.08-1.35-.16-27-3.23c-1.05,1.57-2.7,3.41-4.1,2a3.26,3.26,0,0,1-1-2.61l-9.91-1.18L240.14,226,270,232.76c.2-1.49.83-3,2.62-2.54s3.11,2.43,3.94,4l10.33,2.33,16.78-3.24ZM248,217.77c0,.41-1.64.24-1.64-.28S248,217.38,248,217.77Zm-2.16,3.68c0-.51,4.31-.27,4.31.41S245.81,222,245.81,221.45Zm21.24,8.66c-.56.55-7.67-1.09-7.67-2.17S267.6,229.56,267.05,230.11Zm4.14-7.79c0-1,8.34-1.25,8.34,0S271.19,223.37,271.19,222.32Zm10.41,10.37c0-.52,1.89-.52,1.89,0S281.6,233.21,281.6,232.69Zm-22.22-14.31c0-.51,1.9-.51,1.9,0S259.38,218.9,259.38,218.38Zm33.24,14.7c0-.52,1.9-.52,1.9,0S292.62,233.59,292.62,233.08Zm-34.81-6.3c0-.52,1.9-.52,1.9,0S257.81,227.3,257.81,226.78Zm13.38-6c0-.51,1.9-.51,1.9,0S271.19,221.29,271.19,220.77Zm-27.42,4.07c0-.52.95-.52.95,0S243.77,225.35,243.77,224.84Zm31.12.39c0-.52.95-.52.95,0S274.89,225.74,274.89,225.23Zm20-2.06c0-.51.95-.51.95,0S294.87,223.69,294.87,223.17ZM277.62,233c0-.52.95-.52.95,0S277.62,233.49,277.62,233Zm5.3-9.16c0-.8,1.84-.9,1.84,0S282.92,224.62,282.92,223.81Zm13.41,6.3c-.31-.31,2.82-3,2.82-2.17C299.15,229.58,296.64,230.42,296.33,230.11Zm1.4,2.58c-.79-.79,3.15-2.06,3.15-1.33C300.88,232.45,298.52,233.48,297.73,232.69Z" transform="translate(-6.33 -8)"/><path class="cls-73" d="M303.7,233.35l-16.78,3.24-1.59-16.2,1.35.16,4,.08c0,1,.17,2.17,1,2.17.7,0,.77-1.18.68-2.16l9.37.17.17,1.12c-1.2-.29-2.8-.44-2.8.87s2,2.34,3.37,2.82Z" transform="translate(-6.33 -8)"/><path class="cls-15" d="M154.29,93.13v0a1.71,1.71,0,0,1-.43-.06c-.53-.13-1.79-.61-1.73-.8s1.39,0,1.93.09l.17.07-.2-2.16-1.66-.61a1,1,0,0,1-.92.51c-.32-.08-.32-.64-.25-.83a.15.15,0,0,1,0-.09L141,85.48c.75,1.74-1,1-1.34.68a1.64,1.64,0,0,1-.34-1.3l-17.81-6.53,1.11,5.93L143.2,93c0-.06,0-.08.15-.08.83,0,3.39.32,2.58,1.23l2.33,1c-.83-.82-.68-2.77-.35-2.84,1.77-.37,1.28,2.35,1.45,3.31l5.36,2.26ZM124.48,80.51c0-.28.75-.32,1.49-.11s1.28.54,1.24.86-.75.32-1.49.1S124.37,80.76,124.48,80.51Zm.58,3.56c0-.41,3.71,1.13,3.71,1.45S125.06,84.77,125.06,84.07ZM132.11,86a.24.24,0,0,1,0-.47,4.12,4.12,0,0,1,1.3.68C133.41,86.33,132.24,86,132.11,86Zm7.56,4c-.86-.23-1.53-.62-1.47-.85s.84-.23,1.7,0,1.84.61,1.78.84S140.53,90.22,139.67,90Zm3.09,2.48c-.43-.11-.76-.31-.73-.42s.42-.12.85,0,.45.3.41.42S143.19,92.58,142.76,92.46Zm7.05,2.28a.23.23,0,0,1-.23-.23.23.23,0,0,1,.23-.24c.13,0,.28.06.28.19A.32.32,0,0,1,149.81,94.74Zm3,.24a.24.24,0,0,1-.24-.24.23.23,0,0,1,.24-.23c.13,0,.28,0,.28.18A.33.33,0,0,1,152.84,95Zm-1.41-2.73a.24.24,0,1,1,0-.47c.13,0,.28.06.28.18A.33.33,0,0,1,151.43,92.25Zm-16.21-5.76a.23.23,0,0,1-.24-.23.24.24,0,0,1,.24-.24c.12,0,.27.06.27.19A.32.32,0,0,1,135.22,86.49Zm0-2a.24.24,0,1,1,0-.47c.12,0,.27.06.27.19A.33.33,0,0,1,135.22,84.47Zm-8-2a.23.23,0,0,1-.23-.23.23.23,0,0,1,.23-.24c.13,0,.28.06.28.19A.32.32,0,0,1,127.19,82.51Zm10.11,3.2c-.3-.06-.54-.23-.5-.34s.3-.13.6,0a6.6,6.6,0,0,1,1.77.92A11,11,0,0,1,137.3,85.71Zm8.8,3.44a.23.23,0,0,1-.23-.24.23.23,0,0,1,.23-.23,8.89,8.89,0,0,1,2,.83A12.66,12.66,0,0,1,146.1,89.15Z" transform="translate(-6.33 -8)"/><path class="cls-15" d="M156.25,111.81l-.42-4.69v0a1.71,1.71,0,0,1-.43-.06,9,9,0,0,1-2.54-1,9.22,9.22,0,0,1,2.73.28l.17.07-.19-2.16-1.66-.62c0,.2-1.16,1.14-1.47,1-1.52-.78.23-1.1.29-1.3a.18.18,0,0,1,.05-.08l-10.26-3.75c-.36.61-1.46,1.75-2.48.51-.27-.33.75-.62.8-1.13l-18-7.7L124,97.29l9.55,4.44a3,3,0,0,1,1.77-.26c.38.17-.24.45-.87.66L144.74,107c0-.06,0-.08.15-.08.83,0,3.39.32,2.58,1.23Zm-31-17.76c-.13,0-.9-.34-.9-.47s.77,0,.9,0a.24.24,0,0,1,0,.47Zm1.83,3.77c0-.4,2,.9,2,1.22S127.12,98.53,127.12,97.82Zm6.53,2.16a.24.24,0,1,1,0-.47.24.24,0,0,1,0,.47Zm-8.59-3.64a.24.24,0,0,1-.24-.24.23.23,0,0,1,.24-.23c.12,0,1.1.34,1.1.47S125.18,96.34,125.06,96.34Zm13.05,4.11a15.11,15.11,0,0,1-1.7-.63c-1.28-.7,1.57.16,1.7.16s1,.5,1,.63S138.23,100.45,138.11,100.45Zm3.92,3.71c0-.41,2.05.57,2.05.89S142,104.86,142,104.16Zm-12.61-9.32c0-.41,2.05.58,2.05.9S129.42,95.54,129.42,94.84Zm22.89,13.65a10.3,10.3,0,0,1,2.21,1.15,20.08,20.08,0,0,1-2.32-.77c-.3-.06-.53-.23-.49-.34S152,108.4,152.31,108.49Zm-2.14-2.65a.24.24,0,1,1,0,.47c-.12,0-.91-.34-.91-.47S150.05,105.84,150.17,105.84Zm-2.77-2.94a.24.24,0,0,1,.24-.24c.13,0,.79.35.79.47s-.66,0-.79,0A.23.23,0,0,1,147.4,102.9Zm-9.18-1.14c0-.52.27-.7.6-.7s2,1.12,2,1.64-1.69,0-2,0S138.22,102.27,138.22,101.76Zm4.21-1.38c0-.13.73,0,.86,0s.79.34.79.46-.66,0-.79,0S142.43,100.5,142.43,100.38Z" transform="translate(-6.33 -8)"/><path class="cls-15" d="M208.83,94.7v0a1.1,1.1,0,0,0,.33-.06c.41-.13,1.38-.61,1.33-.8s-1.07,0-1.48.09a.4.4,0,0,0-.13.07l.14-2.16,1.29-.62c0,.2.45.61.71.52s.24-.64.19-.84a.13.13,0,0,0,0-.08l7.92-3.75c-.58,1.74.81,1,1,.68a2,2,0,0,0,.27-1.3l13.74-6.53-.86,5.93-15.9,8.7c0-.06,0-.09-.11-.09-.64,0-2.62.32-2,1.24l-1.8,1c.64-.82.53-2.77.27-2.84-1.36-.37-1,2.35-1.12,3.31l-4.13,2.26Zm23-12.62c0-.28-.58-.32-1.16-.11s-1,.53-1,.85.57.32,1.15.11S231.92,82.33,231.84,82.08Zm-.45,3.56c0-.41-2.86,1.13-2.86,1.45S231.39,86.34,231.39,85.64Zm-5.45,1.92c.1,0,.18-.11.18-.24a.21.21,0,0,0-.18-.23c-.1,0-1,.55-1,.68S225.84,87.56,225.94,87.56Zm-5.83,4c.67-.23,1.18-.62,1.13-.85s-.64-.24-1.31,0-1.42.61-1.37.84S219.44,91.78,220.11,91.55ZM217.72,94c.34-.12.59-.31.57-.43s-.32-.11-.65,0-.35.31-.33.42S217.39,94.15,217.72,94Zm-5.44,2.28a.21.21,0,0,0,.18-.23c0-.13-.08-.24-.18-.24a.19.19,0,0,0-.21.19C212.07,96.15,212.18,96.31,212.28,96.31Zm-2.33.24c.1,0,.18-.11.18-.24a.21.21,0,0,0-.18-.23c-.1,0-.22,0-.22.18S209.85,96.55,210,96.55ZM211,93.82c.09,0,.18-.11.18-.24a.21.21,0,0,0-.18-.23c-.1,0-.22.05-.22.18S210.94,93.82,211,93.82Zm12.51-5.76a.21.21,0,0,0,.18-.23c0-.13-.08-.24-.18-.24a.2.2,0,0,0-.22.19C223.33,87.9,223.45,88.06,223.55,88.06Zm0-2a.21.21,0,0,0,.18-.23c0-.13-.08-.24-.18-.24a.2.2,0,0,0-.22.18C223.33,85.88,223.45,86,223.55,86Zm6.19-2a.21.21,0,0,0,.18-.23c0-.13-.08-.24-.18-.24a.19.19,0,0,0-.21.19C229.53,83.92,229.64,84.08,229.74,84.08Zm-7.8,3.2c.23-.06.42-.23.38-.34s-.23-.13-.46,0a5,5,0,0,0-1.36.91C220.53,87.92,221.71,87.37,221.94,87.28Zm-6.79,3.43a.21.21,0,0,0,.18-.23c0-.13-.08-.24-.18-.24a6.23,6.23,0,0,0-1.52.84C213.63,91.2,215.05,90.71,215.15,90.71Z" transform="translate(-6.33 -8)"/><path class="cls-15" d="M208.73,111.83l.33-4.69v0a.85.85,0,0,0,.33-.07c.41-.12,2-.79,2-1s-1.7.15-2.11.28a.4.4,0,0,0-.13.07l.15-2.16,1.28-.62c0,.19.89,1.14,1.13,1,1.18-.78-.18-1.11-.23-1.3a.13.13,0,0,0,0-.08l7.92-3.76c.28.62,1.13,1.76,1.92.52.2-.33-.59-.62-.62-1.13l13.92-7.7-.89,6.14-7.37,4.43c-.46-.21-1.07-.42-1.37-.25s.19.45.68.66l-8,4.82q0-.09-.12-.09c-.64,0-2.62.32-2,1.24Zm23.9-17.76c.1,0,.69-.34.69-.47s-.59,0-.69,0a.21.21,0,0,0-.18.23C232.45,94,232.53,94.07,232.63,94.07Zm-1.42,3.77c0-.4-1.58.9-1.58,1.22S231.21,98.55,231.21,97.84Zm-5,2.16c.09,0,.18-.11.18-.24a.19.19,0,1,0-.37,0A.22.22,0,0,0,226.18,100Zm6.63-3.65a.24.24,0,0,0,0-.46c-.1,0-.86.34-.86.46S232.71,96.35,232.81,96.35Zm-10.07,4.12a11.93,11.93,0,0,0,1.3-.63c1-.7-1.21.16-1.3.16s-.82.5-.82.62S222.64,100.47,222.74,100.47Zm-3,3.71c0-.41-1.58.57-1.58.89S219.71,104.88,219.71,104.18Zm9.73-9.32c0-.41-1.58.57-1.58.89S229.44,95.56,229.44,94.86ZM211.77,108.5a8,8,0,0,0-1.71,1.16,14.59,14.59,0,0,0,1.8-.77c.23-.07.41-.24.37-.34S212,108.42,211.77,108.5Zm1.65-2.64c-.1,0-.18.11-.18.24a.21.21,0,0,0,.18.23c.1,0,.71-.34.71-.47S213.52,105.86,213.42,105.86Zm2.14-2.94c0-.13-.08-.24-.18-.24s-.61.34-.61.47.51,0,.61,0A.21.21,0,0,0,215.56,102.92Zm7.09-1.15c0-.51-.21-.69-.46-.69s-1.55,1.12-1.55,1.64,1.29,0,1.55,0S222.65,102.29,222.65,101.77Zm-3.25-1.38c0-.12-.57,0-.66,0s-.61.35-.61.47.51,0,.61,0S219.4,100.52,219.4,100.39Z" transform="translate(-6.33 -8)"/><path class="cls-20" d="M76.28,242.87s15,18.73,15,31.16l13.39-7.12s-5.95-22.07-14.22-30.34C79.84,229.43,76.51,230.59,76.28,242.87Z" transform="translate(-6.33 -8)"/></g></g></svg>