<svg id="Calque_1" data-name="Calque 1" xmlns="http://www.w3.org/2000/svg" viewBox="0 0 879 1209.08"><defs><style>.cls-1{fill:#fff;}.cls-2{fill:#ffbc00;}.cls-3{opacity:0.3;}.cls-4{fill:#263238;}.cls-5{fill:#455a64;}.cls-6{opacity:0.2;}.cls-7{fill:#e8505b;}.cls-8,.cls-9{fill:#ffca6c;}.cls-9{opacity:0.8;}.cls-10{opacity:0.1;}.cls-11{fill:none;stroke:#f3a7ad;stroke-miterlimit:10;stroke-width:2.87px;}.cls-12,.cls-13{fill:#ff9d00;fill-rule:evenodd;}.cls-13{opacity:0.5;}</style></defs><title>robotguest</title><path class="cls-1" d="M437.51,1227.29a1.22,1.22,0,1,1-.09.07" transform="translate(-11 -115.05)"/><path class="cls-2" d="M689.82,379.09l44,19.8s-68.81,98.08-83,113.87-153.16,35.45-153.16,35.45L491,490.1l118.46-20.17Z" transform="translate(-11 -115.05)"/><path class="cls-2" d="M644.52,517.4c-.27,0-.57-3.48-2.07-8.88a61.45,61.45,0,0,0-3.4-9.22A61.54,61.54,0,0,0,625,480a62.26,62.26,0,0,0-7.73-6.06c-4.69-3.08-7.94-4.43-7.82-4.69a8.22,8.22,0,0,1,2.35.76,39.72,39.72,0,0,1,6,3,53.11,53.11,0,0,1,8.1,5.93,62.1,62.1,0,0,1,8.27,9.11,62.74,62.74,0,0,1,6.13,10.65,53.54,53.54,0,0,1,3.18,9.52,40.48,40.48,0,0,1,1,6.67A7.6,7.6,0,0,1,644.52,517.4Z" transform="translate(-11 -115.05)"/><path class="cls-2" d="M635.44,495.24a28.6,28.6,0,0,1-4.42,1.51c-2.87.88-7,2.07-12.23,3.48C608.43,503.05,594,506.62,578,510s-30.67,5.9-41.28,7.49c-5.31.8-9.62,1.39-12.6,1.74a28.83,28.83,0,0,1-4.65.4,26.18,26.18,0,0,1,4.56-1l12.51-2.2c10.57-1.86,25.14-4.55,41.16-7.91s30.43-6.78,40.84-9.33l12.34-3A27.74,27.74,0,0,1,635.44,495.24Z" transform="translate(-11 -115.05)"/><path class="cls-2" d="M701,385.48c.31.27-17.51,20.94-39.8,46.16s-40.61,45.46-40.92,45.18,17.5-20.94,39.8-46.17S700.72,385.2,701,385.48Z" transform="translate(-11 -115.05)"/><path class="cls-2" d="M645,455.26a1.23,1.23,0,1,1-.09.07" transform="translate(-11 -115.05)"/><path class="cls-2" d="M572.89,502a1.23,1.23,0,1,1-.09.07" transform="translate(-11 -115.05)"/><path class="cls-2" d="M607.57,494.33a1.2,1.2,0,1,1,.18,2.1,1.25,1.25,0,0,1-.27-2" transform="translate(-11 -115.05)"/><path class="cls-2" d="M664.71,433.18a1.19,1.19,0,1,1-.1.07" transform="translate(-11 -115.05)"/><path class="cls-2" d="M685.33,409.79a1.19,1.19,0,1,1-.1.07" transform="translate(-11 -115.05)"/><g class="cls-3"><path class="cls-2" d="M602.55,475.83c.33,2-17.53,6.63-39.89,10.25s-40.77,4.9-41.1,2.86,17.53-6.63,39.9-10.24S602.23,473.8,602.55,475.83Z" transform="translate(-11 -115.05)"/></g><path class="cls-1" d="M542.86,507.39a1.22,1.22,0,1,1-.09.07" transform="translate(-11 -115.05)"/><path class="cls-4" d="M478.62,481.69c11.83-4.39,26,.26,34.07,10s10.14,23.63,6.73,35.78S499.81,556,488.84,560.59" transform="translate(-11 -115.05)"/><path class="cls-2" d="M745.51,385.48c3.6-5,7.21-10.08,9.71-15.72s3.84-12,2.66-18-5.2-11.74-11-13.91-13.14-.08-16.12,5.33L742.47,320c1.43-2.83,2.82-6.39,1-9-1.71-2.39-5.49-2.39-8-.79s-4,4.31-5.35,6.91l-17.3,32.43-15.27-23.92c-1.55-2.42-3.76-5.16-6.6-4.71-2.27.35-3.73,2.8-3.78,5.1s1,4.47,1.93,6.55c4.46,9.44,12.54,30.87,12.54,30.87Z" transform="translate(-11 -115.05)"/><path class="cls-5" d="M488.84,558.94c-.24-.24,3.93-3.41,8.94-10a43,43,0,0,0,6.66-12.69,45,45,0,0,0,1.76-17.43A63.69,63.69,0,0,0,496,488.67c-2.2-3.49-4.48-6-6.43-7.14a19.22,19.22,0,0,0-3.25-1.41c0-.05.33-.07.95,0a8.15,8.15,0,0,1,2.59.89c2.15,1.08,4.67,3.58,7,7.05a61.33,61.33,0,0,1,10.79,30.65,44.87,44.87,0,0,1-1.94,17.95,41.86,41.86,0,0,1-7.14,12.92,52.26,52.26,0,0,1-6.88,7.14A15.19,15.19,0,0,1,488.84,558.94Z" transform="translate(-11 -115.05)"/><path class="cls-4" d="M689.82,379.09a301.17,301.17,0,0,0,37.43,20.29c5.14,2.39,11.52,4.58,16.14,1.29,3.33-2.37,4.44-7,3.56-11s-3.38-7.45-6.1-10.51a67,67,0,0,0-31.6-19.78c-4.32-1.22-8.91-2-13.3-1s-8.54,4-9.8,8.3-.6,9.64,3.67,12.48" transform="translate(-11 -115.05)"/><path class="cls-5" d="M745.1,395.24c-.24.13-1.91-3.43-5.79-8.32a54.25,54.25,0,0,0-42.15-20.76c-6.25-.09-10.08.75-10.13.48a8.91,8.91,0,0,1,2.66-.74,43.69,43.69,0,0,1,7.47-.8,51.57,51.57,0,0,1,43,21.18,43.27,43.27,0,0,1,3.92,6.4A9,9,0,0,1,745.1,395.24Z" transform="translate(-11 -115.05)"/><path class="cls-4" d="M461.19,694.74c.42.84-5.1,4.79-15.17,9a125.6,125.6,0,0,1-18.22,6A140.16,140.16,0,0,1,381,713.2a125.3,125.3,0,0,1-18.9-3.24c-10.59-2.73-16.63-5.82-16.34-6.72.33-1.07,6.86.2,17.32,1.52,5.23.69,11.47,1.24,18.39,1.57A215.31,215.31,0,0,0,404,706a217.51,217.51,0,0,0,22.31-3c6.8-1.35,12.89-2.8,18-4.25C454.44,695.94,460.71,693.72,461.19,694.74Z" transform="translate(-11 -115.05)"/><path class="cls-4" d="M457.46,710.56c.31.92-5,3.83-14.24,6.88a163.11,163.11,0,0,1-75.16,5.46c-9.58-1.68-15.26-3.79-15.08-4.75.4-2.18,23.77,1.17,52.44-1C434.1,715.15,456.75,708.46,457.46,710.56Z" transform="translate(-11 -115.05)"/><path class="cls-2" d="M353.44,287.73s-94.78,17.52-93.58,102.37,81.45,70.59,104.76,67.61c10.56-1.36,31.62-4.35,51.49-7.21,42.14-6.08,73.59-26.58,76.08-69.08a78,78,0,0,0-.5-14.95C485.72,321.6,443.89,267.61,353.44,287.73Z" transform="translate(-11 -115.05)"/><path class="cls-4" d="M455.7,372.81,334.76,398.47a23.46,23.46,0,0,1-27.82-18.08h0A23.46,23.46,0,0,1,325,352.57L446,326.91A23.46,23.46,0,0,1,473.79,345h0A23.47,23.47,0,0,1,455.7,372.81Z" transform="translate(-11 -115.05)"/><circle class="cls-1" cx="340.1" cy="257.95" r="7.53"/><circle class="cls-1" cx="424.58" cy="240" r="7.53"/><path class="cls-1" d="M390.36,332.51c-.21.09-1.65-3.24-4-8.55a84,84,0,0,0-11.76-19.25c-5.54-6.88-12.32-11.44-17.74-13.35s-9.11-2-9.08-2.3a7.86,7.86,0,0,1,2.57-.06,29.88,29.88,0,0,1,6.85,1.36c5.7,1.71,12.88,6.34,18.55,13.4a73.42,73.42,0,0,1,11.58,19.78c1.09,2.73,1.88,4.95,2.41,6.51A8.11,8.11,0,0,1,390.36,332.51Z" transform="translate(-11 -115.05)"/><path class="cls-1" d="M393.4,453.75c-.19-.19,2.53-2.8,5.87-7.79a52.91,52.91,0,0,0,8.31-21.6,90.32,90.32,0,0,0-.19-23.38c-.9-6-1.52-9.67-1.3-9.71a9.19,9.19,0,0,1,.8,2.52c.41,1.64,1,4,1.54,7a78.85,78.85,0,0,1,.63,23.76,49.6,49.6,0,0,1-8.92,22,46.18,46.18,0,0,1-4.7,5.49C394.2,453.23,393.47,453.82,393.4,453.75Z" transform="translate(-11 -115.05)"/><g class="cls-3"><path d="M481.42,416.89c-10.88-7.1-23.9-10.39-36.86-11.21s-25.95.73-38.79,2.66c-29.7,4.47-60.09,11.49-84.14,29.47-6.78,5.07-13.14,11.22-16.25,19.1,0,0,12.75,5.25,38.19,3.55s77.93-10.83,77.93-10.83,26.84-4.53,42-15.87S481.42,416.89,481.42,416.89Z" transform="translate(-11 -115.05)"/></g><path class="cls-1" d="M481.13,342.61a19.09,19.09,0,0,1,1.08,4.35,27.22,27.22,0,0,1-1.16,12.78,29.34,29.34,0,0,1-12.83,15.52c-6.86,4.24-15.8,6.55-25.52,8.63l-68.43,15-19.78,4.31c-6.76,1.38-13.57,3.18-20.78,4.11s-15.06.42-21.62-3.68a31.05,31.05,0,0,1-13.31-18.21A30.67,30.67,0,0,1,301.39,363a33.53,33.53,0,0,1,16.2-14.83,57.45,57.45,0,0,1,10.35-3l10.18-2.38,19.71-4.62,36.46-8.5C405.76,327.21,416.2,324,426,322a103,103,0,0,1,14.15-1.93,54.48,54.48,0,0,1,12.75.44,40.11,40.11,0,0,1,18.71,7.82,28.25,28.25,0,0,1,8,10,19.19,19.19,0,0,1,1.21,3.12,6.46,6.46,0,0,1,.32,1.1c-.11,0-.48-1.48-1.8-4.09a28.86,28.86,0,0,0-8.06-9.71,40,40,0,0,0-18.48-7.46,54.14,54.14,0,0,0-12.56-.31,103.5,103.5,0,0,0-14,2c-9.73,2-20.17,5.31-31.63,7.82l-36.43,8.64-19.71,4.66-10.18,2.41c-3.44.83-6.91,1.48-10.1,2.93a32,32,0,0,0-15.47,14.19,29.15,29.15,0,0,0-2.49,21.3,29.59,29.59,0,0,0,12.65,17.33c6.17,3.87,13.69,4.41,20.67,3.5s13.89-2.69,20.64-4.06l19.8-4.26,68.5-14.66c9.73-2,18.55-4.22,25.3-8.3a28.87,28.87,0,0,0,12.72-15A27.65,27.65,0,0,0,481.91,347C481.57,344.1,481,342.63,481.13,342.61Z" transform="translate(-11 -115.05)"/><path class="cls-1" d="M261.18,404.15c-.12-.15,1.58-1.77,4.62-4a82.41,82.41,0,0,1,26.5-13c3.66-1,6-1.36,6-1.18.12.46-8.95,2.77-19.21,7.83S261.46,404.53,261.18,404.15Z" transform="translate(-11 -115.05)"/><path class="cls-1" d="M359.65,299.61a1.22,1.22,0,1,1-.09.07" transform="translate(-11 -115.05)"/><path class="cls-1" d="M374.69,321.57a1.23,1.23,0,1,1-.09.07" transform="translate(-11 -115.05)"/><path class="cls-1" d="M283.74,383a1.19,1.19,0,1,1-.1.07" transform="translate(-11 -115.05)"/><path class="cls-1" d="M265,393.11a1.17,1.17,0,1,1-.09.06" transform="translate(-11 -115.05)"/><g class="cls-3"><path class="cls-1" d="M379,289.1c.23,1.08-8.31,3.52-21.77,7.83s-32,10.81-49.12,23.09a98.43,98.43,0,0,0-21,20.59,82.69,82.69,0,0,0-11.5,21.07c-4.7,13-4.12,22-5.4,22-.47,0-1.16-2.15-1.49-6.25a54.08,54.08,0,0,1,1.84-17.31,75.71,75.71,0,0,1,10.94-23.5A94,94,0,0,1,303.77,314a125.17,125.17,0,0,1,27.75-14.81,167.94,167.94,0,0,1,24.35-7.31C370,288.75,378.85,288.16,379,289.1Z" transform="translate(-11 -115.05)"/></g><g class="cls-3"><path class="cls-1" d="M287.42,425.4c-1.24,1.61-6.72-.62-10.73-6.27s-4.34-11.54-2.41-12.19,5.13,3.17,8.51,7.85S288.73,423.77,287.42,425.4Z" transform="translate(-11 -115.05)"/></g><path class="cls-2" d="M483.93,471.5c5.75,1.63,5.39,84.8,4.16,127.25-.66,22.75-2.37,46.48-14,66.06-12.92,21.82-37.51,35.74-62.81,37.44-30.44,2.06-60.53-12.67-81.35-35s-33.16-51.45-39.79-81.23-7.93-60.45-9.2-90.94C281,495.11,379.53,441.92,483.93,471.5Z" transform="translate(-11 -115.05)"/><g class="cls-6"><path d="M285.59,535.32c-.68,26.8,4,57.74,12.64,80.12,9.29,24.22,22.81,46.08,45.36,64.32,4.5,3.63,11.75,8.08,20,12.53,6.51,3.52,12.41,5.22,18.89,7.08,10.71,3.07,17-10.18,19.12-21.12s-1.84-22.4-8.5-31.34-15.82-15.67-25.2-21.68-19.16-11.48-27.81-18.5c-14.88-12.08-25.86-28.41-34-45.75s-13.7-35.78-19.19-54.14" transform="translate(-11 -115.05)"/></g><path class="cls-1" d="M355.91,648.78a1.2,1.2,0,1,1,.17,2.1,1.27,1.27,0,0,1-.27-2" transform="translate(-11 -115.05)"/><path class="cls-1" d="M392.76,647.32a1.2,1.2,0,1,1,.18,2.1,1.25,1.25,0,0,1-.27-2" transform="translate(-11 -115.05)"/><path class="cls-1" d="M433,609.27a1.2,1.2,0,1,1,.18,2.1,1.25,1.25,0,0,1-.27-2" transform="translate(-11 -115.05)"/><path class="cls-1" d="M414.53,515.3a1.22,1.22,0,1,1-.09.07" transform="translate(-11 -115.05)"/><path class="cls-1" d="M452.27,530.71a1.2,1.2,0,1,1,.17,2.1,1.27,1.27,0,0,1-.27-2" transform="translate(-11 -115.05)"/><path class="cls-1" d="M314.13,637.9a1.18,1.18,0,1,1-.09.06" transform="translate(-11 -115.05)"/><path class="cls-1" d="M308,606.62a1.22,1.22,0,1,1-.09.07" transform="translate(-11 -115.05)"/><path class="cls-1" d="M305.38,578.3a1.22,1.22,0,1,1-.09.07" transform="translate(-11 -115.05)"/><path class="cls-1" d="M302.7,548.21a1.2,1.2,0,1,1,.17,2.1,1.27,1.27,0,0,1-.27-2" transform="translate(-11 -115.05)"/><path class="cls-1" d="M474.68,523.35a1.23,1.23,0,1,1-.09.07" transform="translate(-11 -115.05)"/><path class="cls-1" d="M439.18,644.49a1.19,1.19,0,1,1-.1.07" transform="translate(-11 -115.05)"/><path class="cls-1" d="M443.22,674.19a1.19,1.19,0,1,1-.1.07" transform="translate(-11 -115.05)"/><g class="cls-3"><path class="cls-1" d="M461.08,493.87c.28.9-8.64,4.87-23.85,9a258.06,258.06,0,0,1-27.08,5.68,283.22,283.22,0,0,1-67.68,2.28,257.52,257.52,0,0,1-27.4-3.85c-15.45-3.1-24.62-6.46-24.4-7.37.48-2.28,38.26,6.43,85.46,4.64C423.33,502.86,460.45,491.63,461.08,493.87Z" transform="translate(-11 -115.05)"/></g><path class="cls-1" d="M352.47,686a9.31,9.31,0,0,1-1.57-1.23c-1-.84-2.43-2.13-4.19-3.89a58.31,58.31,0,0,1-12.13-17.13,92,92,0,0,1-4.8-13.73c-1.5-5-3-10.36-4.49-16-3-11.32-6-23.87-8.59-37.13a604,604,0,0,1-9.53-68.56c-.67-8.83-1.05-16-1.23-20.94-.06-2.36-.1-4.25-.14-5.71a9.9,9.9,0,0,1,.05-2,9.83,9.83,0,0,1,.25,2c.11,1.45.25,3.34.42,5.69.35,4.93.9,12.07,1.71,20.88a686.55,686.55,0,0,0,9.94,68.36c2.62,13.23,5.52,25.76,8.45,37.07,1.48,5.66,2.91,11,4.35,16a94.22,94.22,0,0,0,4.57,13.64,60.9,60.9,0,0,0,11.59,17.17c1.68,1.81,3,3.16,4,4.07A10.84,10.84,0,0,1,352.47,686Z" transform="translate(-11 -115.05)"/><path class="cls-1" d="M419.32,594.54c.41,0,3.5,22.82,6.91,51.07s5.82,51.21,5.41,51.26-3.5-22.82-6.9-51.08S418.91,594.59,419.32,594.54Z" transform="translate(-11 -115.05)"/><path class="cls-1" d="M376.09,465.64c.08-.07.81.67,2.06,2.05s3,3.43,5.18,6c4.32,5.08,10.22,12.16,16.65,20l2.38,2.92.3.36a.89.89,0,0,1,.33.46,5.27,5.27,0,0,1,.24.62l.09.48c.13.65.19,1.25.26,1.86.26,2.42.39,4.73.51,6.94.22,4.41.32,8.38.39,11.72s.06,6,0,7.9a11.71,11.71,0,0,1-.18,2.9c-.22,0-.53-4.11-.91-10.76-.21-3.45-.45-7.38-.71-11.68-.15-2.19-.31-4.5-.58-6.85-.07-.58-.14-1.18-.26-1.73l-.08-.42c0-.09-.06-.16-.08-.24s-.36-.36-.5-.62l-2.39-2.91c-6.43-7.88-12.19-15.06-16.31-20.31-2.06-2.63-3.7-4.77-4.81-6.27A11.29,11.29,0,0,1,376.09,465.64Z" transform="translate(-11 -115.05)"/><path class="cls-1" d="M421.89,637.9a17.68,17.68,0,0,1-3.6.74c-2.33.39-5.71.87-9.9,1.39-8.38,1-20,2.16-32.87,2.82s-24.55.71-33,.52c-4.22-.09-7.64-.23-10-.38a16.32,16.32,0,0,1-3.66-.38,17.53,17.53,0,0,1,3.67-.2l10-.1c8.43-.08,20.07-.31,32.91-1s24.44-1.6,32.84-2.37l9.94-.92A16.72,16.72,0,0,1,421.89,637.9Z" transform="translate(-11 -115.05)"/><path class="cls-1" d="M488.51,527c.05.09-.65.59-2,1.42a65.14,65.14,0,0,1-5.77,3.17,125.8,125.8,0,0,1-20.28,7.8,161.33,161.33,0,0,1-21.2,4.71c-5.5.82-8.94,1-9,.84s3.35-.8,8.77-1.88,12.88-2.72,21-5.1a170.26,170.26,0,0,0,20.25-7.33C485.37,528.37,488.39,526.74,488.51,527Z" transform="translate(-11 -115.05)"/><circle class="cls-4" cx="409.74" cy="561.83" r="33.65" transform="translate(-288.26 339.23) rotate(-45)"/><circle class="cls-1" cx="409.74" cy="561.83" r="24.52" transform="translate(-188.55 74.45) rotate(-21.52)"/><path class="cls-7" d="M422.8,567.14a24.72,24.72,0,0,1-.53-4c-.24-2.52-.56-6.12-.88-10.53l.3.47-13.11-6.42.7,0-12.18,8.06.34-.67h0v.47l0,.48.06.95.11,1.89c.07,1.25.14,2.49.2,3.71.14,2.43.26,4.8.39,7.07l-.39-.58,13,6.68-.55,0c3.73-2.37,6.8-4.27,9-5.58a24.64,24.64,0,0,1,3.54-2,19.57,19.57,0,0,1-3,2.33c-2,1.47-5.07,3.58-8.87,6.16l-.26.18-.29-.15-13.12-6.41-.37-.18,0-.41q-.21-3.42-.45-7.07c-.07-1.22-.15-2.46-.22-3.71l-.11-1.89-.06-1,0-.48v-.47h0l.34-.67,12.22-8,.35-.23.36.19,13,6.68.29.15,0,.32c.2,4.59.31,8.28.36,10.79A20.18,20.18,0,0,1,422.8,567.14Z" transform="translate(-11 -115.05)"/><g class="cls-6"><path d="M281,495.11s98.61-53.86,203-23.61C483.93,471.5,439.27,513.92,281,495.11Z" transform="translate(-11 -115.05)"/></g><path class="cls-1" d="M439.85,1157.66a1.17,1.17,0,1,1-.09.06" transform="translate(-11 -115.05)"/><path class="cls-2" d="M397,788.8c1.79,70.12,9,140.3,26.8,208.14,3.07,11.65,6.67,23.73,15,32.4s22.95,12.55,32.63,5.39c8.29-6.13,10.16-17.56,11.3-27.8,8.92-79.6,13.9-146.23,14.87-226.31,0,0,2.19-57.82-38.58-57.79S395.93,745.83,397,788.8Z" transform="translate(-11 -115.05)"/><g class="cls-6"><path d="M425.52,729.12c5.09-6.17,15.39-5.73,21.61-.7s9,13.24,9.89,21.19c2.89,25.14-9.48,49.28-13.87,74.21-4.22,24-1,48.63-2.16,73s-6.51,49.18-25.57,64.36c0,0-18.43-93.76-15.84-129.58C401.48,805.46,425.52,729.12,425.52,729.12Z" transform="translate(-11 -115.05)"/></g><path class="cls-1" d="M430.94,823.74a11.74,11.74,0,0,1,.34,2.18q.25,2.36.69,6.27c.57,5.61,1.38,13.45,2.37,23.08,2,19.49,5,46.39,8.79,76s7.77,56.43,10.76,75.79c1.48,9.56,2.69,17.35,3.55,22.93q.58,3.88.93,6.24a12.7,12.7,0,0,1,.22,2.19,12.08,12.08,0,0,1-.52-2.14q-.45-2.34-1.2-6.19c-1-5.39-2.4-13.2-4-22.86-3.26-19.33-7.38-46.1-11.2-75.77s-6.62-56.6-8.36-76.13c-.88-9.76-1.53-17.66-1.9-23.13q-.25-3.93-.41-6.3A11.82,11.82,0,0,1,430.94,823.74Z" transform="translate(-11 -115.05)"/><path class="cls-4" d="M370.88,839.53c19,9.3,46.21,1.74,59.41-17.51s17.3-43.11,21.09-66.14c1.27-7.73,2.3-16.47-2.5-22.65-5.5-7.06-15.87-7.4-24.81-7.11l-85.15,2.77s-31,8.87-31,27.57S344.86,826.81,370.88,839.53Z" transform="translate(-11 -115.05)"/><path class="cls-2" d="M444.07,1045c-9.18.45-16.86,7.79-20.49,16.23s-4,17.86-4.33,27c-1.95,55.83-3.91,111.76-.82,167.54.67,12.08,1.86,24.92,9.24,34.5s23.22,13.56,31.56,4.81c4.77-5,5.75-12.41,6.5-19.28l21.69-199.64c.82-7.52,1.52-15.65-2.32-22.18-3.68-6.26-11-9.72-18.17-10.57s-14.49.51-21.63,1.87" transform="translate(-11 -115.05)"/><path class="cls-1" d="M432.82,1307.79a2.38,2.38,0,0,1-.14-.67c-.07-.53-.15-1.18-.26-2-.19-1.74-.51-4.3-.81-7.61-.63-6.61-1.36-16.19-1.89-28.06-1.15-23.73-.92-56.57.19-92.76s2.14-68.88,2.87-92.73c.4-11.87,2.14-21.53,4.82-27.68a39.91,39.91,0,0,1,3.62-6.77l1.2-1.59q.42-.54.45-.51a2.41,2.41,0,0,1-.33.6l-1.07,1.66a45.5,45.5,0,0,0-3.33,6.83c-2.48,6.13-4,15.67-4.3,27.51-.62,23.84-1.48,56.56-2.43,92.72-1.11,36.19-1.51,69-.63,92.68.39,11.85,1,21.44,1.41,28.06q.33,4.82.53,7.62c0,.8.08,1.45.11,2A2.6,2.6,0,0,1,432.82,1307.79Z" transform="translate(-11 -115.05)"/><path class="cls-4" d="M423.58,1312.22c-.76-5.67-1.53-11.43-.79-17.11s3.16-11.37,7.71-14.86c3.54-2.72,8.07-3.88,12.52-4.29s9-.14,12.89,1.81c6.23,3.08,9.89,9.94,10.93,16.81l4.29,20.82" transform="translate(-11 -115.05)"/><path class="cls-2" d="M421.88,1311.26l49.58.52s36.47,8.25,35.69,11.18-86.72-.57-86.72-.57Z" transform="translate(-11 -115.05)"/><path class="cls-5" d="M409.57,728.83a28.57,28.57,0,0,1,1.67,4.47,48.93,48.93,0,0,1,1.59,5.37c.52,2.12,1.23,4.51,1.66,7.23a89.74,89.74,0,0,1,1.4,8.88c.47,3.21.61,6.67.83,10.3a135.56,135.56,0,0,1-1.36,23.62,130.28,130.28,0,0,1-5.85,22.93c-1.36,3.38-2.53,6.64-4,9.53-.71,1.45-1.35,2.88-2.05,4.2l-2.14,3.76a71.27,71.27,0,0,1-4,6.26,43.64,43.64,0,0,1-3.33,4.5,28.94,28.94,0,0,1-3.12,3.61,29.61,29.61,0,0,1,2.65-4,51.55,51.55,0,0,0,3.1-4.62c1.14-1.85,2.53-3.88,3.76-6.32l2-3.76c.67-1.33,1.28-2.76,2-4.21,1.42-2.87,2.54-6.11,3.85-9.46a137.41,137.41,0,0,0,5.66-22.7,143.3,143.3,0,0,0,1.46-23.35c-.18-3.59-.27-7-.69-10.2-.26-3.2-.74-6.14-1.2-8.83s-1-5.1-1.43-7.22-.91-3.94-1.34-5.4A31.12,31.12,0,0,1,409.57,728.83Z" transform="translate(-11 -115.05)"/><path class="cls-1" d="M448.33,896a1.2,1.2,0,1,1,.18,2.1,1.25,1.25,0,0,1-.27-2" transform="translate(-11 -115.05)"/><path class="cls-1" d="M455.61,957.45a1.2,1.2,0,1,1,.18,2.1,1.25,1.25,0,0,1-.27-2" transform="translate(-11 -115.05)"/><path class="cls-1" d="M441,833.3a1.23,1.23,0,1,1-.09.07" transform="translate(-11 -115.05)"/><path class="cls-1" d="M441,1099.05a1.22,1.22,0,1,1-.09.07" transform="translate(-11 -115.05)"/><path class="cls-5" d="M467.78,1294.94c.06.17-2.33,1.23-6.4,2.4a78.71,78.71,0,0,1-16.27,2.72,77.69,77.69,0,0,1-16.49-.73c-4.18-.66-6.68-1.42-6.65-1.6.08-.47,10.32,1.67,23,.84S467.65,1294.48,467.78,1294.94Z" transform="translate(-11 -115.05)"/><g class="cls-6"><path d="M416.77,1213.39c13.14-9.61,21.56-24.57,26.23-40.15s5.94-32,7.2-48.18,2.6-32.59,7.39-48.14c1.05-3.39,2.27-6.93,1.53-10.4-1.19-5.58-6.87-8.85-12.08-11.2-6.43-2.91-14.53-5.32-20.07-.93-4.16,3.3-5.07,9.15-5.61,14.44-5,48.7-4.58,97.78-4.17,146.74" transform="translate(-11 -115.05)"/></g><circle class="cls-4" cx="448.39" cy="921.46" r="35.28"/><path class="cls-5" d="M492.67,1031.43a8.19,8.19,0,0,1-1.83,2.17,30.3,30.3,0,0,1-6.2,4.66c-5.65,3.38-14.71,6-24.76,5.58s-18.78-3.06-24.94-5.07c-3.08-1-5.55-1.92-7.25-2.58a10.39,10.39,0,0,1-2.58-1.17c.07-.21,3.92,1,10.14,2.74s14.89,4.18,24.69,4.59,18.57-2,24.19-5S492.46,1031.2,492.67,1031.43Z" transform="translate(-11 -115.05)"/><path class="cls-2" d="M93.24,467.6s-6.93-28.37-10.63-29.7-48.13,5-48.13,5S20,422.73,17.81,420.12s-7,4-5.47,7,12.13,32.44,18.74,33.42,23.15-.29,23.15-.29l5.39,18.47Z" transform="translate(-11 -115.05)"/><path class="cls-2" d="M285.28,577.3c-28,10.21-45.94,15.39-74,25.85-15.55,5.8-35.37,12.2-50,16-9.8,2.52-21,3.29-30.49-.85-8.07-3.51-14-10.54-19.31-17.56C86.5,567.78,72.65,526.06,63,485.93l33.7-6.34,60.94,85.25L268.37,527l18.25,45A3.32,3.32,0,0,1,285.28,577.3Z" transform="translate(-11 -115.05)"/><path class="cls-4" d="M286.41,506.13a39.36,39.36,0,0,0-13.42,68c4.58,3.77,11.05,6.67,16.42.94a15.66,15.66,0,0,0,3.5-6.47A84.15,84.15,0,0,0,286.41,506.13Z" transform="translate(-11 -115.05)"/><path class="cls-5" d="M269.42,516.88s.1-.25.41-.64a7.83,7.83,0,0,1,1.59-1.52,3.38,3.38,0,0,1,1.58-.6,4.73,4.73,0,0,1,2,.38,4.51,4.51,0,0,1,1.83,1.41l1.45,1.91a59,59,0,0,1,10.61,23.81c2,10.12,1.23,19.6-.7,26.08a15,15,0,0,1-4.14,6.84,5.24,5.24,0,0,1-2.55,1.45c-.07-.12.88-.57,2.14-1.87a15.71,15.71,0,0,0,3.54-6.73,59.89,59.89,0,0,0,.25-25.47,63.15,63.15,0,0,0-10-23.49c-1-1.36-1.66-2.74-2.76-3.17a2.79,2.79,0,0,0-2.9,0C270.21,516.16,269.51,517,269.42,516.88Z" transform="translate(-11 -115.05)"/><path class="cls-1" d="M157.6,564.84a8.45,8.45,0,0,1,.5,2.47,38.28,38.28,0,0,1,.28,6.86,46.61,46.61,0,0,1-1.55,10.09A50.86,50.86,0,0,1,152,595.82a52.25,52.25,0,0,1-15.33,16.57,43.58,43.58,0,0,1-5.9,3.49,8.24,8.24,0,0,1-2.33,1c-.13-.25,3.05-1.87,7.61-5.3a57.06,57.06,0,0,0,14.66-16.47,54.5,54.5,0,0,0,4.76-11.18,51.12,51.12,0,0,0,1.81-9.79C157.78,568.42,157.31,564.87,157.6,564.84Z" transform="translate(-11 -115.05)"/><path class="cls-1" d="M263.07,537.31c.15.39-23.34,9.58-52.46,20.52s-52.85,19.52-53,19.13,23.34-9.57,52.46-20.53S262.93,536.93,263.07,537.31Z" transform="translate(-11 -115.05)"/><path class="cls-1" d="M73.93,485a5,5,0,0,1,.6,1.32L76,490.21c1.21,3.38,3,8.26,5.3,14.24,4.6,12,11.5,28.32,20.25,45.83,4.41,8.74,8.86,16.93,13.07,24.29s8.26,13.84,11.85,19.16c1.73,2.7,3.39,5.08,4.85,7.16s2.7,3.9,3.78,5.34l2.41,3.36a5.89,5.89,0,0,1,.76,1.23s-.38-.33-1-1.05l-2.63-3.19c-1.16-1.38-2.49-3.14-4-5.2s-3.25-4.39-5-7.06c-3.71-5.26-7.77-11.76-12.16-19.05s-8.8-15.55-13.22-24.32a438.73,438.73,0,0,1-19.9-46.13c-2.2-6-3.82-11-4.86-14.43-.46-1.59-.85-2.9-1.16-4A5.42,5.42,0,0,1,73.93,485Z" transform="translate(-11 -115.05)"/><path class="cls-1" d="M179.4,575.21a1.24,1.24,0,1,0-.11,0" transform="translate(-11 -115.05)"/><path class="cls-1" d="M132.43,589.08a1.21,1.21,0,1,0-.1,0" transform="translate(-11 -115.05)"/><path class="cls-1" d="M111.16,555.74a1.21,1.21,0,1,0-.1,0" transform="translate(-11 -115.05)"/><path class="cls-1" d="M206.9,565.54a1.21,1.21,0,1,0-.1.05" transform="translate(-11 -115.05)"/><path class="cls-1" d="M237.94,554.88a1.17,1.17,0,1,1-.09.06" transform="translate(-11 -115.05)"/><path class="cls-4" d="M62.22,486.13a245.25,245.25,0,0,0,34.23-4.84c4.5-.93,9.73-2.57,11.15-7,1-3.16-.5-6.74-3-8.93s-5.81-3.23-9.06-3.91a54.37,54.37,0,0,0-30.17,2.35c-3.42,1.29-6.79,3-9.19,5.75s-3.65,6.73-2.38,10.15,4.26,6.58,8.42,6.38" transform="translate(-11 -115.05)"/><path class="cls-5" d="M106.09,470c-.11.23-2.93-1.25-7.82-2.54a44.32,44.32,0,0,0-37.45,6.79c-4.12,2.93-6.24,5.3-6.43,5.12s.38-.72,1.33-1.8a34.32,34.32,0,0,1,4.47-4.17,41.71,41.71,0,0,1,38.37-7,35.27,35.27,0,0,1,5.65,2.33C105.48,469.42,106.14,469.88,106.09,470Z" transform="translate(-11 -115.05)"/><path class="cls-2" d="M339.45,1042.25c-9.13,1-16.37,8.77-19.49,17.41s-2.95,18.07-2.73,27.25c1.36,55.85,2.72,111.8,9.1,167.3,1.38,12,3.33,24.76,11.26,33.89s24,12.17,31.79,2.93c4.46-5.27,5-12.72,5.35-19.62q4.92-100.29,9.85-200.58c.37-7.56.58-15.71-3.63-22-4.05-6-11.52-9-18.77-9.48s-14.44,1.36-21.48,3.15" transform="translate(-11 -115.05)"/><path class="cls-2" d="M291.88,789.62c1.8,70.12,8.95,140.3,26.81,208.14,3.06,11.65,6.67,23.73,15,32.4s22.94,12.55,32.62,5.39c8.29-6.13,10.16-17.56,11.31-27.8,8.92-79.6,13.9-146.23,14.87-226.31,0,0,2.18-57.82-38.58-57.79S290.79,746.65,291.88,789.62Z" transform="translate(-11 -115.05)"/><g class="cls-3"><path class="cls-1" d="M326,1007.8c-1,.15-4.28-14.65-8.73-38.72s-10-57.46-14.34-94.62c-2.2-18.57-3.82-36.36-5.14-52.45s-2.38-31-.79-43.45c1.42-12.5,5.41-22.29,9.4-28.08l2.82-3.73a28.6,28.6,0,0,1,2.37-2.45c1.35-1.27,2.13-1.83,2.32-1.66s-.22,1.08-1.15,2.61c-.44.78-1.11,1.64-1.73,2.79l-2.12,3.9c-3,5.93-5.94,15.2-6.64,27.11-.87,11.91.57,26.23,2.38,42.29s3.52,33.73,5.7,52.25c4.32,37,9.07,70.41,12.15,94.68S327,1007.64,326,1007.8Z" transform="translate(-11 -115.05)"/></g><path class="cls-1" d="M348.36,1038.53a3.56,3.56,0,0,1-.25-.79c-.15-.62-.35-1.4-.59-2.37-.52-2.19-1.24-5.24-2.15-9.12-1.8-7.93-4.19-19.46-6.81-33.77C333.38,963.84,328,924,324.17,879.75c-2-22.12-3.51-43.21-4.87-62.39-.67-9.59-1.31-18.7-1.91-27.23a192.1,192.1,0,0,1-.66-23.83A65.9,65.9,0,0,1,320.42,747a45.94,45.94,0,0,1,7.2-13,34.21,34.21,0,0,1,6.79-6.49,18.23,18.23,0,0,1,2.78-1.71c.18.19-4.11,2.16-9.12,8.56a46.46,46.46,0,0,0-6.87,12.93,66.08,66.08,0,0,0-3.41,19.11,194.21,194.21,0,0,0,.84,23.69c.64,8.53,1.32,17.64,2,27.22,1.44,19.17,3,40.25,5,62.35,3.81,44.2,9,84,13.94,112.69,2.49,14.32,4.71,25.87,6.34,33.83.79,3.9,1.42,7,1.87,9.18.18,1,.33,1.77.45,2.39A3.21,3.21,0,0,1,348.36,1038.53Z" transform="translate(-11 -115.05)"/><path class="cls-1" d="M340.43,1287.68a16.34,16.34,0,0,1-.4-2.4c-.21-1.71-.49-4-.85-6.89-.72-6-1.65-14.68-2.71-25.42-2.11-21.48-4.55-51.2-6.34-84.08s-2.57-62.71-2.79-84.29c-.12-10.79-.13-19.53-.06-25.56q.06-4.36.1-7a14.63,14.63,0,0,1,.14-2.42,15.71,15.71,0,0,1,.16,2.42c.05,1.72.1,4,.18,7,.13,6.17.31,14.86.54,25.54.49,21.56,1.44,51.35,3.22,84.23s4.07,62.57,5.91,84.07c.93,10.63,1.69,19.29,2.23,25.45.24,2.9.43,5.2.57,6.92A14.33,14.33,0,0,1,340.43,1287.68Z" transform="translate(-11 -115.05)"/><circle class="cls-4" cx="338.33" cy="922.28" r="35.28"/><path class="cls-4" d="M328.77,1319.06c.08-5.73.1-21.67,1.66-27.18s4.8-10.79,9.81-13.57c3.91-2.17,8.55-2.65,13-2.4s8.88,1.18,12.49,3.69c5.7,4,8.32,11.28,8.33,18.23l1.18,21.23" transform="translate(-11 -115.05)"/><path class="cls-2" d="M329.54,1312.08l49.58-.46s36.63,7.53,35.91,10.48-86.72,1.14-86.72,1.14Z" transform="translate(-11 -115.05)"/><path class="cls-1" d="M330.9,848a1.19,1.19,0,1,1-.1.07" transform="translate(-11 -115.05)"/><path class="cls-1" d="M327.32,795a1.19,1.19,0,1,1-.1.07" transform="translate(-11 -115.05)"/><path class="cls-1" d="M335.32,913.05a1.22,1.22,0,1,1-.09.07" transform="translate(-11 -115.05)"/><path class="cls-1" d="M344.28,986.17a1.17,1.17,0,1,1-.09.06" transform="translate(-11 -115.05)"/><path class="cls-1" d="M334.15,1097.77a1.2,1.2,0,1,1,.18,2.1,1.25,1.25,0,0,1-.27-2" transform="translate(-11 -115.05)"/><path class="cls-1" d="M339.76,1155.39a1.22,1.22,0,1,1-.09.07" transform="translate(-11 -115.05)"/><path class="cls-1" d="M340.43,1220a1.17,1.17,0,1,1-.09.06" transform="translate(-11 -115.05)"/><path class="cls-5" d="M383.91,1030.34a9.72,9.72,0,0,1-2.06,2.1,44.75,44.75,0,0,1-6.49,4.71,51.33,51.33,0,0,1-50.86,1.21,45.09,45.09,0,0,1-6.71-4.39,10,10,0,0,1-2.15-2c.17-.23,3.36,2.5,9.34,5.45a53.41,53.41,0,0,0,49.85-1.19C380.67,1033,383.73,1030.12,383.91,1030.34Z" transform="translate(-11 -115.05)"/><path class="cls-5" d="M373.8,1296.94c.06.17-2.27,1.24-6.24,2.38a72,72,0,0,1-32,1.53c-4.06-.76-6.48-1.6-6.44-1.78.09-.47,10,2,22.47,1.33S373.67,1296.48,373.8,1296.94Z" transform="translate(-11 -115.05)"/><path class="cls-1" d="M410.56,361.24c.13-.06,1,2.44-.07,6.38a14.81,14.81,0,0,1-25.42,5.81c-2.66-3.09-3-5.72-2.84-5.72s.93,2.31,3.61,5a15,15,0,0,0,5.49,3.47,14.36,14.36,0,0,0,14.72-3.36,15,15,0,0,0,3.43-5.51C410.72,363.72,410.29,361.25,410.56,361.24Z" transform="translate(-11 -115.05)"/><path class="cls-8" d="M886.79,183.81c-9.86-34.41-47.24-66.39-83-66.29-30-8.84-70.33,7.63-86.36,25.37-21.06,23.33-34.36,55.6-25.73,85.83s32.78,55.16,62.13,66.4c33.43,12.8,73.62,7.53,101.46-15S896.66,218.22,886.79,183.81Z" transform="translate(-11 -115.05)"/><path class="cls-9" d="M886.79,183.81c-9.86-34.41-47.24-66.39-83-66.29-30-8.84-70.33,7.63-86.36,25.37-21.06,23.33-34.36,55.6-25.73,85.83s32.78,55.16,62.13,66.4c33.43,12.8,73.62,7.53,101.46-15S896.66,218.22,886.79,183.81Z" transform="translate(-11 -115.05)"/><path class="cls-7" d="M835.34,235a5.53,5.53,0,0,1-.07-1c0-.71,0-1.63-.07-2.78,0-2.53-.09-6.07-.15-10.58-.06-9.24-.15-22.4-.27-38.59l.28.48-45.91-26.33h.7L744,182.68c-.33.58.45-.78.37-.63h0v13.77q0,6.82,0,13.47c0,8.84,0,17.43,0,25.67l-.35-.61L789.78,261h-.56l33.56-19.06,9.24-5.17,2.44-1.32a6,6,0,0,1,.88-.43,4.39,4.39,0,0,1-.74.51l-2.31,1.41-9,5.38-33.49,19.65-.28.16-.28-.16-45.91-26.34-.35-.2V235c0-8.24,0-16.83,0-25.67q0-6.65,0-13.47V182.06h0c-.09.13.71-1.24.38-.66L789.15,155l.35-.21.35.21,45.77,26.59.28.16V182c-.12,16.29-.21,29.53-.27,38.82-.07,4.48-.11,8-.15,10.51,0,1.11-.05,2-.07,2.7A4.18,4.18,0,0,1,835.34,235Z" transform="translate(-11 -115.05)"/><path class="cls-7" d="M835.34,182a21.67,21.67,0,0,1-3.46,2.33l-9.7,5.88c-8.23,4.91-19.65,11.59-32.3,18.9-1.5,0-.43,0-.77,0h0l0,0-.08,0-.15-.09-.29-.17-.59-.34-1.18-.68-2.33-1.35-4.54-2.63-8.59-5-14.49-8.55-9.7-5.88a21.67,21.67,0,0,1-3.46-2.33,22.39,22.39,0,0,1,3.75,1.83l9.94,5.46L772,197.61l8.63,4.93,4.56,2.62,2.33,1.34,1.17.68.6.34.29.17.15.08.07,0,0,0h0c-.33,0,.76,0-.73,0,12.66-7.31,24.16-13.85,32.52-18.53l9.94-5.46A22.84,22.84,0,0,1,835.34,182Z" transform="translate(-11 -115.05)"/><path class="cls-7" d="M789.58,260.78c-.41,0-.75-11.83-.75-26.42s.34-26.42.75-26.42.75,11.83.75,26.42S790,260.78,789.58,260.78Z" transform="translate(-11 -115.05)"/><g class="cls-10"><path class="cls-11" d="M807,166.2" transform="translate(-11 -115.05)"/></g><path class="cls-12" d="M138.65,675.72a46.32,46.32,0,0,1,7-10.09l-3.89-10.69,15.83-10.19,8.12,8a46,46,0,0,1,12.07-2.19l4.81-10.31,18.39,4,.11,11.37a46,46,0,0,1,10.09,7l10.69-3.9,10.19,15.83-8,8.12a46.1,46.1,0,0,1,2.19,12.08l10.31,4.8-4,18.4-11.37.1a46.12,46.12,0,0,1-7,10.09l3.9,10.69L202.29,749l-8.12-8a46.1,46.1,0,0,1-12.08,2.19l-4.8,10.31-18.4-4-.11-11.37a46.25,46.25,0,0,1-10.08-7L138,735.05l-10.19-15.83,8-8.12A46,46,0,0,1,133.6,699l-10.31-4.81,4-18.4,11.37-.1Zm21.73,16a20.19,20.19,0,1,0,24-15.46A20.21,20.21,0,0,0,160.38,691.75Z" transform="translate(-11 -115.05)"/><path class="cls-13" d="M138.65,675.72a46.32,46.32,0,0,1,7-10.09l-3.89-10.69,15.83-10.19,8.12,8a46,46,0,0,1,12.07-2.19l4.81-10.31,18.39,4,.11,11.37a46,46,0,0,1,10.09,7l10.69-3.9,10.19,15.83-8,8.12a46.1,46.1,0,0,1,2.19,12.08l10.31,4.8-4,18.4-11.37.1a46.12,46.12,0,0,1-7,10.09l3.9,10.69L202.29,749l-8.12-8a46.1,46.1,0,0,1-12.08,2.19l-4.8,10.31-18.4-4-.11-11.37a46.25,46.25,0,0,1-10.08-7L138,735.05l-10.19-15.83,8-8.12A46,46,0,0,1,133.6,699l-10.31-4.81,4-18.4,11.37-.1Zm21.73,16a20.19,20.19,0,1,0,24-15.46A20.21,20.21,0,0,0,160.38,691.75Z" transform="translate(-11 -115.05)"/><path class="cls-2" d="M22.62,694.3a33.54,33.54,0,0,1,5-7.31l-2.84-7.72,11.42-7.41,5.89,5.75A33.11,33.11,0,0,1,50.85,676l3.45-7.47,13.31,2.84.11,8.22a33.58,33.58,0,0,1,7.31,5l7.72-2.84,7.41,11.42-5.74,5.89A33.51,33.51,0,0,1,86,707.82l7.47,3.45-2.84,13.31-8.22.11a33.23,33.23,0,0,1-5,7.31l2.85,7.72-11.43,7.41-5.89-5.75A33.11,33.11,0,0,1,54.2,743l-3.44,7.47-13.32-2.84-.11-8.22a33.23,33.23,0,0,1-7.31-5l-7.72,2.84-7.41-11.42,5.75-5.89A33.11,33.11,0,0,1,19,711.17l-7.47-3.45,2.84-13.31,8.23-.11Zm15.75,11.55A14.6,14.6,0,1,0,55.7,694.61,14.6,14.6,0,0,0,38.37,705.85Z" transform="translate(-11 -115.05)"/><path class="cls-2" d="M38.37,705.85s0-.33.1-.94a11,11,0,0,1,.83-2.58,14.45,14.45,0,0,1,6.91-7.11,15,15,0,0,1,14.53.71,15.24,15.24,0,0,1-6,28.09,15.09,15.09,0,0,1-13.57-5.27,14.58,14.58,0,0,1-3.41-9.31,12,12,0,0,1,.29-2.7c.15-.6.25-.9.3-.89s-.15,1.29,0,3.57A14.57,14.57,0,0,0,42,718.06a14,14,0,1,0,4.67-21.89,14.59,14.59,0,0,0-6.84,6.41C38.76,704.6,38.52,705.88,38.37,705.85Z" transform="translate(-11 -115.05)"/><path class="cls-2" d="M22.62,694.3a13.82,13.82,0,0,1-2.05.14l-6.18.21.23-.19c-.7,3.46-1.6,7.94-2.69,13.34l-.22-.42,7.5,3.4.23.1,0,.27a33.3,33.3,0,0,0,1.64,8.6l.1.28-.21.21-5.71,5.93.06-.67c2.35,3.59,4.84,7.4,7.46,11.39l-.7-.23,7.71-2.87.35-.13.28.25a32.64,32.64,0,0,0,7.19,4.92L38,739v.39c0,2.55.08,5.36.13,8.22l-.53-.64,13.32,2.81-.78.39,3.44-7.48.18-.39.43,0a33.26,33.26,0,0,0,8.54-1.59l.41-.14.32.31,5.89,5.73-.9-.09,11.41-7.41-.29.88-2.85-7.72-.15-.43.3-.33a33.45,33.45,0,0,0,4.92-7.14h0l.66-.41h1l1,0,2.06,0,4.1-.06-.72.6q1.44-6.75,2.84-13.32l.42.83-7.47-3.46-.4-.18,0-.45a32.47,32.47,0,0,0-1.57-8.53l-.14-.42.31-.32,5.75-5.88-.09.88-7.39-11.43.82.27-7.73,2.83-.38.14-.3-.28a33,33,0,0,0-7.16-5l-.35-.18v-.39c0-2.82,0-5.55-.08-8.22l.49.6-13.3-2.89.64-.32c-1.23,2.62-2.38,5.08-3.48,7.46l-.14.29-.33,0a33,33,0,0,0-8.6,1.54l-.28.09-.21-.2-5.86-5.78.55.05L25,679.55l.13-.39c1.09,3.07,2,5.61,2.75,7.75l.05.14-.09.11a34.9,34.9,0,0,0-4,5.28c-.77,1.23-1.14,1.91-1.16,1.86a2.18,2.18,0,0,1,.19-.51c.16-.33.4-.83.76-1.48a30.93,30.93,0,0,1,3.9-5.48l0,.25c-.81-2.12-1.76-4.64-2.93-7.69l-.09-.25.22-.15L36,671.49l.29-.19.26.25,5.92,5.7-.49-.11a33.66,33.66,0,0,1,8.85-1.69l-.46.32,3.42-7.49.19-.41.45.09,13.32,2.79.49.1v.5q.08,4,.13,8.23L68,679a34.16,34.16,0,0,1,7.47,5.11L74.8,684l7.71-2.86.52-.19.3.46q3.61,5.57,7.43,11.41l.31.48-.4.4-5.74,5.91.17-.73a33.59,33.59,0,0,1,1.66,8.91l-.42-.63,7.47,3.44.54.25-.13.58q-1.39,6.57-2.83,13.32l-.12.58h-.6l-4.1,0-2.06,0H82.45l.65-.4h0A34.42,34.42,0,0,1,78,732.5l.14-.76c1,2.65,2,5.28,2.84,7.72l.21.56-.5.32-11.43,7.4-.49.32-.42-.41-5.88-5.75.73.17a34,34,0,0,1-8.92,1.64l.61-.41-3.46,7.46-.24.51-.54-.12L37.3,748.28l-.52-.11v-.53c0-2.86-.05-5.68-.08-8.23L37,740a34,34,0,0,1-7.43-5.15l.63.12-7.73,2.82-.45.16-.25-.39-7.36-11.46-.23-.36.29-.3,5.77-5.86-.11.49a34.25,34.25,0,0,1-1.59-8.85l.26.37-7.44-3.5-.28-.13.06-.29c1.21-5.38,2.21-9.85,3-13.29l0-.19h.19l6.08.05,1.59,0A3.3,3.3,0,0,1,22.62,694.3Z" transform="translate(-11 -115.05)"/><path class="cls-2" d="M38.37,705.85a11,11,0,0,1,.48-1.76,14.3,14.3,0,0,1,2.55-4.59,14.89,14.89,0,0,1,6.91-4.64,14.73,14.73,0,0,1,18.92,11.52,14.88,14.88,0,0,1-13.29,17.38,15.21,15.21,0,0,1-16.35-13.2,16.42,16.42,0,0,1-.12-2.42c0-.4,0-.8.07-1.21l.06-.59,0-.29v-.12h0a.89.89,0,0,0,0,.11.76.76,0,0,0,.6.56l.81-.48a8.69,8.69,0,0,0-.34,1.82A14,14,0,0,0,47.16,722a14.26,14.26,0,0,0,15.28-2.67,14.39,14.39,0,0,0-14.11-24.26,14.7,14.7,0,0,0-6.8,4.48,15.55,15.55,0,0,0-3.16,6.3,4.42,4.42,0,0,1,.27-1.86,13.48,13.48,0,0,1,2.44-4.81,15.1,15.1,0,0,1,7-4.91,15.32,15.32,0,0,1,11.27.63,15.53,15.53,0,0,1,8.57,10.58A15.62,15.62,0,0,1,46.6,723.35a15.45,15.45,0,0,1-9.36-15.57,10.18,10.18,0,0,1,.43-2.2l.19-.57.63.1c.53.09.7.75.63.62a1.24,1.24,0,0,1,0,.18v.3l0,.3,0,.55q0,.56-.06,1.11a16,16,0,0,0,.1,2.2,14.1,14.1,0,0,0,1.21,4.14,13.9,13.9,0,0,0,5.66,6.13,13.61,13.61,0,1,0,12.87-24,13.94,13.94,0,0,0-10.26-1,14.45,14.45,0,0,0-6.71,4.23C38.92,703.27,38.65,706,38.37,705.85Z" transform="translate(-11 -115.05)"/><path class="cls-2" d="M22.62,694.3l-8.34.14.17-.13c-.73,3.46-1.7,8-2.88,13.59l-.15-.3,7.63,3.51-.39.46-.14-.21.57-.19a33.42,33.42,0,0,0,1.62,8.71l-.68,0,.06-.28.6.33L14.79,726l.05-.49,7.69,11.84-.51-.17,8-3,.08.89-.36-.07.4-.79a33.29,33.29,0,0,0,7.29,5l-.63.7-.2-.32.9-.26c0,2.59.08,5.52.12,8.52l-.4-.5,13.91,3-.6.31c1.08-2.36,2.31-5,3.57-7.76l.82.7-.34.23-.34-1a33.93,33.93,0,0,0,8.68-1.62l0,1.11-.41-.09.53-1,6.14,6-.74-.07,12-7.78-.24.73c-.91-2.45-1.93-5.22-3-8l1.21-.1c0,.13,0,.28-.08.43l-1.08-.55a33.43,33.43,0,0,0,5-7.28l.91.85-.37.23-.35-1.19,8.56-.12-.63.52c.91-4.32,1.92-9.11,3-14l.38.75-7.77-3.58.85-1c.07.11.15.23.24.35l-1.25.42a33.26,33.26,0,0,0-1.62-8.65l1.33-.06c0,.13-.06.27-.09.41l-1.17-.64,6-6.13-.08.87L82.31,681.7l.84.28-8,3L75,683.56l.38.08-.62,1.23a33.31,33.31,0,0,0-7.25-5l1-1,.19.32-1.34.39c0-2.64-.08-5.56-.12-8.5l.57.7L54,668.88l.82-.42-3.53,7.71-1.09-.92.26-.17.45,1.35a33.12,33.12,0,0,0-8.6,1.62l-.07-1.43.28.07-.68,1.25-6.06-5.86.93.09L25,679.82l.29-.89,2.94,7.85-1.43.12,0-.14,1.3.64a30.59,30.59,0,0,0-4.31,6.19l-.29.54a.14.14,0,0,0-.06-.13.31.31,0,0,0-.13-.06h-.06c.21-.06-.87-.63-1-.26a.53.53,0,0,0-.14.12l0,.05h0l.63-1.08c.43-.74.9-1.49,1.38-2.2a35,35,0,0,1,3.2-4l-.15.76-2.82-7.82,1.41,0-.07.22-1.11-.86L36,671.44l.33,1.37-.31,0,.6-1.27,6,5.88-.75-.18A34.06,34.06,0,0,1,51,675.54l-.64.43q1.79-3.84,3.55-7.62l1,1-.36.17-.17-1.37L67.69,671,67,672.16l-.28-.33,1.29-.47c0,2.83.06,5.65.09,8.44l-.39-.64a33.94,33.94,0,0,1,7.74,5.36l-.73-.15,7.94-2.9,0,1.34-.46-.15L83,681.6,90.41,693l-1.28.32.05-.5,1.19.56-5.92,6.06.16-.7a33.41,33.41,0,0,1,1.7,9.28l-.39-.58L93.61,711l-.89.91-.23-.46,1.26-.16c-1,4.55-1.92,9-2.86,13.31l-1-.64.4-.33.42,1.16-8.47.1.56-.35a33.44,33.44,0,0,1-5.36,7.76l.13-.64c1,2.77,2,5.38,2.92,8l-1.17,0,.16-.49.93.71-11.44,7.39-.26-1.09.51,0-.47,1-6.07-5.92.59.13a33.56,33.56,0,0,1-9.25,1.7l.48-.32c-1.27,2.75-2.43,5.24-3.56,7.68l-.73-.71.43-.22.13,1-13.31-2.85.5-.82.3.36-.9.33c0-3.1-.07-5.8-.1-8.44l.26.43a34.24,34.24,0,0,1-7.68-5.3l.47.09-7.92,2.9v-.82l.38.13-.49.65c-2.8-4.33-5.18-8-7.4-11.43l.71-.17,0,.37-.66-.31c2.32-2.36,4.14-4.23,5.87-6l-.08.35A33.14,33.14,0,0,1,19,711l.18.26-7.6-3.52.35-.36.12.24-.5.06c1.24-5.77,2.16-10,2.86-13.31l.27.17-.13.1-.11-.29,8.23-.08a10.41,10.41,0,0,1-2,.18l-6.19.23h-.48l.37-.3.13-.11.35-.3-.09.46C14,697.76,13.18,702,12,707.82l-.15.75-.35-.68-.12-.24-.34-.67.69.31,7.64,3.44.17.08V711a33.13,33.13,0,0,0,1.71,8.86l.07.2-.15.16-5.82,6-.76.79.11-1.1,0-.37.11-1.08.6.91,7.47,11.38.68,1-1.18-.39-.39-.12-1.17-.39L22,736.5l7.9-3,.26-.09.21.18a32.66,32.66,0,0,0,7.5,5.12l.26.13v.3c0,2.63.09,5.34.14,8.44l0,1.45L37.42,748l-.29-.36-.92-1.12,1.41.3L51,749.56l1.51.31-1.38.7-.44.22-1.37.69.64-1.4c1.12-2.45,2.26-4.94,3.53-7.7l.14-.31h.34a32.56,32.56,0,0,0,8.94-1.69l.33-.11.25.25,6.08,5.9,1.22,1.18-1.69-.17-.51,0-1.69-.17,1.43-.93,11.4-7.43,1.48-1-.55,1.68c-.06.15-.11.31-.17.49l-.55,1.67-.62-1.65c-1-2.58-1.91-5.19-2.94-8l-.13-.36.26-.28a32.76,32.76,0,0,0,5.15-7.5l.17-.35h.39l8.48-.12,1.87,0-1.45,1.19-.4.33-1.45,1.19.39-1.83c.92-4.35,1.86-8.77,2.82-13.32l.4-1.88.86,1.72.24.46.86,1.72L93,712.25l-7.69-3.54-.38-.18,0-.41a32.69,32.69,0,0,0-1.65-8.92l-.14-.4.3-.3,5.91-6.07L90.76,691l-.19,2,0,.49-.19,2-1.09-1.69q-3.66-5.62-7.41-11.42l-1.1-1.7,1.92.64.46.15,1.93.64-1.91.71-7.94,2.91-.41.15-.32-.29A32.56,32.56,0,0,0,67,680.45l-.39-.19v-.44c0-2.8-.06-5.61-.1-8.45l0-2.07,1.32,1.6.27.34,1.33,1.61-2-.44-13.31-2.85-2-.44,1.87-.94.36-.18,1.88-.94L55.25,669q-1.76,3.79-3.54,7.62l-.19.41-.44,0a32.74,32.74,0,0,0-8.8,1.6l-.43.14-.32-.31-6-5.88L34,671.09l2.1.21.31,0,2.12.21-1.8,1.16-11.45,7.36-1.78,1.14.67-2,.07-.22.68-2,.73,2c.94,2.59,1.87,5.18,2.83,7.82l.15.43-.31.33a34.81,34.81,0,0,0-3.06,3.86c-.47.69-.91,1.38-1.33,2.12l-.65,1.11-.09.13-.06.07-.14.12c-.18.37-1.26-.21-1.05-.26h0v-.12a2.16,2.16,0,0,1,0-.36,2,2,0,0,1,.2-.71l.31-.59A31.59,31.59,0,0,1,27,686.41l1.81-2-.52,2.68,0,.13-.51,2.6-.93-2.48c-1-2.69-2-5.37-2.94-7.84l-.21-.56.5-.33,11.68-7.64.5-.33.43.41,6,5.87,1.92,1.86-2.61-.61-.27-.06-2.57-.6,2.5-.83a35,35,0,0,1,9-1.69l2.66-.13-2.2,1.48-.26.18L48.8,678l1.1-2.39c1.22-2.66,2.44-5.3,3.54-7.71l.25-.54.57.13,13.85,2.92.57.12v.59c0,2.93.09,5.86.12,8.5l0,2.6L67.46,680l-.19-.32-1.37-2.19,2.31,1.17a34.36,34.36,0,0,1,7.55,5.19l1.91,1.73-2.53-.49-.38-.08-2.52-.49,2.41-.89,8-3,.53-.2.31.48,7.75,11.94.31.47-.39.41-6,6.12-1.73,1.78.56-2.42c0-.15.07-.29.1-.41l.56-2.41.77,2.35a34.42,34.42,0,0,1,1.66,9l.12,2.44-1.37-2-.23-.35-1.37-2,2.22,1,7.76,3.6.49.22-.11.53c-1,4.86-2.06,9.65-3,14l-.11.51H91l-8.56.1-2.31,0,2-1.22.37-.23,2-1.21-1,2.07a34.39,34.39,0,0,1-5.19,7.51l-1.52,1.66.43-2.2.09-.43.43-2.22.78,2.13c1,2.8,2,5.58,2.94,8l.17.47-.41.27c-4.2,2.7-8.31,5.36-12,7.74l-.4.26-.34-.33-6.12-6-1.48-1.45,2,.47.41.1,2,.47-2,.64a34.59,34.59,0,0,1-9,1.64l-2,.09,1.66-1.12.34-.23,1.67-1.12-.85,1.82c-1.26,2.72-2.51,5.39-3.6,7.74l-.18.39-.43-.09-13.9-3-.4-.09v-.4c0-3-.05-5.93-.07-8.52l0-1.75.92,1.48.19.32L38.5,741,37,740.16A34,34,0,0,1,29.48,735l-1.21-1.11,1.61.32.35.06,1.63.32-1.56.57-8,2.89-.33.12-.19-.29L14.19,726,14,725.7l.22-.22,6-6,.89-.9-.29,1.23c0,.1-.05.19-.07.28l-.29,1.24L20,720.09a33.74,33.74,0,0,1-1.58-8.89l0-1.12L19,711l.14.21.63.94-1-.48-7.59-3.59L11,708l.05-.21,3.07-13.55,0-.13h.13l6.24.07,1.57.06A5.23,5.23,0,0,1,22.62,694.3Z" transform="translate(-11 -115.05)"/></svg>